<?xml version="1.0" standalone="no"?>
<!DOCTYPE svg PUBLIC "-//W3C//DTD SVG 20010904//EN"
 "http://www.w3.org/TR/2001/REC-SVG-20010904/DTD/svg10.dtd">
<svg version="1.0" xmlns="http://www.w3.org/2000/svg"
 width="1024.000000pt" height="576.000000pt" viewBox="0 0 1024.000000 576.000000"
 preserveAspectRatio="xMidYMid meet">

<g transform="translate(0.000000,576.000000) scale(0.100000,-0.100000)"
fill="#000000" stroke="none">
<path d="M0 4800 l0 -960 850 0 850 0 0 -965 0 -965 -850 0 -850 0 0 -955 0
-955 853 0 852 0 0 947 0 948 24 3 c15 2 21 0 17 -7 -4 -6 -2 -11 3 -11 6 0
11 7 11 15 0 13 101 15 818 17 449 2 1205 4 1680 5 l862 3 0 -960 0 -960 1700
0 1700 0 0 960 0 960 -845 0 -845 0 2 958 3 957 853 3 852 2 0 960 0 960
-1712 0 -1713 0 0 -962 0 -963 -810 0 c-445 1 -1214 2 -1707 3 l-898 2 0 960
0 960 -850 0 -850 0 0 -960z m8024 248 c9 -104 6 -112 -37 -116 -32 -3 -36 -1
-39 24 l-3 28 -30 -26 -30 -26 18 -48 c21 -59 22 -142 3 -188 -22 -53 -77
-108 -134 -133 -48 -21 -53 -26 -50 -51 3 -23 8 -27 41 -30 35 -3 37 -5 37
-37 0 -32 -2 -34 -37 -37 -35 -3 -38 -6 -41 -35 -3 -30 -6 -33 -37 -33 -31 0
-34 3 -37 33 -3 29 -6 32 -40 35 -36 3 -38 5 -38 37 0 32 2 34 38 37 34 3 37
6 37 32 0 25 -6 31 -40 43 -123 41 -191 177 -153 304 15 51 69 114 122 141 57
31 155 31 212 1 l41 -22 34 35 33 34 -32 0 c-30 0 -32 2 -32 35 l0 35 94 0 94
0 6 -72z m-1611 1 c16 -26 1 -49 -33 -49 -31 0 -38 17 -24 55 8 20 43 16 57
-6z m-5973 -24 c7 -8 10 -25 6 -40 -5 -20 -13 -25 -36 -25 -36 0 -56 30 -40
60 13 24 52 26 70 5z m895 -25 c0 -33 -2 -35 -35 -35 -29 0 -36 4 -38 23 -5
32 16 54 47 50 22 -3 26 -8 26 -38z m-555 6 c19 -23 8 -61 -18 -64 -44 -7 -67
32 -36 62 19 20 38 20 54 2z m230 -1 c7 -8 10 -25 6 -40 -11 -41 -76 -29 -76
15 0 36 47 53 70 25z m4620 -240 c0 -140 1 -255 3 -255 1 0 65 -18 142 -40 77
-22 149 -40 160 -39 11 0 83 21 160 47 l140 47 1 245 c2 198 5 245 15 245 11
0 15 -49 17 -257 l2 -257 -158 -51 c-88 -27 -168 -50 -178 -50 -11 0 -90 19
-176 42 l-158 43 0 261 c0 143 3 264 7 267 20 20 23 -15 23 -248z m168 180
l122 -70 0 -207 c0 -145 -3 -208 -11 -208 -16 0 -221 61 -241 71 -16 9 -18 31
-18 250 0 196 2 240 13 237 8 -2 68 -34 135 -73z m412 -168 l0 -243 -119 -37
c-66 -20 -127 -37 -135 -37 -15 0 -16 23 -14 207 l3 208 125 72 c68 40 128 73
132 73 5 0 8 -109 8 -243z m207 -29 c-2 -157 -8 -246 -17 -273 l-13 -40 -16
35 c-13 28 -16 81 -19 273 l-3 237 36 0 36 0 -4 -232z m-5926 173 c13 -16 19
-40 19 -75 1 -129 114 -125 150 6 7 26 18 52 25 58 7 6 41 10 76 8 l62 -3 22
-65 22 -65 18 55 c25 79 29 81 99 78 59 -3 62 -4 78 -38 9 -19 20 -54 24 -77
6 -37 4 -43 -11 -43 -14 0 -16 -6 -11 -31 5 -25 2 -32 -14 -36 -17 -5 -20 -14
-20 -64 0 -47 -4 -61 -17 -66 -10 -4 -19 -1 -21 6 -3 9 -7 9 -18 0 -29 -23
-44 -3 -44 60 0 51 -3 59 -21 64 -12 3 -19 11 -17 19 19 51 19 54 -9 52 -57
-3 -56 -2 -49 -35 5 -25 2 -32 -14 -36 -16 -4 -20 -15 -22 -67 l-3 -61 -45 0
-45 0 -3 61 c-2 51 -6 63 -22 67 -17 4 -18 9 -10 38 6 19 10 35 10 35 0 1 -9
0 -20 -3 -33 -9 -53 -57 -41 -98 6 -21 6 -37 0 -41 -5 -3 -9 -18 -9 -34 0 -26
-3 -28 -35 -27 -41 1 -49 17 -47 92 1 50 -14 105 -28 105 -5 0 -15 3 -24 6
-13 5 -16 -9 -18 -98 -3 -95 -4 -103 -23 -103 -18 0 -21 9 -26 95 l-5 95 -2
-97 c-2 -89 -4 -98 -21 -98 -26 0 -31 18 -31 123 0 95 -12 108 -28 32 -7 -32
-9 -18 -10 69 -1 61 1 118 4 129 8 25 39 36 103 33 42 -2 58 -7 72 -25z m897
0 c8 -10 12 -40 10 -86 -3 -60 -6 -70 -20 -69 -16 2 -18 -8 -18 -80 0 -100 -7
-126 -31 -126 -11 0 -19 5 -19 12 0 9 -3 9 -12 0 -7 -7 -20 -12 -30 -12 -17 0
-18 13 -20 158 -1 96 -4 136 -7 102 -4 -40 -10 -55 -21 -55 -12 0 -16 15 -18
67 -4 85 7 106 56 111 58 5 116 -4 130 -22z m-789 -105 c13 -16 -1 -56 -19
-56 -23 0 -40 14 -40 35 0 34 38 47 59 21z m579 -14 c2 -13 -2 -30 -8 -38 -10
-11 -9 -14 6 -14 20 0 59 -74 48 -91 -9 -15 -24 -10 -26 9 -1 9 -4 -10 -7 -43
l-6 -60 -37 -2 -38 -2 0 56 c0 49 -2 54 -15 43 -9 -7 -18 -10 -22 -7 -10 11
28 97 43 97 16 0 18 9 5 29 -14 22 6 53 32 49 14 -2 23 -11 25 -26z m-871
-154 c-3 -8 -6 -5 -6 6 -1 11 2 17 5 13 3 -3 4 -12 1 -19z m-10 -55 c-3 -10
-5 -4 -5 12 0 17 2 24 5 18 2 -7 2 -21 0 -30z m4103 -1351 c71 -38 68 -28 69
-175 1 -70 3 -79 21 -84 11 -3 20 -9 20 -13 0 -5 10 -12 21 -15 12 -4 42 -19
65 -34 l44 -26 0 -116 c0 -81 -4 -120 -12 -127 -7 -6 -52 -32 -99 -60 l-86
-49 -39 22 c-22 12 -62 36 -89 53 l-49 30 -50 -29 c-28 -16 -50 -34 -48 -40 1
-6 -2 -8 -8 -4 -6 4 -26 -2 -45 -14 -19 -11 -35 -15 -37 -9 -2 5 -15 11 -30
11 -14 1 -25 5 -23 8 2 3 -26 23 -63 44 -37 21 -70 43 -74 49 -4 6 -8 59 -8
117 0 119 -1 117 82 159 26 13 44 28 41 34 -3 5 -1 6 5 2 6 -4 20 -1 32 6 18
12 20 23 20 118 l0 105 103 57 102 57 45 -27 c25 -14 65 -37 90 -50z m-1500
47 c0 -5 -5 -30 -11 -55 -11 -44 -22 -54 -35 -33 -4 7 -66 -48 -155 -137
l-149 -149 -60 60 -61 60 -90 -92 c-50 -51 -97 -93 -104 -93 -8 0 -19 8 -24
18 -8 16 8 37 105 133 l114 114 59 -59 c41 -40 63 -56 73 -50 7 4 64 57 126
118 93 91 112 114 107 133 -4 19 0 24 27 32 45 13 78 13 78 0z m3250 -41 c30
-15 66 -36 80 -47 l25 -20 -28 -28 c-23 -24 -30 -26 -45 -15 -124 90 -289 82
-390 -19 -121 -120 -111 -321 21 -434 150 -129 386 -84 474 89 34 66 43 182
19 240 -9 22 -15 41 -12 43 2 2 11 -14 19 -36 65 -161 -6 -345 -166 -429 -46
-24 -63 -27 -147 -27 -82 0 -102 4 -150 26 -137 66 -222 217 -207 367 13 126
117 259 234 301 84 30 198 25 273 -11z m-3302 -400 l-3 -283 -82 -3 -83 -3 0
215 0 214 78 71 c42 39 80 71 85 71 4 0 6 -127 5 -282z m3310 125 l-3 -38
-147 -3 -148 -3 0 41 0 40 151 0 150 0 -3 -37z m-3738 -217 c0 -211 8 -196
-101 -196 l-69 0 0 123 1 122 77 68 c42 37 80 67 84 67 4 0 8 -83 8 -184z
m168 130 c21 19 40 34 45 34 4 0 6 -80 5 -177 l-3 -178 -84 0 -83 0 0 170 c1
94 1 177 2 185 0 9 16 -1 41 -26 l41 -41 36 33z m3572 -36 l0 -40 -150 0 -150
0 0 40 0 40 150 0 150 0 0 -40z m220 -1437 c0 -23 -29 -53 -52 -53 -23 0 -24
32 -2 54 21 21 54 21 54 -1z m-102 -5 c7 -7 12 -18 12 -26 0 -19 25 -42 47
-42 10 0 24 -4 32 -9 10 -7 8 -12 -10 -25 -20 -14 -26 -14 -45 -1 -19 12 -24
12 -37 -3 -14 -16 -13 -17 16 -17 21 0 33 -5 35 -16 4 -22 -32 -31 -55 -13
-10 7 -21 14 -25 14 -12 0 -9 -38 3 -46 8 -4 7 -9 -2 -15 -8 -5 -13 -21 -11
-40 3 -21 0 -29 -7 -25 -6 4 -11 18 -11 32 0 17 -6 24 -18 24 -36 0 -54 -35
-62 -119 -13 -121 -51 -175 -151 -210 -51 -18 -54 -21 -54 -53 0 -32 1 -33 45
-36 25 -2 73 -1 106 3 58 6 62 8 66 34 2 15 -2 33 -10 40 -28 26 -6 36 88 39
97 3 123 -5 101 -32 -17 -20 -17 -191 -1 -211 22 -27 0 -35 -95 -35 -96 0
-120 9 -93 36 8 9 13 27 10 44 -4 28 -6 29 -78 35 -40 4 -93 5 -116 2 -24 -4
-124 -7 -223 -9 l-180 -2 0 34 0 35 148 -4 148 -3 -3 32 c-3 30 -7 34 -48 44
-25 7 -72 27 -105 46 l-60 35 53 6 c50 7 61 12 120 67 8 7 13 14 11 15 -2 1
-17 9 -34 17 -42 22 -69 68 -89 152 -12 48 -27 83 -44 101 l-26 27 50 0 c61 0
132 -33 196 -89 82 -73 133 -72 217 1 47 40 88 49 114 24 11 -12 15 -11 25 5
10 15 9 19 -2 19 -16 0 -26 21 -26 56 0 14 6 24 15 24 19 0 38 -37 30 -58 -5
-13 -2 -13 15 3 20 18 20 18 0 32 -26 19 -27 73 0 73 3 0 11 -5 18 -12z m1480
-74 c43 -18 90 -60 103 -91 5 -15 17 -23 32 -23 41 0 116 -56 137 -103 34 -75
18 -183 -33 -226 -11 -8 -13 -24 -10 -51 8 -57 -33 -136 -89 -173 -33 -21 -54
-27 -100 -27 -31 0 -68 5 -82 11 -19 9 -33 9 -58 -2 -43 -18 -126 -16 -163 4
-65 33 -105 101 -105 178 0 40 -5 58 -25 80 -23 28 -45 86 -45 119 0 75 64
160 137 181 28 9 52 23 61 39 55 87 152 121 240 84z m-6763 -129 c84 -20 158
-53 232 -103 62 -43 163 -143 163 -163 0 -7 -36 -48 -81 -91 -129 -128 -279
-188 -469 -188 -189 0 -347 66 -481 201 -61 62 -68 79 -47 105 92 114 226 201
363 235 88 22 234 24 320 4z"/>
<path d="M7614 4941 c-83 -38 -122 -130 -90 -215 32 -84 110 -124 199 -101
159 41 174 246 22 316 -51 23 -79 23 -131 0z m178 -98 c10 -39 0 -43 -113 -43
l-109 0 0 30 0 30 109 0 c95 0 109 -2 113 -17z m-2 -102 l0 -30 -100 -3 c-55
-2 -105 -1 -110 0 -6 2 -10 17 -10 33 l0 29 110 0 110 0 0 -29z"/>
<path d="M4106 3092 c1 -54 2 -57 24 -54 13 1 33 13 44 25 12 13 27 22 34 19
7 -2 12 -1 12 2 0 6 -100 66 -110 66 -3 0 -5 -26 -4 -58z"/>
<path d="M4357 3118 l-48 -31 50 -28 c28 -16 53 -29 56 -29 3 0 5 27 5 60 0
33 -3 60 -7 59 -5 0 -30 -14 -56 -31z"/>
<path d="M4280 2984 c0 -36 3 -64 8 -62 4 2 31 16 60 32 l53 30 -28 14 c-15 8
-35 20 -43 27 -42 34 -50 28 -50 -41z"/>
<path d="M4177 3013 l-47 -26 27 -19 c16 -10 34 -16 41 -13 7 3 10 1 7 -5 -3
-5 3 -14 13 -19 18 -9 19 -6 21 49 1 33 -2 60 -6 60 -4 0 -29 -12 -56 -27z"/>
<path d="M4372 2918 l-63 -40 27 -14 c14 -8 30 -11 35 -8 5 3 8 0 7 -7 -2 -7
2 -13 9 -14 7 0 22 -8 33 -18 19 -16 22 -16 60 8 22 14 43 25 48 25 5 0 16 8
26 19 16 17 13 20 -46 52 -35 19 -65 35 -68 36 -3 1 -33 -16 -68 -39z"/>
<path d="M3920 2763 l0 -78 70 -38 70 -38 0 78 0 78 -65 38 c-35 20 -66 37
-69 37 -3 0 -6 -35 -6 -77z"/>
<path d="M4181 2807 c-51 -32 -51 -34 -29 -45 13 -6 38 -21 56 -33 l33 -21 -2
66 c-1 36 -3 66 -3 66 -1 0 -26 -15 -55 -33z"/>
<path d="M4555 2814 c-22 -14 -50 -29 -62 -34 -21 -9 -23 -16 -23 -91 l0 -81
33 22 c17 11 47 28 65 37 l32 17 0 78 c0 43 -1 78 -2 78 -2 0 -21 -12 -43 -26z"/>
<path d="M4108 2708 c-3 -46 -3 -98 1 -98 2 0 28 14 58 31 l55 31 -51 29 c-60
35 -61 35 -63 7z"/>
<path d="M5880 820 c0 -16 5 -30 10 -30 6 0 10 14 10 30 0 17 -4 30 -10 30 -5
0 -10 -13 -10 -30z"/>
<path d="M7625 1288 c-28 -15 -65 -50 -65 -60 0 -5 15 -15 34 -23 18 -8 47
-30 64 -49 l31 -36 22 31 c12 18 42 40 66 51 38 17 42 21 32 39 -26 50 -131
77 -184 47z"/>
<path d="M7433 1150 c-40 -24 -63 -67 -63 -120 0 -38 23 -100 36 -100 3 0 26
18 51 40 25 22 54 40 64 40 24 0 24 11 0 52 -11 18 -23 50 -26 71 -8 42 -17
45 -62 17z"/>
<path d="M7543 1134 c8 -47 30 -80 70 -104 43 -26 47 -25 47 10 0 58 -57 130
-103 130 -17 0 -19 -5 -14 -36z"/>
<path d="M7760 1132 c-35 -35 -62 -103 -47 -118 3 -3 21 2 41 11 39 19 70 62
81 113 6 28 4 32 -15 32 -12 0 -39 -17 -60 -38z"/>
<path d="M7880 1142 c0 -16 -11 -50 -24 -76 l-24 -47 39 -16 c22 -8 50 -29 64
-45 25 -29 27 -30 45 -13 25 22 35 86 20 129 -13 40 -72 96 -100 96 -15 0 -20
-7 -20 -28z"/>
<path d="M7534 964 c-20 -7 -47 -23 -60 -35 -23 -22 -24 -24 -8 -36 23 -17 66
-16 107 1 37 15 72 51 63 64 -10 16 -64 19 -102 6z"/>
<path d="M7753 970 c-28 -11 -28 -12 -5 -37 36 -42 110 -65 156 -47 26 10 18
30 -22 57 -42 30 -96 41 -129 27z"/>
<path d="M7666 902 c-20 -39 -21 -104 0 -143 19 -38 35 -33 53 17 16 47 9 102
-18 135 l-18 23 -17 -32z"/>
<path d="M7434 806 c12 -70 75 -125 148 -126 66 0 70 5 42 60 -13 26 -24 61
-24 76 l0 29 -86 0 -86 0 6 -39z"/>
<path d="M7772 811 c-1 -19 -11 -52 -22 -75 -23 -47 -16 -56 45 -56 73 0 145
67 145 135 l0 30 -83 0 -84 0 -1 -34z"/>
<path d="M794 1153 l-22 -4 24 -26 c28 -30 27 -43 -3 -58 -12 -6 -28 -17 -37
-24 -9 -7 -24 -11 -35 -8 -10 2 -27 0 -37 -6 -17 -10 -14 -12 21 -22 76 -22
41 -49 -45 -34 -24 4 -25 2 -25 -51 0 -51 2 -55 22 -53 25 3 63 -39 63 -68 0
-10 4 -21 10 -24 12 -8 50 53 50 82 0 12 5 23 12 25 8 3 5 14 -10 33 -16 21
-20 31 -12 39 8 8 15 6 25 -8 8 -10 19 -15 25 -11 8 5 6 12 -5 25 -32 35 -10
45 25 12 18 -18 36 -32 41 -32 4 0 15 -3 24 -6 10 -4 15 -2 13 7 -6 26 32 21
42 -5 l9 -26 26 25 c13 14 24 31 22 38 -1 7 6 11 16 11 32 -3 16 55 -29 100
-56 56 -138 83 -210 69z"/>
<path d="M716 1071 c-15 -6 -16 -9 -5 -13 8 -2 25 1 39 9 22 11 22 13 5 12
-11 0 -29 -4 -39 -8z"/>
<path d="M1003 856 c-41 -14 -57 -31 -50 -50 9 -23 40 -20 64 7 43 48 39 62
-14 43z"/>
<path d="M935 750 c-3 -5 -2 -10 4 -10 5 0 13 5 16 10 3 6 2 10 -4 10 -5 0
-13 -4 -16 -10z"/>
<path d="M797 743 c-17 -16 -3 -23 48 -23 56 0 73 13 33 24 -31 8 -73 8 -81
-1z"/>
<path d="M2390 1310 c0 -5 7 -10 16 -10 8 0 12 5 9 10 -3 6 -10 10 -16 10 -5
0 -9 -4 -9 -10z"/>
<path d="M9367 1263 c-21 -5 -18 -29 13 -100 15 -34 22 -41 39 -36 19 5 21 13
21 74 0 69 0 69 -27 68 -16 -1 -36 -3 -46 -6z"/>
<path d="M9468 1224 c0 -27 0 -58 1 -69 2 -20 20 -37 35 -32 11 4 59 127 52
134 -2 3 -23 7 -45 10 l-41 6 -2 -49z"/>
<path d="M2288 1253 c7 -3 16 -2 19 1 4 3 -2 6 -13 5 -11 0 -14 -3 -6 -6z"/>
<path d="M9273 1219 l-33 -21 43 -49 c43 -50 52 -55 75 -41 9 6 7 22 -10 70
-13 34 -27 62 -33 62 -5 0 -25 -10 -42 -21z"/>
<path d="M3015 1210 c3 -5 8 -10 11 -10 2 0 4 5 4 10 0 6 -5 10 -11 10 -5 0
-7 -4 -4 -10z"/>
<path d="M2210 1206 c0 -3 9 -10 20 -16 11 -6 20 -8 20 -6 0 3 -9 10 -20 16
-11 6 -20 8 -20 6z"/>
<path d="M2852 1177 c-8 -10 -6 -16 9 -25 11 -7 19 -8 19 -2 0 5 -4 10 -10 10
-5 0 -10 5 -10 11 0 6 7 8 16 5 8 -3 12 -2 9 4 -8 14 -20 13 -33 -3z"/>
<path d="M2458 1173 c7 -3 16 -2 19 1 4 3 -2 6 -13 5 -11 0 -14 -3 -6 -6z"/>
<path d="M2688 1173 c7 -3 16 -2 19 1 4 3 -2 6 -13 5 -11 0 -14 -3 -6 -6z"/>
<path d="M2570 1159 c0 -5 5 -7 10 -4 6 3 10 8 10 11 0 2 -4 4 -10 4 -5 0 -10
-5 -10 -11z"/>
<path d="M2345 1150 c-3 -6 1 -7 9 -4 18 7 21 14 7 14 -6 0 -13 -4 -16 -10z"/>
<path d="M2660 1150 c8 -5 20 -10 25 -10 6 0 3 5 -5 10 -8 5 -19 10 -25 10 -5
0 -3 -5 5 -10z"/>
<path d="M2172 1110 c0 -14 2 -19 5 -12 2 6 2 18 0 25 -3 6 -5 1 -5 -13z"/>
<path d="M2380 1085 c-9 -10 -9 -15 -1 -15 6 0 11 5 11 11 0 5 5 7 10 4 6 -3
10 -1 10 4 0 16 -16 13 -30 -4z"/>
<path d="M2595 1090 c-3 -5 -2 -10 4 -10 5 0 13 5 16 10 3 6 2 10 -4 10 -5 0
-13 -4 -16 -10z"/>
<path d="M2210 1080 c0 -5 5 -10 11 -10 5 0 7 5 4 10 -3 6 -8 10 -11 10 -2 0
-4 -4 -4 -10z"/>
<path d="M2560 1070 c-13 -8 -12 -10 3 -10 9 0 17 5 17 10 0 12 -1 12 -20 0z"/>
<path d="M9693 1047 c-63 -31 -70 -40 -54 -65 6 -11 24 -12 75 -7 59 7 66 10
66 29 -1 11 -6 33 -13 47 l-12 27 -62 -31z"/>
<path d="M2860 1066 c0 -2 7 -7 16 -10 8 -3 12 -2 9 4 -6 10 -25 14 -25 6z"/>
<path d="M9147 1057 c-3 -7 3 -13 14 -13 13 0 15 3 7 13 -6 7 -12 13 -13 13
-2 0 -5 -6 -8 -13z"/>
<path d="M9210 1030 c8 -5 20 -10 25 -10 6 0 3 5 -5 10 -8 5 -19 10 -25 10 -5
0 -3 -5 5 -10z"/>
<path d="M2698 993 c7 -3 16 -2 19 1 4 3 -2 6 -13 5 -11 0 -14 -3 -6 -6z"/>
<path d="M2268 983 c7 -3 16 -2 19 1 4 3 -2 6 -13 5 -11 0 -14 -3 -6 -6z"/>
<path d="M2580 969 c0 -5 5 -7 10 -4 6 3 10 8 10 11 0 2 -4 4 -10 4 -5 0 -10
-5 -10 -11z"/>
<path d="M2202 956 c7 -8 15 -12 17 -11 5 6 -10 25 -20 25 -5 0 -4 -6 3 -14z"/>
<path d="M9120 921 c0 -22 5 -43 11 -47 6 -3 38 2 70 11 43 13 59 23 59 36 0
13 -11 19 -42 24 -24 3 -55 8 -70 11 -27 5 -28 4 -28 -35z"/>
<path d="M9720 953 c-65 -6 -80 -13 -80 -33 0 -15 12 -23 52 -35 64 -19 88
-19 88 -1 0 7 3 28 6 45 7 34 11 32 -66 24z"/>
<path d="M2504 934 c-18 -14 -18 -14 6 -3 31 14 36 19 24 19 -6 0 -19 -7 -30
-16z"/>
<path d="M2226 917 c3 -10 9 -15 12 -12 3 3 0 11 -7 18 -10 9 -11 8 -5 -6z"/>
<path d="M2370 916 c0 -2 8 -10 18 -17 15 -13 16 -12 3 4 -13 16 -21 21 -21
13z"/>
<path d="M2406 873 c-6 -14 -5 -15 5 -6 7 7 10 15 7 18 -3 3 -9 -2 -12 -12z"/>
<path d="M2771 851 c-9 -6 -10 -11 -2 -15 6 -4 11 -2 11 3 0 17 28 13 40 -6
10 -16 10 -16 8 2 -3 22 -35 31 -57 16z"/>
<path d="M2251 754 c0 -11 3 -14 6 -6 3 7 2 16 -1 19 -3 4 -6 -2 -5 -13z"/>
<path d="M9326 711 c-20 -32 -36 -61 -36 -64 0 -12 81 -30 89 -21 5 5 13 35
18 67 9 51 8 59 -8 67 -26 14 -24 15 -63 -49z"/>
<path d="M9513 762 c-9 -6 -9 -23 0 -75 12 -74 22 -80 77 -52 l29 15 -36 60
c-35 59 -46 67 -70 52z"/>
<path d="M2950 713 l-35 -35 37 28 c21 16 38 32 38 37 0 11 -2 9 -40 -30z"/>
<path d="M9443 732 c-6 -4 -14 -25 -18 -47 -4 -22 -9 -48 -12 -57 -4 -15 2
-18 35 -18 21 0 41 2 43 5 3 2 1 32 -5 65 -9 58 -18 68 -43 52z"/>
<path d="M2400 726 c0 -2 7 -7 16 -10 8 -3 12 -2 9 4 -6 10 -25 14 -25 6z"/>
<path d="M2211 653 c-10 -26 -10 -27 4 -9 8 11 15 23 15 28 0 15 -7 8 -19 -19z"/>
<path d="M2860 650 c-9 -6 -10 -10 -3 -10 6 0 15 5 18 10 8 12 4 12 -15 0z"/>
<path d="M2305 630 c-3 -5 -1 -10 4 -10 6 0 11 5 11 10 0 6 -2 10 -4 10 -3 0
-8 -4 -11 -10z"/>
<path d="M2810 624 c-17 -9 -20 -14 -9 -14 9 0 22 7 29 15 15 18 13 18 -20 -1z"/>
<path d="M2260 610 c-8 -5 -10 -10 -5 -10 6 0 17 5 25 10 8 5 11 10 5 10 -5 0
-17 -5 -25 -10z"/>
<path d="M2598 613 c7 -3 16 -2 19 1 4 3 -2 6 -13 5 -11 0 -14 -3 -6 -6z"/>
<path d="M2638 603 c7 -3 16 -2 19 1 4 3 -2 6 -13 5 -11 0 -14 -3 -6 -6z"/>
</g>
</svg>
