<?xml version="1.0" standalone="no"?>
<!DOCTYPE svg PUBLIC "-//W3C//DTD SVG 20010904//EN"
 "http://www.w3.org/TR/2001/REC-SVG-20010904/DTD/svg10.dtd">
<svg version="1.0" xmlns="http://www.w3.org/2000/svg"
 width="1500.000000pt" height="1500.000000pt" viewBox="0 0 1500.000000 1500.000000"
 preserveAspectRatio="xMidYMid meet">

<g transform="translate(0.000000,1500.000000) scale(0.100000,-0.100000)"
fill="#000000" stroke="none">
<path d="M0 7500 l0 -7500 7500 0 7500 0 0 7500 0 7500 -7500 0 -7500 0 0
-7500z m11760 730 l0 -1210 -245 0 -245 0 0 1210 0 1210 245 0 245 0 0 -1210z
m-5496 1005 c34 -17 96 -85 96 -107 0 -4 -21 -8 -47 -8 -38 0 -53 6 -72 25
-35 37 -102 35 -142 -4 -25 -25 -29 -37 -29 -81 0 -44 4 -56 29 -81 22 -21 39
-29 66 -29 39 0 75 15 88 36 9 15 107 20 107 6 0 -5 -13 -27 -29 -49 -56 -77
-173 -103 -254 -55 -107 62 -131 210 -49 302 62 69 150 86 236 45z m621 6 c77
-35 125 -105 125 -181 0 -120 -127 -221 -240 -191 -93 25 -150 98 -150 191 0
141 141 238 265 181z m585 -120 c20 -68 39 -120 42 -115 2 5 20 62 38 127 l34
117 53 0 c29 0 53 -1 53 -2 0 -2 16 -84 35 -183 19 -99 35 -184 35 -188 0 -4
-21 -7 -47 -5 l-48 3 -21 120 -21 120 -21 -70 c-11 -38 -27 -92 -35 -120 -14
-50 -14 -50 -59 -53 l-44 -3 -34 121 c-18 66 -34 120 -36 120 -1 0 -9 -42 -18
-92 -29 -164 -21 -148 -75 -148 l-48 0 34 178 c18 97 36 183 38 190 3 9 21 12
56 10 l52 -3 37 -124z m750 114 c60 -31 80 -127 38 -180 -25 -32 -74 -55 -118
-55 l-30 0 0 -65 0 -65 -45 0 -45 0 0 190 0 190 85 0 c57 0 96 -5 115 -15z
m545 -18 c60 -60 53 -154 -15 -196 -18 -10 -28 -21 -23 -24 5 -3 31 -33 57
-66 l47 -61 -55 0 -56 0 -45 67 -45 68 0 -68 0 -67 -45 0 -45 0 0 190 0 190
96 0 c95 0 96 0 129 -33z m535 -7 l0 -40 -70 0 -70 0 0 -35 0 -35 71 0 70 0
-3 -37 -3 -38 -67 -3 -68 -3 0 -34 0 -35 70 0 70 0 0 -40 0 -40 -110 0 -110 0
0 190 0 190 110 0 110 0 0 -40z m843 26 c59 -24 117 -111 117 -176 0 -65 -58
-152 -117 -176 -18 -8 -68 -14 -113 -14 l-80 0 0 190 0 190 80 0 c45 0 95 -6
113 -14z m590 2 c3 -7 37 -91 76 -187 39 -96 71 -176 71 -178 0 -1 -20 -3 -45
-3 -42 0 -46 2 -59 35 l-15 35 -70 0 -71 0 -14 -35 c-14 -33 -18 -35 -62 -35
-33 0 -45 4 -41 13 2 6 37 92 77 190 l73 177 37 0 c21 0 40 -6 43 -12z m-5873
-248 l0 -220 -390 0 -390 0 0 -215 0 -215 375 0 375 0 0 -220 0 -220 -375 0
-375 0 0 -440 0 -440 -245 0 -245 0 0 1095 0 1095 635 0 635 0 0 -220z m-3173
-312 c-3 -8 -6 -5 -6 6 -1 11 2 17 5 13 3 -3 4 -12 1 -19z m786 -185 c-205 -2
-541 -2 -745 0 -205 1 -38 2 372 2 410 0 577 -1 373 -2z m3730 -42 c86 -25
172 -71 230 -125 l47 -43 0 79 0 78 245 0 245 0 0 -710 0 -710 -242 2 -243 3
-3 73 -3 74 -45 -42 c-58 -53 -170 -106 -271 -126 -98 -21 -283 -15 -358 11
-242 83 -417 268 -484 512 -105 385 106 794 474 918 114 38 285 41 408 6z
m4020 4 c271 -56 483 -239 551 -476 22 -75 37 -211 29 -265 l-6 -44 -549 0
-550 0 6 -47 c16 -116 106 -234 203 -267 148 -51 332 25 365 149 l12 45 248 0
248 0 -6 -27 c-14 -57 -45 -131 -80 -188 -107 -178 -258 -280 -484 -327 -122
-26 -343 -21 -461 10 -280 74 -484 271 -545 527 -25 105 -23 279 5 380 26 94
84 206 143 277 113 135 316 238 528 269 78 11 251 3 343 -16z m2893 0 c88 -23
177 -70 239 -127 l55 -50 0 81 0 81 245 0 245 0 0 -710 0 -710 -245 0 -245 0
0 80 0 79 -44 -42 c-56 -55 -149 -102 -256 -128 -71 -18 -104 -21 -205 -17
-199 9 -318 61 -461 203 -81 80 -98 103 -142 195 -59 122 -82 219 -82 347 0
301 189 585 460 693 125 50 298 60 436 25z m-5166 -520 l167 -500 167 503 168
502 244 0 c134 0 244 -3 244 -7 0 -5 -120 -324 -267 -710 l-268 -703 -287 0
-287 0 -19 53 c-18 46 -491 1288 -513 1345 l-9 22 247 -2 246 -3 167 -500z
m-6633 173 c-3 -8 -6 -5 -6 6 -1 11 2 17 5 13 3 -3 4 -12 1 -19z m1650 -650
c-3 -8 -6 -5 -6 6 -1 11 2 17 5 13 3 -3 4 -12 1 -19z m-50 -170 c-3 -8 -6 -5
-6 6 -1 11 2 17 5 13 3 -3 4 -12 1 -19z"/>
<path d="M6758 9153 c-59 -37 -69 -115 -22 -164 69 -72 184 -27 184 73 0 79
-96 134 -162 91z"/>
<path d="M8110 9125 c0 -59 6 -64 53 -46 55 21 36 101 -23 101 -30 0 -30 -1
-30 -55z"/>
<path d="M8630 9125 c0 -51 2 -55 23 -55 35 0 67 27 67 59 0 36 -17 51 -57 51
l-33 0 0 -55z"/>
<path d="M10040 9059 l0 -112 36 6 c46 8 71 30 86 78 19 66 -29 139 -93 139
l-29 0 0 -111z"/>
<path d="M10667 9081 c-9 -27 -17 -51 -17 -55 0 -3 18 -6 40 -6 22 0 40 3 40
6 0 13 -35 104 -40 104 -3 0 -13 -22 -23 -49z"/>
<path d="M6026 8055 c-76 -31 -138 -92 -179 -175 -28 -57 -32 -74 -31 -145 2
-112 30 -183 103 -256 164 -163 418 -119 527 91 27 50 29 64 29 160 0 101 -1
108 -34 168 -86 158 -256 223 -415 157z"/>
<path d="M9915 8146 c-60 -19 -96 -40 -132 -78 -35 -37 -72 -111 -73 -145 l0
-23 315 0 314 0 -13 45 c-44 144 -146 216 -305 214 -36 0 -84 -6 -106 -13z"/>
<path d="M12968 8063 c-151 -57 -238 -195 -225 -360 10 -130 81 -238 194 -294
40 -20 63 -24 138 -24 96 0 142 16 210 73 74 61 125 173 125 272 0 99 -51 211
-125 272 -86 72 -219 97 -317 61z"/>
</g>
</svg>
