<?xml version="1.0" encoding="UTF-8"?>
<svg xmlns="http://www.w3.org/2000/svg" xmlns:xlink="http://www.w3.org/1999/xlink" width="150pt" height="150pt" viewBox="0 0 150 150" version="1.1">
<g id="surface1">
<path style=" stroke:none;fill-rule:nonzero;fill:rgb(0%,0%,0%);fill-opacity:1;" d="M 0 75 L 0 150 L 150 150 L 150 0 L 0 0 Z M 117.601562 67.699219 L 117.601562 79.800781 L 112.699219 79.800781 L 112.699219 55.601562 L 117.601562 55.601562 Z M 62.640625 57.648438 C 62.980469 57.820312 63.601562 58.5 63.601562 58.71875 C 63.601562 58.761719 63.390625 58.800781 63.128906 58.800781 C 62.75 58.800781 62.601562 58.738281 62.410156 58.550781 C 62.058594 58.179688 61.390625 58.199219 60.988281 58.589844 C 60.738281 58.839844 60.699219 58.960938 60.699219 59.398438 C 60.699219 59.839844 60.738281 59.960938 60.988281 60.210938 C 61.210938 60.421875 61.378906 60.5 61.648438 60.5 C 62.039062 60.5 62.398438 60.351562 62.53125 60.140625 C 62.621094 59.988281 63.601562 59.941406 63.601562 60.078125 C 63.601562 60.128906 63.46875 60.351562 63.308594 60.570312 C 62.75 61.339844 61.578125 61.601562 60.769531 61.121094 C 59.699219 60.5 59.460938 59.019531 60.28125 58.101562 C 60.898438 57.410156 61.78125 57.238281 62.640625 57.648438 Z M 68.851562 57.589844 C 69.621094 57.941406 70.101562 58.640625 70.101562 59.398438 C 70.101562 60.601562 68.828125 61.609375 67.699219 61.308594 C 66.769531 61.058594 66.199219 60.328125 66.199219 59.398438 C 66.199219 57.988281 67.609375 57.019531 68.851562 57.589844 Z M 74.699219 58.789062 C 74.898438 59.46875 75.089844 59.988281 75.121094 59.941406 C 75.140625 59.890625 75.320312 59.320312 75.5 58.671875 L 75.839844 57.5 L 76.371094 57.5 C 76.660156 57.5 76.898438 57.511719 76.898438 57.519531 C 76.898438 57.539062 77.058594 58.359375 77.25 59.351562 C 77.441406 60.339844 77.601562 61.191406 77.601562 61.230469 C 77.601562 61.269531 77.390625 61.300781 77.128906 61.28125 L 76.648438 61.25 L 76.441406 60.050781 L 76.230469 58.851562 L 76.019531 59.550781 C 75.910156 59.929688 75.75 60.46875 75.671875 60.75 C 75.53125 61.25 75.53125 61.25 75.078125 61.28125 L 74.640625 61.308594 L 74.300781 60.101562 C 74.121094 59.441406 73.960938 58.898438 73.941406 58.898438 C 73.929688 58.898438 73.851562 59.320312 73.761719 59.820312 C 73.46875 61.460938 73.550781 61.300781 73.011719 61.300781 L 72.53125 61.300781 L 72.871094 59.519531 C 73.050781 58.550781 73.230469 57.691406 73.25 57.621094 C 73.28125 57.53125 73.460938 57.5 73.808594 57.519531 L 74.328125 57.550781 Z M 82.199219 57.648438 C 82.800781 57.960938 83 58.921875 82.578125 59.449219 C 82.328125 59.769531 81.839844 60 81.398438 60 L 81.101562 60 L 81.101562 61.300781 L 80.199219 61.300781 L 80.199219 57.5 L 81.050781 57.5 C 81.621094 57.5 82.011719 57.550781 82.199219 57.648438 Z M 87.648438 57.828125 C 88.25 58.429688 88.179688 59.371094 87.5 59.789062 C 87.320312 59.890625 87.21875 60 87.269531 60.03125 C 87.320312 60.058594 87.578125 60.359375 87.839844 60.691406 L 88.308594 61.300781 L 87.199219 61.300781 L 86.75 60.628906 L 86.300781 59.949219 L 86.300781 61.300781 L 85.398438 61.300781 L 85.398438 57.5 L 86.359375 57.5 C 87.308594 57.5 87.320312 57.5 87.648438 57.828125 Z M 93 57.898438 L 93 58.300781 L 91.601562 58.300781 L 91.601562 59 L 93.011719 59 L 92.980469 59.371094 L 92.949219 59.75 L 92.28125 59.78125 L 91.601562 59.808594 L 91.601562 60.5 L 93 60.5 L 93 61.300781 L 90.800781 61.300781 L 90.800781 57.5 L 93 57.5 Z M 101.429688 57.640625 C 102.019531 57.878906 102.601562 58.75 102.601562 59.398438 C 102.601562 60.050781 102.019531 60.921875 101.429688 61.160156 C 101.25 61.238281 100.75 61.300781 100.300781 61.300781 L 99.5 61.300781 L 99.5 57.5 L 100.300781 57.5 C 100.75 57.5 101.25 57.558594 101.429688 57.640625 Z M 107.328125 57.621094 C 107.359375 57.691406 107.699219 58.53125 108.089844 59.488281 C 108.480469 60.449219 108.800781 61.25 108.800781 61.269531 C 108.800781 61.28125 108.601562 61.300781 108.351562 61.300781 C 107.929688 61.300781 107.890625 61.28125 107.761719 60.949219 L 107.609375 60.601562 L 106.199219 60.601562 L 106.058594 60.949219 C 105.921875 61.28125 105.878906 61.300781 105.441406 61.300781 C 105.109375 61.300781 104.988281 61.261719 105.03125 61.171875 C 105.050781 61.109375 105.398438 60.25 105.800781 59.269531 L 106.53125 57.5 L 106.898438 57.5 C 107.109375 57.5 107.300781 57.558594 107.328125 57.621094 Z M 48.601562 60.101562 L 48.601562 62.300781 L 40.800781 62.300781 L 40.800781 66.601562 L 48.300781 66.601562 L 48.300781 71 L 40.800781 71 L 40.800781 79.800781 L 35.898438 79.800781 L 35.898438 57.898438 L 48.601562 57.898438 Z M 16.871094 63.21875 C 16.839844 63.300781 16.808594 63.269531 16.808594 63.160156 C 16.800781 63.050781 16.828125 62.988281 16.859375 63.03125 C 16.890625 63.058594 16.898438 63.148438 16.871094 63.21875 Z M 24.730469 65.070312 C 22.679688 65.089844 19.320312 65.089844 17.28125 65.070312 C 15.230469 65.058594 16.898438 65.050781 21 65.050781 C 25.101562 65.050781 26.769531 65.058594 24.730469 65.070312 Z M 62.03125 65.488281 C 62.890625 65.738281 63.75 66.199219 64.328125 66.738281 L 64.800781 67.171875 L 64.800781 65.601562 L 69.699219 65.601562 L 69.699219 79.800781 L 67.28125 79.78125 L 64.851562 79.75 L 64.820312 79.019531 L 64.789062 78.28125 L 64.339844 78.699219 C 63.761719 79.230469 62.640625 79.761719 61.628906 79.960938 C 60.648438 80.171875 58.800781 80.109375 58.050781 79.851562 C 55.628906 79.019531 53.878906 77.171875 53.210938 74.730469 C 52.160156 70.878906 54.269531 66.789062 57.949219 65.550781 C 59.089844 65.171875 60.800781 65.140625 62.03125 65.488281 Z M 102.230469 65.449219 C 104.941406 66.011719 107.058594 67.839844 107.738281 70.210938 C 107.960938 70.960938 108.109375 72.320312 108.03125 72.859375 L 107.96875 73.300781 L 96.980469 73.300781 L 97.039062 73.769531 C 97.199219 74.929688 98.101562 76.109375 99.070312 76.441406 C 100.550781 76.949219 102.390625 76.191406 102.71875 74.949219 L 102.839844 74.5 L 107.800781 74.5 L 107.738281 74.769531 C 107.601562 75.339844 107.289062 76.078125 106.941406 76.648438 C 105.871094 78.429688 104.359375 79.449219 102.101562 79.921875 C 100.878906 80.179688 98.671875 80.128906 97.488281 79.820312 C 94.691406 79.078125 92.648438 77.109375 92.039062 74.550781 C 91.789062 73.5 91.808594 71.761719 92.089844 70.75 C 92.351562 69.808594 92.929688 68.691406 93.519531 67.980469 C 94.648438 66.628906 96.679688 65.601562 98.800781 65.289062 C 99.578125 65.179688 101.308594 65.261719 102.230469 65.449219 Z M 131.160156 65.449219 C 132.039062 65.679688 132.929688 66.148438 133.550781 66.71875 L 134.101562 67.21875 L 134.101562 65.601562 L 139 65.601562 L 139 79.800781 L 134.101562 79.800781 L 134.101562 78.210938 L 133.660156 78.628906 C 133.101562 79.179688 132.171875 79.648438 131.101562 79.910156 C 130.390625 80.089844 130.058594 80.121094 129.050781 80.078125 C 127.058594 79.988281 125.871094 79.46875 124.441406 78.050781 C 123.628906 77.25 123.460938 77.019531 123.019531 76.101562 C 122.429688 74.878906 122.199219 73.910156 122.199219 72.628906 C 122.199219 69.621094 124.089844 66.78125 126.800781 65.699219 C 128.050781 65.199219 129.78125 65.101562 131.160156 65.449219 Z M 79.5 70.648438 L 81.171875 75.648438 L 82.839844 70.621094 L 84.519531 65.601562 L 86.960938 65.601562 C 88.300781 65.601562 89.398438 65.628906 89.398438 65.671875 C 89.398438 65.71875 88.199219 68.910156 86.730469 72.769531 L 84.050781 79.800781 L 78.308594 79.800781 L 78.121094 79.269531 C 77.941406 78.808594 73.210938 66.390625 72.988281 65.820312 L 72.898438 65.601562 L 75.371094 65.621094 L 77.828125 65.648438 Z M 13.171875 68.921875 C 13.140625 69 13.109375 68.96875 13.109375 68.859375 C 13.101562 68.75 13.128906 68.691406 13.160156 68.730469 C 13.191406 68.761719 13.199219 68.851562 13.171875 68.921875 Z M 29.671875 75.421875 C 29.640625 75.5 29.609375 75.46875 29.609375 75.359375 C 29.601562 75.25 29.628906 75.191406 29.660156 75.230469 C 29.691406 75.261719 29.699219 75.351562 29.671875 75.421875 Z M 29.171875 77.121094 C 29.140625 77.199219 29.109375 77.171875 29.109375 77.058594 C 29.101562 76.949219 29.128906 76.890625 29.160156 76.929688 C 29.191406 76.960938 29.199219 77.050781 29.171875 77.121094 Z M 29.171875 77.121094 "/>
<path style=" stroke:none;fill-rule:nonzero;fill:rgb(0%,0%,0%);fill-opacity:1;" d="M 67.578125 58.46875 C 66.988281 58.839844 66.890625 59.621094 67.359375 60.109375 C 68.050781 60.828125 69.199219 60.378906 69.199219 59.378906 C 69.199219 58.589844 68.238281 58.039062 67.578125 58.46875 Z M 67.578125 58.46875 "/>
<path style=" stroke:none;fill-rule:nonzero;fill:rgb(0%,0%,0%);fill-opacity:1;" d="M 81.101562 58.75 C 81.101562 59.339844 81.160156 59.390625 81.628906 59.210938 C 82.179688 59 81.988281 58.199219 81.398438 58.199219 C 81.101562 58.199219 81.101562 58.210938 81.101562 58.75 Z M 81.101562 58.75 "/>
<path style=" stroke:none;fill-rule:nonzero;fill:rgb(0%,0%,0%);fill-opacity:1;" d="M 86.300781 58.75 C 86.300781 59.261719 86.320312 59.300781 86.53125 59.300781 C 86.878906 59.300781 87.199219 59.03125 87.199219 58.710938 C 87.199219 58.351562 87.03125 58.199219 86.628906 58.199219 L 86.300781 58.199219 Z M 86.300781 58.75 "/>
<path style=" stroke:none;fill-rule:nonzero;fill:rgb(0%,0%,0%);fill-opacity:1;" d="M 100.398438 59.410156 L 100.398438 60.53125 L 100.761719 60.46875 C 101.21875 60.390625 101.46875 60.171875 101.621094 59.691406 C 101.808594 59.03125 101.328125 58.300781 100.691406 58.300781 L 100.398438 58.300781 Z M 100.398438 59.410156 "/>
<path style=" stroke:none;fill-rule:nonzero;fill:rgb(0%,0%,0%);fill-opacity:1;" d="M 106.671875 59.191406 C 106.578125 59.460938 106.5 59.699219 106.5 59.738281 C 106.5 59.769531 106.679688 59.800781 106.898438 59.800781 C 107.121094 59.800781 107.300781 59.769531 107.300781 59.738281 C 107.300781 59.609375 106.949219 58.699219 106.898438 58.699219 C 106.871094 58.699219 106.769531 58.921875 106.671875 59.191406 Z M 106.671875 59.191406 "/>
<path style=" stroke:none;fill-rule:nonzero;fill:rgb(0%,0%,0%);fill-opacity:1;" d="M 60.261719 69.449219 C 59.5 69.761719 58.878906 70.371094 58.46875 71.199219 C 58.191406 71.769531 58.148438 71.941406 58.160156 72.648438 C 58.179688 73.769531 58.460938 74.480469 59.191406 75.210938 C 60.828125 76.839844 63.371094 76.398438 64.460938 74.300781 C 64.730469 73.800781 64.75 73.660156 64.75 72.699219 C 64.75 71.691406 64.738281 71.621094 64.410156 71.019531 C 63.550781 69.441406 61.851562 68.789062 60.261719 69.449219 Z M 60.261719 69.449219 "/>
<path style=" stroke:none;fill-rule:nonzero;fill:rgb(0%,0%,0%);fill-opacity:1;" d="M 99.148438 68.539062 C 98.550781 68.730469 98.191406 68.941406 97.828125 69.320312 C 97.480469 69.691406 97.109375 70.429688 97.101562 70.769531 L 97.101562 71 L 103.390625 71 L 103.261719 70.550781 C 102.820312 69.109375 101.800781 68.390625 100.210938 68.410156 C 99.851562 68.410156 99.371094 68.46875 99.148438 68.539062 Z M 99.148438 68.539062 "/>
<path style=" stroke:none;fill-rule:nonzero;fill:rgb(0%,0%,0%);fill-opacity:1;" d="M 129.679688 69.371094 C 128.171875 69.941406 127.300781 71.320312 127.429688 72.96875 C 127.53125 74.269531 128.238281 75.351562 129.371094 75.910156 C 129.769531 76.109375 130 76.148438 130.75 76.148438 C 131.710938 76.148438 132.171875 75.988281 132.851562 75.421875 C 133.589844 74.808594 134.101562 73.691406 134.101562 72.699219 C 134.101562 71.710938 133.589844 70.589844 132.851562 69.980469 C 131.988281 69.261719 130.660156 69.011719 129.679688 69.371094 Z M 129.679688 69.371094 "/>
</g>
</svg>
