<?xml version="1.0" standalone="no"?>
<!DOCTYPE svg PUBLIC "-//W3C//DTD SVG 20010904//EN"
 "http://www.w3.org/TR/2001/REC-SVG-20010904/DTD/svg10.dtd">
<svg version="1.0" xmlns="http://www.w3.org/2000/svg"
 width="359.000000pt" height="140.000000pt" viewBox="0 0 359.000000 140.000000"
 preserveAspectRatio="xMidYMid meet">

<g transform="translate(0.000000,140.000000) scale(0.100000,-0.100000)"
fill="#000000" stroke="none">
<path d="M215 1371 c-44 -11 -86 -35 -117 -68 -30 -32 -68 -108 -67 -138 0
-11 8 3 18 32 35 103 111 164 207 167 23 0 40 4 37 9 -5 8 -37 8 -78 -2z"/>
<path d="M3291 1366 c-56 -19 -89 -50 -102 -99 -26 -96 8 -143 138 -193 53
-21 105 -46 115 -56 10 -10 18 -14 18 -10 0 19 -39 42 -122 72 -99 36 -134 65
-143 120 -19 115 96 194 227 156 56 -16 91 -44 103 -83 6 -21 3 -23 -32 -23
-27 0 -42 6 -50 19 -13 21 -73 46 -73 30 0 -5 8 -9 18 -9 21 -1 52 -23 52 -39
0 -7 19 -11 50 -11 58 0 63 12 30 65 -37 60 -144 88 -229 61z"/>
<path d="M318 1363 c6 -2 18 -2 25 0 6 3 1 5 -13 5 -14 0 -19 -2 -12 -5z"/>
<path d="M580 1110 l0 -260 118 0 c102 0 124 3 162 23 53 26 81 73 79 132 -1
39 -2 39 -9 -10 -16 -108 -62 -135 -228 -135 l-112 0 0 251 0 251 99 -4 c55
-1 94 0 88 4 -7 4 -54 8 -104 8 l-93 0 0 -260z"/>
<path d="M960 1325 l0 -45 65 0 66 0 -3 -164 c-2 -90 0 -162 3 -160 11 7 19
295 8 315 -8 15 -21 19 -69 19 l-60 0 0 35 0 35 105 0 105 0 0 -197 c0 -168
-3 -203 -18 -233 -22 -45 -72 -70 -139 -70 -52 0 -53 0 -53 30 0 29 2 30 43
30 23 0 49 5 57 11 12 9 12 10 -3 5 -10 -3 -39 -6 -63 -6 l-44 0 0 -41 0 -41
70 4 c79 4 114 24 142 79 15 29 18 63 18 237 l0 202 -115 0 -115 0 0 -45z"/>
<path d="M1270 1110 l0 -260 164 0 164 0 -1 43 -2 42 -115 5 -115 5 2 55 c0
30 1 58 2 63 1 4 51 7 111 7 l110 0 0 40 0 40 -110 0 c-124 0 -125 1 -118 86
l3 39 117 3 116 3 -2 42 -2 42 -162 3 -162 2 0 -260z m316 215 l0 -35 -106 0
c-69 0 -110 -4 -118 -12 -15 -15 -16 -92 -2 -119 10 -17 22 -19 115 -19 l105
0 0 -30 0 -30 -104 0 c-68 0 -107 -4 -112 -11 -11 -18 -12 -113 -1 -126 6 -9
43 -13 117 -13 l108 0 -1 -35 -1 -35 -153 0 -153 0 0 250 0 250 153 0 153 0 0
-35z"/>
<path d="M1620 1326 l0 -44 69 -4 c38 -2 67 0 64 5 -2 4 -31 7 -64 7 l-59 0 0
35 0 35 175 0 175 0 0 -35 0 -35 -58 0 c-32 0 -63 -5 -70 -12 -9 -9 -12 -70
-12 -215 l0 -203 -39 0 c-29 0 -41 5 -45 18 -4 13 -4 13 -3 -3 2 -16 11 -21
49 -23 l48 -3 2 213 3 213 68 3 67 3 0 44 0 45 -185 0 -185 0 0 -44z"/>
<path d="M2044 1357 c-2 -7 -3 -114 -1 -237 l2 -225 3 232 c1 174 5 233 15
236 9 4 9 6 -1 6 -7 1 -15 -5 -18 -12z"/>
<path d="M2128 1115 l3 -255 -40 0 c-29 0 -41 5 -44 18 -4 13 -5 11 -6 -5 -1
-21 3 -23 49 -23 l50 0 0 260 c0 143 -3 260 -7 260 -5 0 -7 -115 -5 -255z"/>
<path d="M2180 1362 c0 -5 22 -7 48 -4 l48 4 19 -62 c11 -35 20 -59 22 -54 2
6 -5 34 -15 64 l-19 55 -51 3 c-29 2 -52 -1 -52 -6z"/>
<path d="M2509 1342 c-5 -13 -11 -35 -14 -50 -3 -15 2 -7 11 18 16 44 17 45
59 45 l42 0 -18 -54 c-11 -30 -19 -59 -18 -65 0 -6 8 12 18 39 36 100 37 92
-20 91 -44 -1 -53 -4 -60 -24z"/>
<path d="M2808 1363 c-22 -6 -22 -7 -1 -65 12 -33 23 -48 35 -48 15 0 18 9 18
60 0 63 -3 66 -52 53z"/>
<path d="M2884 1356 c-3 -7 -4 -33 -2 -57 2 -36 7 -44 23 -44 14 0 24 13 37
48 l18 48 -26 9 c-34 13 -44 13 -50 -4z"/>
<path d="M402 1331 c54 -34 75 -63 100 -135 9 -28 17 -42 17 -31 1 54 -65 152
-121 181 -47 24 -44 15 4 -15z"/>
<path d="M824 1350 c15 -5 37 -17 47 -26 11 -9 22 -14 25 -11 9 9 -58 47 -81
46 -14 0 -12 -3 9 -9z"/>
<path d="M2191 1335 c1 -19 18 -51 18 -35 0 8 -4 22 -9 30 -5 8 -9 11 -9 5z"/>
<path d="M2722 1324 l-22 -15 37 -44 c30 -36 40 -42 54 -34 17 9 17 12 4 42
-7 17 -16 40 -19 50 -7 21 -25 22 -54 1z"/>
<path d="M3315 1294 c-36 -19 -45 -31 -45 -65 0 -24 26 -59 45 -59 5 0 -1 9
-13 20 -12 12 -22 31 -22 44 0 26 28 56 53 56 9 0 17 5 17 10 0 13 1 13 -35
-6z"/>
<path d="M258 1293 c12 -2 30 -2 40 0 9 3 -1 5 -23 4 -22 0 -30 -2 -17 -4z"/>
<path d="M678 1289 c-14 -8 -18 -23 -18 -67 0 -32 5 -63 12 -70 7 -7 33 -12
59 -12 88 0 142 78 87 126 l-22 19 17 -25 c41 -60 -2 -113 -87 -108 l-51 3 -3
62 c-3 60 -2 63 23 69 14 3 42 4 63 0 26 -4 31 -3 17 4 -27 12 -76 12 -97 -1z"/>
<path d="M907 1279 c4 -13 8 -18 11 -10 2 7 -1 18 -6 23 -8 8 -9 4 -5 -13z"/>
<path d="M175 1259 c-19 -17 -35 -36 -35 -42 0 -6 7 -1 16 12 9 12 30 31 48
42 17 10 26 19 19 19 -7 0 -28 -14 -48 -31z"/>
<path d="M347 1270 c39 -23 58 -52 73 -107 6 -24 13 -43 15 -43 8 0 -7 64 -21
91 -15 30 -69 79 -87 79 -7 0 2 -9 20 -20z"/>
<path d="M2451 1143 c-44 -154 -45 -159 -38 -153 8 8 78 251 75 262 -2 5 -18
-44 -37 -109z"/>
<path d="M910 1214 c0 -27 -8 -42 -32 -65 -31 -29 -32 -31 -14 -42 11 -7 31
-23 44 -37 23 -23 24 -23 13 -3 -6 13 -21 28 -34 34 -12 6 -23 13 -25 14 -2 1
11 16 28 33 22 23 30 40 30 66 0 20 -2 36 -5 36 -3 0 -5 -16 -5 -36z"/>
<path d="M2222 1238 c2 -7 29 -88 58 -180 30 -92 56 -166 58 -164 5 6 -108
356 -115 356 -3 0 -3 -6 -1 -12z"/>
<path d="M2320 1214 c0 -10 5 -26 10 -34 8 -11 9 -7 4 15 -8 37 -14 45 -14 19z"/>
<path d="M2551 1189 c-6 -18 -11 -37 -10 -43 0 -6 7 7 15 28 8 22 12 41 10 43
-2 2 -9 -10 -15 -28z"/>
<path d="M126 1188 c-3 -7 -7 -29 -10 -48 -7 -44 9 -19 17 28 6 31 0 45 -7 20z"/>
<path d="M3063 1177 c-70 -34 -55 -62 27 -51 51 7 60 18 44 58 -8 21 -20 19
-71 -7z"/>
<path d="M3340 1160 c8 -5 22 -9 30 -9 10 0 8 3 -5 9 -27 12 -43 12 -25 0z"/>
<path d="M2346 1135 c7 -43 42 -153 43 -135 1 8 -10 49 -24 90 -13 41 -22 62
-19 45z"/>
<path d="M3415 1135 c17 -8 35 -14 40 -15 6 0 26 -13 45 -29 30 -25 35 -36 41
-87 l6 -59 2 48 c2 66 -22 102 -86 132 -28 14 -58 25 -65 24 -7 0 1 -7 17 -14z"/>
<path d="M27 1133 c-9 -9 -9 -41 1 -46 4 -3 7 8 7 24 0 16 0 29 -1 29 0 0 -4
-3 -7 -7z"/>
<path d="M514 1082 c-1 -44 0 -50 6 -27 10 41 12 85 3 85 -5 0 -9 -26 -9 -58z"/>
<path d="M2522 1101 c-17 -48 -14 -63 4 -22 8 19 13 39 11 45 -2 6 -9 -5 -15
-23z"/>
<path d="M2600 1078 c0 -19 2 -37 5 -40 7 -6 115 23 115 31 -1 19 -22 31 -68
37 l-52 7 0 -35z"/>
<path d="M3063 1103 c-24 -3 -33 -9 -33 -23 0 -13 12 -21 50 -30 58 -14 70 -9
70 31 0 31 -4 32 -87 22z"/>
<path d="M120 1062 c9 -50 23 -74 65 -111 31 -27 43 -31 92 -31 52 0 58 3 98
43 38 37 73 112 60 125 -5 5 -10 -8 -19 -51 -4 -15 -22 -45 -41 -65 -32 -35
-36 -37 -98 -37 -56 0 -69 4 -92 25 -34 31 -55 72 -55 104 0 14 -4 27 -9 30
-4 3 -5 -11 -1 -32z"/>
<path d="M677 1078 c-15 -11 -17 -25 -14 -73 l3 -60 2 62 c2 71 13 80 89 68
53 -8 83 -34 83 -73 0 -47 -32 -67 -105 -67 -35 0 -61 -4 -58 -9 3 -4 32 -6
64 -4 75 5 111 35 107 87 -2 22 -11 40 -28 53 -33 24 -119 34 -143 16z"/>
<path d="M31 1060 c-2 -36 23 -94 56 -131 35 -39 99 -79 124 -79 7 0 -12 12
-41 28 -65 33 -107 82 -125 148 -7 27 -14 42 -14 34z"/>
<path d="M2474 950 l-29 -90 -47 0 c-25 0 -49 5 -51 10 -3 6 -4 5 -3 -2 2 -9
21 -13 56 -13 l54 0 28 89 c16 49 27 90 25 93 -3 2 -17 -37 -33 -87z"/>
<path d="M485 979 c-10 -22 -37 -57 -59 -76 -23 -20 -32 -31 -21 -25 40 20
116 124 102 138 -2 2 -12 -14 -22 -37z"/>
<path d="M3175 973 c3 -16 12 -39 18 -53 45 -94 248 -106 322 -19 l20 24 -25
-21 c-45 -38 -74 -48 -145 -48 -107 0 -154 29 -179 112 -7 20 -4 22 32 22 32
0 41 -4 50 -26 15 -32 75 -58 118 -49 18 3 36 10 39 15 3 5 -7 5 -24 -1 -47
-16 -110 5 -124 42 -10 27 -15 29 -60 29 -49 0 -49 0 -42 -27z"/>
<path d="M3451 963 c-10 -26 -10 -27 4 -9 8 11 15 23 15 28 0 15 -7 8 -19 -19z"/>
<path d="M2931 951 c-10 -6 -11 -21 -6 -60 4 -28 11 -53 16 -56 4 -3 22 1 39
10 l30 15 -31 50 c-17 28 -31 50 -32 50 -1 0 -8 -4 -16 -9z"/>
<path d="M2766 900 l-27 -50 26 -10 c45 -17 52 -13 59 36 9 68 8 74 -12 74
-12 0 -29 -18 -46 -50z"/>
<path d="M2852 900 c0 -14 2 -19 5 -12 2 6 2 18 0 25 -3 6 -5 1 -5 -13z"/>
<path d="M2891 894 c0 -11 3 -14 6 -6 3 7 2 16 -1 19 -3 4 -6 -2 -5 -13z"/>
<path d="M237 848 c5 -10 70 -9 103 2 17 5 3 7 -41 6 -37 0 -65 -4 -62 -8z"/>
<path d="M2841 844 c0 -11 3 -14 6 -6 3 7 2 16 -1 19 -3 4 -6 -2 -5 -13z"/>
<path d="M2901 844 c0 -11 3 -14 6 -6 3 7 2 16 -1 19 -3 4 -6 -2 -5 -13z"/>
</g>
</svg>
