<?xml version="1.0" standalone="no"?>
<!DOCTYPE svg PUBLIC "-//W3C//DTD SVG 20010904//EN"
 "http://www.w3.org/TR/2001/REC-SVG-20010904/DTD/svg10.dtd">
<svg version="1.0" xmlns="http://www.w3.org/2000/svg"
 width="275.000000pt" height="183.000000pt" viewBox="0 0 275.000000 183.000000"
 preserveAspectRatio="xMidYMid meet">

<g transform="translate(0.000000,183.000000) scale(0.100000,-0.100000)"
fill="#000000" stroke="none">
<path d="M1343 1643 c9 -2 17 -11 17 -18 0 -7 -8 -16 -17 -18 -17 -4 -17 -5 0
-6 19 -1 24 -31 5 -31 -9 0 -9 -3 1 -9 8 -5 11 -16 8 -25 -8 -19 4 -28 23 -15
10 6 11 9 3 9 -7 0 -13 6 -13 14 0 8 6 17 13 19 10 4 10 6 0 6 -19 1 -15 29 5
34 16 4 16 5 0 6 -26 2 -22 29 5 34 12 2 2 4 -23 4 -25 1 -37 -1 -27 -4z"/>
<path d="M1549 1606 c29 -31 35 -33 22 -7 -6 10 -18 22 -28 25 -13 5 -11 1 6
-18z"/>
<path d="M1173 1608 c-23 -30 -24 -41 -2 -21 12 12 20 25 17 28 -3 3 -10 0
-15 -7z"/>
<path d="M1224 1588 c-16 -18 -22 -27 -13 -20 22 17 44 -5 26 -27 -10 -14 -10
-14 4 -4 9 7 20 9 24 5 5 -4 5 -1 1 5 -4 8 5 20 26 33 18 11 28 20 23 20 -6 0
-21 -7 -33 -16 -13 -9 -30 -13 -39 -10 -14 6 -14 9 2 26 10 11 16 20 13 20 -2
0 -17 -14 -34 -32z"/>
<path d="M1495 1600 c11 -17 -5 -32 -21 -20 -7 7 -19 10 -25 8 -8 -3 3 -21 26
-46 41 -46 57 -50 30 -8 -19 28 -12 51 13 41 13 -5 12 -2 -3 15 -19 21 -30 27
-20 10z"/>
<path d="M1124 1566 c-3 -14 -4 -32 -2 -41 2 -13 9 -9 33 17 l30 33 -29 -25
-29 -25 6 33 c7 37 0 44 -9 8z"/>
<path d="M1601 1564 c0 -11 3 -14 6 -6 3 7 2 16 -1 19 -3 4 -6 -2 -5 -13z"/>
<path d="M1580 1545 c13 -14 26 -25 28 -25 3 0 -5 11 -18 25 -13 14 -26 25
-28 25 -3 0 5 -11 18 -25z"/>
<path d="M1305 1550 c-3 -6 1 -7 9 -4 18 7 21 14 7 14 -6 0 -13 -4 -16 -10z"/>
<path d="M1185 1539 c-4 -6 -5 -12 -2 -15 2 -3 7 2 10 11 7 17 1 20 -8 4z"/>
<path d="M1435 1538 c2 -7 -5 -24 -16 -37 -17 -21 -24 -23 -38 -14 -14 9 -21
9 -30 0 -10 -9 -15 -8 -24 4 -11 14 -15 13 -37 -8 -13 -12 -19 -23 -12 -23 6
0 12 -12 12 -27 0 -20 3 -24 9 -14 6 9 11 10 15 2 4 -6 0 -18 -8 -27 -18 -17
-21 -28 -6 -19 14 9 43 -10 46 -29 3 -20 3 -20 -41 1 -24 12 -35 23 -35 39 0
29 -27 53 -36 30 -3 -9 -15 -16 -25 -16 -29 0 -23 -24 12 -44 24 -14 28 -20
18 -32 -10 -13 -15 -12 -33 3 -21 18 -21 18 -2 -4 15 -18 21 -20 36 -11 14 9
23 9 37 -3 16 -13 17 -13 4 3 -11 15 -11 19 2 24 9 3 24 1 36 -5 11 -6 31 -11
44 -11 14 0 27 -7 31 -15 4 -12 -3 -15 -32 -16 -29 0 -33 -2 -17 -8 11 -5 29
-5 40 -1 11 4 25 5 32 3 6 -2 31 15 55 38 23 23 36 37 27 31 -9 -7 -19 -9 -22
-5 -4 3 -7 -1 -7 -10 0 -9 -4 -17 -9 -17 -13 0 -5 37 11 59 12 15 11 15 -7 -1
-14 -11 -34 -15 -65 -13 -67 4 -99 22 -71 39 15 10 43 -5 37 -20 -7 -17 24 -6
42 15 11 14 11 14 6 0 -6 -18 22 -34 31 -19 4 6 0 10 -7 10 -8 0 -6 5 5 11 10
6 25 8 33 5 8 -3 14 -1 14 4 0 6 -4 10 -10 10 -5 0 -10 4 -10 9 0 6 24 12 53
14 l52 3 -52 2 c-39 2 -53 6 -53 17 0 8 -12 18 -26 21 -24 6 -24 8 -9 23 15
15 17 14 31 -3 8 -11 14 -16 14 -10 -1 10 -35 54 -44 54 -3 0 -3 -6 -1 -12z
m-47 -102 c-2 -11 -11 -22 -20 -24 -13 -2 -16 1 -12 12 4 11 0 13 -15 9 -27
-7 -27 4 2 27 26 22 50 9 45 -24z"/>
<path d="M1271 1518 c-13 -20 -12 -22 1 -11 8 7 18 10 22 6 4 -4 4 0 0 10 -8
21 -6 21 -23 -5z"/>
<path d="M1631 1507 l-1 -38 -25 28 c-32 36 -32 26 -1 -16 l25 -34 6 26 c4 14
5 36 2 48 -3 16 -5 11 -6 -14z"/>
<path d="M1093 1499 c4 -13 7 -30 7 -36 0 -7 4 -13 8 -13 12 0 2 59 -11 67 -6
4 -8 -2 -4 -18z"/>
<path d="M1130 1495 c-7 -9 -10 -18 -7 -21 3 -3 10 4 17 15 13 25 8 27 -10 6z"/>
<path d="M1161 1445 c0 -20 2 -26 8 -16 6 9 23 12 55 10 25 -2 46 -1 46 3 0 5
-22 8 -49 8 -30 0 -51 5 -54 13 -3 6 -6 -1 -6 -18z"/>
<path d="M1641 1430 l-14 -45 -10 35 c-5 19 -11 30 -14 24 -2 -7 2 -27 10 -45
l13 -33 18 38 c9 20 16 44 14 54 -2 9 -9 -3 -17 -28z"/>
<path d="M1085 1425 c4 -16 13 -37 22 -45 14 -13 14 -13 5 5 -5 11 -15 31 -21
45 -11 24 -11 24 -6 -5z"/>
<path d="M1126 1435 c-3 -9 -6 -24 -5 -33 0 -9 5 -4 10 12 9 32 6 48 -5 21z"/>
<path d="M1521 1404 c0 -11 3 -14 6 -6 3 7 2 16 -1 19 -3 4 -6 -2 -5 -13z"/>
<path d="M1140 1353 l-1 -38 -29 33 c-17 18 -30 27 -30 21 0 -16 71 -82 79
-73 3 4 1 8 -4 10 -6 2 -9 22 -7 44 2 22 1 40 -2 40 -3 0 -6 -17 -6 -37z"/>
<path d="M1592 1360 c0 -19 2 -27 5 -17 2 9 2 25 0 35 -3 9 -5 1 -5 -18z"/>
<path d="M1630 1354 c-14 -18 -31 -34 -37 -34 -7 0 -13 -5 -13 -11 0 -16 40
12 64 44 11 15 18 29 15 31 -2 2 -15 -11 -29 -30z"/>
<path d="M1171 1323 c-1 -6 3 -23 9 -37 12 -31 11 -31 -37 -5 l-38 21 29 -27
c18 -16 36 -25 47 -22 11 3 19 0 19 -6 0 -6 2 -8 5 -5 3 3 -3 25 -14 49 -11
24 -20 39 -20 32z"/>
<path d="M1509 1303 l-24 -28 28 24 c25 23 32 31 24 31 -2 0 -14 -12 -28 -27z"/>
<path d="M1551 1304 c-6 -15 -9 -29 -7 -32 3 -2 10 8 16 23 14 36 7 43 -9 9z"/>
<path d="M1582 1278 c-18 -11 -31 -22 -28 -25 7 -7 66 26 66 37 0 12 2 13 -38
-12z"/>
<path d="M1219 1263 c10 -21 49 -49 55 -41 2 2 -13 16 -32 33 -30 25 -33 26
-23 8z"/>
<path d="M1487 1245 c-15 -14 -24 -25 -19 -25 9 0 52 37 52 45 0 8 -4 6 -33
-20z"/>
<path d="M1328 1243 c7 -3 16 -2 19 1 4 3 -2 6 -13 5 -11 0 -14 -3 -6 -6z"/>
<path d="M1373 1243 c9 -2 25 -2 35 0 9 3 1 5 -18 5 -19 0 -27 -2 -17 -5z"/>
<path d="M1180 1220 c8 -5 29 -10 45 -10 23 0 27 3 15 10 -8 5 -28 10 -45 10
-23 0 -27 -3 -15 -10z"/>
<path d="M1495 1220 c-8 -13 35 -13 55 0 11 7 7 10 -17 10 -17 0 -35 -4 -38
-10z"/>
<path d="M1265 1200 c-44 -17 -47 -19 -20 -20 17 0 44 9 60 20 37 24 26 24
-40 0z"/>
<path d="M1435 1201 c17 -12 41 -21 55 -21 24 1 24 1 -6 14 -17 7 -41 17 -55
20 -21 7 -21 5 6 -13z"/>
<path d="M1316 1185 c-11 -8 -17 -17 -14 -20 2 -3 13 4 23 15 21 23 18 25 -9
5z"/>
<path d="M1414 1181 c20 -22 26 -25 26 -13 0 4 -10 13 -22 21 -23 14 -23 14
-4 -8z"/>
<path d="M305 1050 c-113 -47 -128 -244 -23 -308 47 -29 130 -30 175 -2 100
61 96 247 -7 301 -36 20 -109 24 -145 9z m117 -60 c59 -46 63 -144 8 -192 -56
-51 -128 -26 -151 53 -32 105 66 200 143 139z"/>
<path d="M570 890 l0 -170 70 0 c115 0 160 29 160 104 0 25 -7 40 -25 54 -24
19 -24 20 -5 37 24 22 26 72 5 102 -19 28 -72 43 -147 43 l-58 0 0 -170z m146
99 c35 -29 8 -69 -48 -69 l-38 0 0 46 0 47 36 -6 c20 -3 42 -11 50 -18z m2
-135 c45 -31 11 -84 -55 -84 -33 0 -33 0 -33 50 0 50 0 50 33 50 18 0 43 -7
55 -16z"/>
<path d="M820 1030 c0 -28 2 -30 40 -30 l40 0 0 -103 c0 -112 -6 -127 -52
-127 -23 0 -28 -4 -28 -25 0 -21 5 -25 29 -25 39 0 81 17 97 38 10 12 13 58
14 160 l0 142 -70 0 -70 0 0 -30z"/>
<path d="M1020 890 l0 -170 105 0 105 0 0 30 0 30 -75 0 -75 0 0 40 0 40 70 0
70 0 0 30 0 30 -70 0 -70 0 0 40 0 40 75 0 75 0 0 30 0 30 -105 0 -105 0 0
-170z"/>
<path d="M1240 1030 c0 -29 2 -30 45 -30 l45 0 0 -140 0 -140 30 0 30 0 0 140
0 140 48 0 c46 0 47 1 47 30 l0 30 -122 0 -123 0 0 -30z"/>
<path d="M1520 890 l0 -170 30 0 30 0 0 170 0 170 -30 0 -30 0 0 -170z"/>
<path d="M1610 1053 c0 -5 24 -80 53 -168 l53 -160 35 -3 34 -2 50 156 c65
203 63 186 24 182 l-34 -3 -34 -122 c-19 -67 -37 -120 -41 -118 -3 2 -21 58
-40 124 l-35 121 -32 0 c-18 0 -33 -3 -33 -7z"/>
<path d="M2019 1052 c-14 -6 -14 -11 -2 -39 18 -45 33 -41 33 7 0 41 -3 44
-31 32z"/>
<path d="M2070 1019 c0 -47 18 -49 33 -5 7 21 6 31 -4 37 -24 15 -29 10 -29
-32z"/>
<path d="M2314 1050 c-54 -22 -71 -100 -31 -143 12 -14 50 -35 84 -47 42 -15
64 -29 69 -43 15 -48 -82 -67 -112 -22 -11 17 -25 25 -45 25 -33 0 -32 2 -18
-39 14 -39 54 -61 114 -61 56 0 97 20 113 55 30 66 5 106 -88 139 -71 26 -91
46 -74 74 17 26 80 28 96 3 16 -26 68 -29 68 -5 0 8 -13 29 -29 45 -25 24 -37
29 -78 28 -26 0 -58 -4 -69 -9z"/>
<path d="M1962 1028 c-7 -9 -4 -21 13 -42 27 -34 43 -19 25 25 -14 32 -22 36
-38 17z"/>
<path d="M2160 975 c-29 -31 -20 -42 20 -25 33 14 37 22 17 39 -11 8 -19 5
-37 -14z"/>
<path d="M1895 939 c-4 -6 -5 -12 -2 -15 2 -3 7 2 10 11 7 17 1 20 -8 4z"/>
<path d="M2177 934 c-35 -19 -26 -34 19 -34 31 0 35 3 32 22 -4 28 -16 31 -51
12z"/>
<path d="M1944 922 c3 -6 -2 -13 -11 -15 -14 -4 -13 -5 5 -6 23 -1 30 13 10
25 -6 4 -8 3 -4 -4z"/>
<path d="M1880 864 c0 -21 4 -24 20 -20 70 20 66 17 45 32 -10 8 -29 14 -42
14 -18 0 -23 -6 -23 -26z"/>
<path d="M2183 883 c-13 -2 -23 -9 -23 -14 0 -5 1 -9 3 -9 1 0 17 -4 35 -9 30
-9 32 -8 32 15 0 24 -4 25 -47 17z"/>
<path d="M1992 758 c-15 -24 -18 -35 -9 -40 23 -15 35 -8 42 23 10 46 -8 56
-33 17z"/>
<path d="M2095 780 c-8 -12 4 -70 13 -70 4 0 13 4 20 9 12 7 11 14 -2 40 -18
34 -22 36 -31 21z"/>
<path d="M2050 770 c0 -5 5 -10 10 -10 6 0 10 5 10 10 0 6 -4 10 -10 10 -5 0
-10 -4 -10 -10z"/>
<path d="M2042 730 c0 -14 2 -19 5 -12 2 6 2 18 0 25 -3 6 -5 1 -5 -13z"/>
<path d="M2071 724 c0 -11 3 -14 6 -6 3 7 2 16 -1 19 -3 4 -6 -2 -5 -13z"/>
</g>
</svg>
