<?xml version="1.0" encoding="iso-8859-1"?>
<!-- Generator: Adobe Illustrator 19.0.0, SVG Export Plug-In . SVG Version: 6.00 Build 0)  -->
<svg version="1.1" id="Capa_1" xmlns="http://www.w3.org/2000/svg" xmlns:xlink="http://www.w3.org/1999/xlink" x="0px" y="0px"
	 viewBox="0 0 511.999 511.999" style="enable-background:new 0 0 511.999 511.999;" xml:space="preserve">
<g>
	<g>
		<path d="M135.532,216.9H69.768c-4.142,0-7.5,3.358-7.5,7.5v66.409c0,4.142,3.358,7.5,7.5,7.5h65.764c4.142,0,7.5-3.358,7.5-7.5
			V224.4C143.033,220.258,139.675,216.9,135.532,216.9z M128.032,283.309H77.269v-51.408h50.764V283.309z"/>
	</g>
</g>
<g>
	<g>
		<path d="M256.917,216.9h-65.765c-4.142,0-7.5,3.358-7.5,7.5v66.409c0,4.142,3.358,7.5,7.5,7.5h65.765c4.142,0,7.5-3.358,7.5-7.5
			V224.4C264.417,220.258,261.059,216.9,256.917,216.9z M249.416,283.309h-50.765v-51.408h50.765V283.309z"/>
	</g>
</g>
<g>
	<g>
		<path d="M511.33,303.24l-29.584-64.315c-1.224-2.661-3.885-4.366-6.813-4.366h-20.059v-33.39c0-4.142-3.358-7.5-7.5-7.5
			s-7.5,3.358-7.5,7.5v33.39h-76.582V181.09l24.326-29.969c1.823-2.246,2.192-5.34,0.948-7.952
			c-1.244-2.611-3.879-4.275-6.771-4.275H271.749V81.866h168.124v89.302c0,4.142,3.358,7.5,7.5,7.5s7.5-3.358,7.5-7.5V81.866h6.635
			c4.142,0,7.5-3.358,7.5-7.5V41.015c0-4.142-3.358-7.5-7.5-7.5H250.113c-4.142,0-7.5,3.358-7.5,7.5v33.351
			c0,4.142,3.358,7.5,7.5,7.5h6.635v57.028h-58.098V20.398c0-4.142-3.358-7.5-7.5-7.5H48.989c-4.142,0-7.5,3.358-7.5,7.5v118.496
			H7.5c-2.893,0-5.527,1.664-6.771,4.275c-1.244,2.612-0.875,5.706,0.948,7.952l24.326,29.969v310.51c0,4.142,3.358,7.5,7.5,7.5
			H482.65c4.142,0,7.5-3.358,7.5-7.5V313.874c0,0,14.353,0,14.366,0C509.88,313.874,513.577,308.123,511.33,303.24z M257.614,48.515
			h196.395v18.351H257.614V48.515z M56.489,27.899h127.162v110.996h-27.718v-75.86c0-4.142-3.358-7.5-7.5-7.5H91.707
			c-4.142,0-7.5,3.358-7.5,7.5v75.859H56.489V27.899z M140.933,70.534v68.36H99.207v-68.36H140.933z M23.249,153.895h342.797
			l-13.826,17.035H37.075L23.249,153.895z M175.421,484.101h-67.117V484.1V362.423h67.117V484.101z M309.217,484.101H190.421
			V354.922c0-4.143-3.358-7.5-7.5-7.5h-82.118c-4.142,0-7.5,3.357-7.5,7.5v129.178h-52.3V185.929h307.288v48.63h-23.857
			c-0.366,0-0.728,0.026-1.083,0.079c-2.488,0.362-4.659,1.959-5.731,4.287c0,0-29.537,64.212-29.584,64.315
			c-2.251,4.894,1.448,10.634,6.814,10.634h14.366V484.101z M426.914,484.1h-54.46v-96.736h54.46V484.1z M475.151,484.1
			L475.151,484.1h-33.236V379.863c0-4.142-3.358-7.5-7.5-7.5h-69.46c-4.142,0-7.5,3.358-7.5,7.5V484.1h-33.235V313.874h150.932
			V484.1z M306.557,298.874l22.684-49.314h140.885l22.685,49.314H306.557z"/>
	</g>
</g>
<g>
</g>
<g>
</g>
<g>
</g>
<g>
</g>
<g>
</g>
<g>
</g>
<g>
</g>
<g>
</g>
<g>
</g>
<g>
</g>
<g>
</g>
<g>
</g>
<g>
</g>
<g>
</g>
<g>
</g>
</svg>
