<?xml version="1.0" encoding="UTF-8"?>
<svg xmlns="http://www.w3.org/2000/svg" xmlns:xlink="http://www.w3.org/1999/xlink" width="215pt" height="69pt" viewBox="0 0 215 69" version="1.1">
<g id="surface1">
<path style=" stroke:none;fill-rule:nonzero;fill:rgb(62.745098%,62.745098%,62.745098%);fill-opacity:1;" d="M 4.652344 37.761719 C 4.65625 22.90625 4.8125 13.601562 5.0625 13.351562 C 5.3125 13.101562 9.597656 12.933594 18.371094 12.828125 L 28.324219 12.714844 L 28.324219 21.730469 L 14.117188 21.730469 L 14.117188 29.234375 L 17.144531 29.347656 C 18.808594 29.410156 21.925781 29.511719 24.070312 29.578125 L 27.972656 29.691406 L 27.972656 37.707031 L 27.40625 37.792969 C 27.089844 37.839844 24.039062 37.960938 20.617188 38.0625 C 17.199219 38.164062 14.351562 38.304688 14.285156 38.378906 C 14.222656 38.453125 14.082031 42.023438 13.972656 46.316406 C 13.859375 50.605469 13.730469 54.160156 13.683594 54.207031 C 13.632812 54.253906 12.273438 54.359375 10.65625 54.433594 C 9.039062 54.507812 7.027344 54.613281 6.183594 54.667969 L 4.648438 54.761719 Z M 4.652344 37.761719 "/>
<path style=" stroke:none;fill-rule:nonzero;fill:rgb(62.745098%,62.745098%,62.745098%);fill-opacity:1;" d="M 47.089844 54.503906 C 42.054688 53.488281 38.589844 50.050781 37.171875 44.664062 C 36.714844 42.925781 36.707031 38.996094 37.160156 37.28125 C 38.070312 33.847656 39.945312 31.167969 42.707031 29.367188 C 45.03125 27.851562 47.382812 27.144531 50.160156 27.125 C 52.714844 27.105469 53.773438 27.421875 57.042969 29.191406 C 57.796875 29.597656 58.007812 29.648438 58.226562 29.464844 C 58.371094 29.34375 58.492188 29.097656 58.492188 28.917969 C 58.492188 28.738281 58.707031 28.453125 58.964844 28.28125 C 59.378906 28.007812 59.980469 27.960938 63.703125 27.910156 L 67.960938 27.855469 L 67.960938 54.589844 L 64.398438 54.589844 C 60.136719 54.589844 59.257812 54.414062 58.6875 53.445312 C 58.226562 52.65625 57.945312 52.664062 56.042969 53.523438 C 55.203125 53.902344 53.914062 54.335938 53.179688 54.488281 C 51.585938 54.820312 48.691406 54.824219 47.089844 54.503906 Z M 55.277344 46.675781 C 56.53125 46.0625 57.308594 45.246094 57.941406 43.878906 C 58.332031 43.035156 58.390625 42.667969 58.390625 41.148438 C 58.386719 38.875 57.953125 37.6875 56.660156 36.390625 C 55.21875 34.949219 52.421875 34.15625 50.945312 34.777344 C 49.257812 35.484375 46.679688 38.335938 46.472656 39.726562 C 46.316406 40.765625 46.628906 42.625 47.148438 43.765625 C 48.597656 46.933594 52.140625 48.203125 55.277344 46.675781 Z M 55.277344 46.675781 "/>
<path style=" stroke:none;fill-rule:nonzero;fill:rgb(0%,0%,0%);fill-opacity:1;" d="M 4.734375 37.703125 C 4.835938 20.074219 4.945312 13.839844 5.164062 13.488281 C 5.324219 13.226562 10.96875 13.003906 21.003906 12.863281 L 28.324219 12.761719 L 28.324219 21.730469 L 14.117188 21.730469 L 14.117188 29.25 L 15.652344 29.351562 C 16.496094 29.410156 18.84375 29.5 20.871094 29.550781 C 22.898438 29.601562 25.324219 29.691406 26.269531 29.75 L 27.980469 29.851562 L 27.886719 37.632812 L 26.394531 37.75 C 25.574219 37.8125 22.972656 37.921875 20.609375 37.984375 C 18.246094 38.050781 15.835938 38.15625 15.257812 38.21875 L 14.207031 38.335938 L 14.144531 39.652344 C 14.109375 40.378906 14.050781 42.390625 14.011719 44.121094 C 13.976562 45.851562 13.90625 47.308594 13.855469 47.355469 C 13.808594 47.40625 13.761719 48.597656 13.753906 50.007812 C 13.746094 51.417969 13.6875 52.925781 13.625 53.359375 L 13.503906 54.152344 L 11.925781 54.265625 C 11.058594 54.324219 9.0625 54.433594 7.492188 54.507812 L 4.640625 54.636719 Z M 4.734375 37.703125 "/>
<path style=" stroke:none;fill-rule:nonzero;fill:rgb(0%,0%,0%);fill-opacity:1;" d="M 47.574219 54.589844 C 47.550781 54.542969 46.976562 54.363281 46.300781 54.191406 C 41.695312 53.027344 38.265625 49.242188 37.183594 44.125 C 36.882812 42.699219 36.84375 39.699219 37.105469 38.078125 C 37.871094 33.359375 41.820312 29.03125 46.566406 27.714844 C 47.289062 27.515625 48.628906 27.304688 49.546875 27.246094 C 51.796875 27.105469 53.273438 27.441406 55.816406 28.667969 C 56.925781 29.203125 57.9375 29.636719 58.058594 29.636719 C 58.183594 29.636719 58.433594 29.34375 58.609375 28.988281 C 58.835938 28.523438 59.082031 28.300781 59.457031 28.214844 C 59.746094 28.148438 61.777344 28.046875 63.972656 27.992188 L 67.960938 27.890625 L 67.960938 54.644531 L 64.324219 54.523438 C 62.320312 54.453125 60.40625 54.324219 60.070312 54.234375 C 59.734375 54.140625 59.164062 53.789062 58.808594 53.449219 C 58.457031 53.109375 57.996094 52.832031 57.792969 52.832031 C 57.585938 52.832031 56.867188 53.066406 56.195312 53.355469 C 53.945312 54.3125 53.28125 54.453125 50.378906 54.566406 C 48.859375 54.628906 47.597656 54.636719 47.574219 54.589844 Z M 55.023438 46.882812 C 56.125 46.40625 57.367188 45.234375 57.925781 44.140625 C 58.324219 43.363281 58.382812 43.042969 58.382812 41.5 C 58.382812 40.53125 58.339844 39.460938 58.28125 39.117188 C 57.898438 36.734375 55.332031 34.730469 52.488281 34.589844 C 51.289062 34.53125 51.046875 34.574219 50.382812 34.960938 C 49.234375 35.636719 47.289062 37.703125 46.679688 38.898438 C 46.363281 39.515625 46.273438 41.671875 46.558594 41.847656 C 46.648438 41.902344 46.6875 42.050781 46.640625 42.171875 C 46.371094 42.871094 47.890625 45.460938 49.039062 46.257812 C 50.730469 47.433594 53.171875 47.6875 55.023438 46.882812 Z M 55.023438 46.882812 "/>
<path style=" stroke:none;fill-rule:nonzero;fill:rgb(0%,0%,0%);fill-opacity:1;" d="M 83.835938 53.847656 C 82.847656 51.382812 79.039062 41.429688 77.398438 37.019531 C 74.351562 28.820312 74.210938 28.40625 74.441406 28.171875 C 74.667969 27.945312 80.875 27.960938 82.417969 28.191406 L 83.28125 28.320312 L 86.246094 37.238281 C 87.878906 42.144531 89.265625 46.125 89.332031 46.085938 C 89.394531 46.046875 90.789062 41.9375 92.429688 36.953125 L 95.410156 27.894531 L 99.355469 27.898438 C 103.414062 27.902344 104.558594 28.054688 104.507812 28.589844 C 104.492188 28.730469 102.78125 33.355469 100.707031 38.863281 C 98.628906 44.371094 96.457031 50.144531 95.882812 51.691406 L 94.835938 54.503906 L 89.488281 54.546875 L 84.136719 54.59375 Z M 83.835938 53.847656 "/>
<path style=" stroke:none;fill-rule:nonzero;fill:rgb(0%,0%,0%);fill-opacity:1;" d="M 120.929688 54.421875 C 118.929688 53.988281 117.933594 53.636719 116.375 52.804688 C 113.199219 51.105469 110.972656 48.503906 109.855469 45.1875 C 109.496094 44.121094 109.441406 43.625 109.441406 41.410156 C 109.441406 38.519531 109.710938 37.34375 110.933594 34.910156 C 112.257812 32.269531 114.347656 30.324219 117.421875 28.871094 C 122.773438 26.339844 128.578125 26.472656 133.507812 29.238281 C 135.386719 30.292969 136.046875 30.851562 136.917969 32.136719 C 138.671875 34.726562 139.871094 38.082031 139.871094 40.394531 C 139.871094 41.664062 139.84375 41.761719 139.476562 41.835938 C 139.261719 41.882812 136.082031 41.96875 132.417969 42.027344 C 124.730469 42.152344 120.75 42.363281 120.082031 42.683594 C 119.402344 43.007812 119.378906 43.804688 120.015625 45.15625 C 120.882812 47.007812 121.917969 47.714844 124.179688 48 C 125.304688 48.140625 127.394531 47.714844 128.367188 47.140625 C 129.109375 46.707031 129.414062 46.28125 129.601562 45.414062 C 129.785156 44.558594 130.152344 44.488281 134.371094 44.488281 C 137.945312 44.488281 138.285156 44.511719 138.625 44.820312 C 139.136719 45.285156 139.09375 45.699219 138.371094 47.207031 C 136.707031 50.6875 134.464844 52.714844 131.003906 53.867188 C 130.140625 54.15625 128.820312 54.472656 128.0625 54.578125 C 125.96875 54.863281 122.65625 54.792969 120.929688 54.421875 Z M 130.050781 37.390625 C 131.359375 37.027344 129.792969 34.4375 127.683594 33.472656 C 126.425781 32.894531 124.414062 32.90625 122.859375 33.496094 C 121.285156 34.097656 119.878906 35.449219 119.878906 36.359375 C 119.878906 37.050781 120 37.183594 120.828125 37.378906 C 121.511719 37.542969 129.460938 37.550781 130.050781 37.390625 Z M 130.050781 37.390625 "/>
<path style=" stroke:none;fill-rule:nonzero;fill:rgb(0%,0%,0%);fill-opacity:1;" d="M 148.289062 31.945312 L 148.289062 9.078125 L 157.929688 9.078125 L 157.84375 13.691406 C 157.796875 16.230469 157.707031 26.355469 157.648438 36.195312 L 157.542969 54.089844 L 157.171875 54.226562 C 156.964844 54.304688 155.335938 54.421875 153.550781 54.484375 C 151.769531 54.550781 149.855469 54.648438 149.300781 54.707031 L 148.289062 54.8125 Z M 148.289062 31.945312 "/>
<path style=" stroke:none;fill-rule:nonzero;fill:rgb(0%,0%,0%);fill-opacity:1;" d="M 180.152344 46.96875 C 179.046875 46.65625 178.519531 46.246094 177.738281 45.085938 C 176.800781 43.691406 176.117188 41.859375 176.101562 40.703125 C 176.089844 39.890625 176.191406 39.558594 176.703125 38.695312 C 178.089844 36.359375 180.390625 34.734375 182.308594 34.734375 C 183.671875 34.734375 184.832031 35.347656 186.148438 36.753906 C 187.441406 38.136719 187.929688 39.320312 187.929688 41.058594 C 187.929688 42.644531 187.4375 43.949219 186.417969 45.085938 C 184.875 46.804688 182.308594 47.574219 180.152344 46.96875 Z M 180.152344 46.96875 "/>
<path style=" stroke:none;fill-rule:nonzero;fill:rgb(0%,0%,0%);fill-opacity:1;" d="M 176.878906 54.511719 C 173.964844 53.894531 171.328125 52.339844 169.511719 50.167969 C 165.808594 45.746094 165.332031 38.03125 168.464844 33.257812 C 169.945312 31.003906 173.152344 28.398438 175.191406 27.789062 C 176.921875 27.273438 179.175781 27.105469 181.261719 27.332031 C 183.925781 27.621094 185.160156 28.035156 186.53125 29.109375 C 187.972656 30.234375 188.445312 30.242188 188.710938 29.140625 C 188.8125 28.714844 189.046875 28.292969 189.246094 28.175781 C 189.476562 28.039062 190.9375 27.949219 193.585938 27.910156 L 197.574219 27.851562 L 197.574219 54.589844 L 193.847656 54.582031 C 189.328125 54.566406 189 54.488281 188.730469 53.359375 C 188.480469 52.3125 188.144531 52.28125 186.410156 53.152344 C 184.101562 54.316406 182.886719 54.621094 180.300781 54.691406 C 178.804688 54.734375 177.625 54.671875 176.878906 54.511719 Z M 184.484375 46.804688 C 185.769531 46.214844 186.710938 45.320312 187.417969 44.007812 C 187.988281 42.953125 188.015625 42.824219 188.015625 41.058594 C 188.015625 39.292969 187.992188 39.167969 187.417969 38.109375 C 186.664062 36.71875 185.085938 35.226562 183.964844 34.84375 C 182.730469 34.421875 181.355469 34.476562 180.25 34.992188 C 178.484375 35.816406 176.433594 38.167969 175.972656 39.886719 C 175.695312 40.925781 175.976562 42.203125 176.882812 44.011719 C 177.679688 45.605469 178.78125 46.792969 179.667969 47.023438 C 180.015625 47.109375 180.457031 47.226562 180.648438 47.273438 C 181.464844 47.488281 183.550781 47.234375 184.484375 46.804688 Z M 184.484375 46.804688 "/>
<path style=" stroke:none;fill-rule:nonzero;fill:rgb(0%,0%,0%);fill-opacity:1;" d="M 134.703125 19.515625 C 134.367188 19.179688 134.460938 18.507812 135.09375 16.722656 C 135.886719 14.488281 136.992188 12.59375 137.5 12.59375 C 138.160156 12.59375 139.832031 15.792969 140.464844 18.253906 C 140.847656 19.753906 140.617188 19.917969 139.171875 19.183594 C 138.039062 18.609375 137.285156 18.628906 136.019531 19.269531 C 135.070312 19.746094 134.957031 19.769531 134.703125 19.515625 Z M 134.703125 19.515625 "/>
<path style=" stroke:none;fill-rule:nonzero;fill:rgb(0%,0%,0%);fill-opacity:1;" d="M 124.371094 19.441406 C 123.800781 18.761719 123.644531 18.003906 123.65625 15.929688 C 123.671875 13.261719 124.171875 12.066406 125.273438 12.066406 C 126.304688 12.066406 128.539062 13.664062 129.066406 14.777344 C 129.886719 16.511719 128.820312 18.648438 126.640625 19.640625 C 125.5625 20.132812 124.902344 20.074219 124.371094 19.441406 Z M 127.097656 17.644531 C 127.214844 17.429688 127.308594 16.738281 127.308594 16.109375 C 127.308594 14.820312 127.046875 14.175781 126.527344 14.175781 C 125.785156 14.175781 125.40625 16.199219 125.917969 17.433594 C 126.21875 18.148438 126.769531 18.25 127.097656 17.644531 Z M 127.097656 17.644531 "/>
<path style=" stroke:none;fill-rule:nonzero;fill:rgb(0%,0%,0%);fill-opacity:1;" d="M 108.191406 19.625 C 107.621094 19.394531 107.402344 18.511719 107.304688 16.019531 C 107.203125 13.496094 107.320312 12.964844 108.0625 12.476562 C 108.707031 12.050781 110.347656 12.050781 110.988281 12.46875 C 111.917969 13.078125 111.375 14.042969 109.988281 14.25 C 109.070312 14.390625 109.0625 14.632812 109.976562 14.804688 C 110.578125 14.917969 111.460938 15.734375 111.460938 16.175781 C 111.460938 16.652344 110.953125 17.035156 110.046875 17.246094 C 109.296875 17.421875 109.167969 17.5 109.441406 17.605469 C 111.363281 18.332031 111.609375 18.605469 110.921875 19.246094 C 110.363281 19.765625 109.003906 19.953125 108.191406 19.625 Z M 108.191406 19.625 "/>
<path style=" stroke:none;fill-rule:nonzero;fill:rgb(0%,0%,0%);fill-opacity:1;" d="M 98.054688 19.578125 C 97.660156 18.972656 97.4375 17.746094 97.433594 16.160156 C 97.425781 13.496094 97.980469 12.066406 99.027344 12.066406 C 100.140625 12.066406 102.339844 13.660156 102.339844 14.464844 C 102.339844 14.699219 102.140625 15.359375 101.902344 15.933594 C 101.359375 17.21875 101.335938 18.046875 101.820312 18.488281 C 102.472656 19.082031 101.859375 20.167969 101.15625 19.664062 C 100.984375 19.542969 100.589844 19.3125 100.277344 19.148438 C 99.707031 18.855469 99.703125 18.855469 99.128906 19.414062 C 98.441406 20.082031 98.386719 20.089844 98.054688 19.578125 Z M 98.054688 19.578125 "/>
<path style=" stroke:none;fill-rule:nonzero;fill:rgb(0%,0%,0%);fill-opacity:1;" d="M 88.160156 19.347656 C 87.785156 18.527344 87.5625 15.5625 87.753906 13.980469 C 87.988281 12.019531 88.386719 11.738281 90.082031 12.339844 C 93.058594 13.386719 93.359375 15.703125 90.679688 16.890625 C 89.636719 17.351562 89.007812 18.050781 89.007812 18.753906 C 89.007812 19.820312 88.527344 20.15625 88.160156 19.347656 Z M 90.554688 15.015625 C 90.601562 14.433594 90.558594 14.351562 90.132812 14.242188 C 89.550781 14.097656 89.117188 14.34375 89.039062 14.863281 C 88.957031 15.433594 89.332031 15.785156 89.960938 15.722656 C 90.445312 15.675781 90.503906 15.601562 90.554688 15.015625 Z M 90.554688 15.015625 "/>
<path style=" stroke:none;fill-rule:nonzero;fill:rgb(0%,0%,0%);fill-opacity:1;" d="M 73.574219 19.269531 C 73.574219 18.40625 74.015625 15.410156 74.378906 13.8125 C 74.925781 11.40625 75.8125 11.511719 77.078125 14.132812 C 77.511719 15.027344 77.925781 15.757812 78 15.757812 C 78.078125 15.757812 78.457031 15.085938 78.847656 14.265625 C 79.566406 12.746094 79.992188 12.316406 80.585938 12.503906 C 81.308594 12.734375 82.332031 15.929688 82.394531 18.164062 C 82.453125 20.144531 81.9375 20.300781 80.945312 18.605469 C 79.714844 16.507812 79.910156 16.574219 79.328125 18.054688 C 79.042969 18.773438 78.703125 19.472656 78.566406 19.613281 C 78.054688 20.136719 76.992188 19.09375 76.457031 17.535156 C 76.335938 17.183594 76.175781 16.898438 76.101562 16.898438 C 76.027344 16.898438 75.789062 17.351562 75.578125 17.902344 C 75.039062 19.296875 74.523438 19.972656 74 19.972656 C 73.621094 19.972656 73.574219 19.898438 73.574219 19.269531 Z M 73.574219 19.269531 "/>
<path style=" stroke:none;fill-rule:nonzero;fill:rgb(0%,0%,0%);fill-opacity:1;" d="M 64.488281 19.789062 C 63.695312 19.472656 62.507812 18.53125 62.082031 17.890625 C 61.046875 16.324219 61.445312 14.554688 63.117188 13.308594 C 63.613281 12.9375 64.28125 12.5 64.601562 12.339844 C 65.179688 12.046875 65.195312 12.046875 66.152344 12.625 C 67.398438 13.378906 68.417969 14.492188 68.648438 15.347656 C 69.066406 16.925781 68.113281 18.542969 66.171875 19.546875 C 65.273438 20.011719 65.101562 20.035156 64.488281 19.789062 Z M 66.046875 17.351562 C 66.789062 16.609375 66.757812 15.746094 65.964844 14.949219 C 64.78125 13.765625 63.226562 14.34375 63.226562 15.964844 C 63.226562 16.699219 63.601562 17.601562 63.96875 17.75 C 64.089844 17.796875 64.492188 17.84375 64.863281 17.851562 C 65.382812 17.863281 65.652344 17.75 66.046875 17.351562 Z M 66.046875 17.351562 "/>
<path style=" stroke:none;fill-rule:nonzero;fill:rgb(0%,0%,0%);fill-opacity:1;" d="M 51.828125 19.34375 C 50.15625 18.390625 49.460938 17.304688 49.582031 15.84375 C 49.679688 14.703125 50.140625 14.03125 51.542969 12.996094 C 52.816406 12.058594 53.328125 12.050781 54.773438 12.941406 C 55.878906 13.621094 56.191406 14.09375 55.800781 14.488281 C 55.5625 14.722656 55.339844 14.730469 53.933594 14.527344 C 52.414062 14.308594 52.308594 14.316406 51.859375 14.648438 C 51.257812 15.097656 50.992188 16.070312 51.285156 16.773438 C 51.671875 17.707031 52.386719 17.890625 54.550781 17.609375 C 55.433594 17.496094 55.648438 17.519531 55.847656 17.761719 C 56.058594 18.015625 56.023438 18.125 55.582031 18.589844 C 54.914062 19.292969 53.914062 19.800781 53.195312 19.796875 C 52.875 19.796875 52.261719 19.589844 51.828125 19.34375 Z M 51.828125 19.34375 "/>
<path style=" stroke:none;fill-rule:nonzero;fill:rgb(100%,100%,100%);fill-opacity:1;" d="M 180.316406 46.878906 C 178.785156 46.453125 178.054688 45.699219 176.996094 43.457031 C 176.527344 42.453125 176.359375 41.84375 176.300781 40.910156 C 176.226562 39.71875 176.246094 39.644531 176.914062 38.625 C 177.75 37.351562 179.25 35.90625 180.289062 35.375 C 180.710938 35.160156 181.511719 34.941406 182.070312 34.890625 C 183.449219 34.765625 184.644531 35.351562 186.003906 36.824219 C 187.433594 38.371094 187.742188 39.132812 187.738281 41.085938 C 187.738281 42.375 187.664062 42.816406 187.335938 43.480469 C 186.667969 44.835938 185.820312 45.679688 184.445312 46.34375 C 182.921875 47.082031 181.648438 47.246094 180.316406 46.878906 Z M 180.316406 46.878906 "/>
</g>
</svg>
