<?xml version="1.0" encoding="UTF-8"?>
<svg xmlns="http://www.w3.org/2000/svg" xmlns:xlink="http://www.w3.org/1999/xlink" width="159pt" height="51pt" viewBox="0 0 159 51" version="1.1">
<g id="surface1">
<path style=" stroke:none;fill-rule:nonzero;fill:rgb(62.745098%,62.745098%,62.745098%);fill-opacity:1;" d="M 3.4375 27.992188 C 3.441406 16.980469 3.554688 10.082031 3.742188 9.898438 C 3.925781 9.710938 7.089844 9.585938 13.574219 9.507812 L 20.925781 9.425781 L 20.925781 16.109375 L 10.429688 16.109375 L 10.429688 21.671875 L 12.667969 21.753906 C 13.898438 21.800781 16.199219 21.875 17.785156 21.925781 L 20.667969 22.007812 L 20.667969 27.953125 L 20.25 28.015625 C 20.015625 28.050781 17.761719 28.140625 15.234375 28.214844 C 12.707031 28.289062 10.605469 28.394531 10.554688 28.449219 C 10.507812 28.503906 10.40625 31.152344 10.324219 34.332031 C 10.238281 37.511719 10.144531 40.148438 10.109375 40.183594 C 10.074219 40.21875 9.066406 40.296875 7.875 40.351562 C 6.679688 40.40625 5.191406 40.484375 4.570312 40.523438 L 3.433594 40.59375 Z M 3.4375 27.992188 "/>
<path style=" stroke:none;fill-rule:nonzero;fill:rgb(62.745098%,62.745098%,62.745098%);fill-opacity:1;" d="M 34.792969 40.402344 C 31.070312 39.648438 28.511719 37.101562 27.464844 33.109375 C 27.125 31.820312 27.121094 28.90625 27.457031 27.636719 C 28.128906 25.089844 29.511719 23.105469 31.554688 21.769531 C 33.269531 20.644531 35.007812 20.121094 37.0625 20.105469 C 38.949219 20.09375 39.730469 20.328125 42.144531 21.640625 C 42.703125 21.941406 42.859375 21.976562 43.019531 21.839844 C 43.128906 21.75 43.21875 21.570312 43.21875 21.4375 C 43.21875 21.304688 43.375 21.089844 43.566406 20.964844 C 43.871094 20.761719 44.316406 20.726562 47.066406 20.6875 L 50.210938 20.648438 L 50.210938 40.464844 L 47.582031 40.464844 C 44.433594 40.464844 43.78125 40.335938 43.359375 39.617188 C 43.019531 39.03125 42.8125 39.039062 41.40625 39.675781 C 40.785156 39.957031 39.835938 40.277344 39.292969 40.390625 C 38.113281 40.636719 35.976562 40.640625 34.792969 40.402344 Z M 40.839844 34.601562 C 41.769531 34.144531 42.34375 33.539062 42.808594 32.527344 C 43.097656 31.902344 43.140625 31.628906 43.140625 30.503906 C 43.140625 28.816406 42.820312 27.9375 41.863281 26.976562 C 40.796875 25.90625 38.730469 25.320312 37.640625 25.78125 C 36.394531 26.304688 34.488281 28.417969 34.335938 29.449219 C 34.222656 30.21875 34.453125 31.597656 34.835938 32.441406 C 35.90625 34.789062 38.523438 35.730469 40.839844 34.601562 Z M 40.839844 34.601562 "/>
<path style=" stroke:none;fill-rule:nonzero;fill:rgb(0%,0%,0%);fill-opacity:1;" d="M 3.496094 27.949219 C 3.574219 14.878906 3.652344 10.257812 3.816406 10 C 3.933594 9.804688 8.105469 9.640625 15.519531 9.535156 L 20.925781 9.460938 L 20.925781 16.109375 L 10.429688 16.109375 L 10.429688 21.683594 L 11.566406 21.757812 C 12.1875 21.800781 13.921875 21.867188 15.421875 21.90625 C 16.917969 21.941406 18.710938 22.007812 19.410156 22.054688 L 20.671875 22.128906 L 20.605469 27.894531 L 19.5 27.984375 C 18.894531 28.03125 16.972656 28.109375 15.226562 28.15625 C 13.480469 28.207031 11.699219 28.285156 11.273438 28.332031 L 10.496094 28.417969 L 10.449219 29.394531 C 10.425781 29.933594 10.382812 31.421875 10.351562 32.707031 C 10.328125 33.988281 10.273438 35.070312 10.238281 35.105469 C 10.203125 35.140625 10.167969 36.023438 10.160156 37.070312 C 10.15625 38.113281 10.113281 39.234375 10.066406 39.554688 L 9.976562 40.140625 L 8.8125 40.226562 C 8.171875 40.269531 6.695312 40.351562 5.535156 40.40625 L 3.429688 40.5 Z M 3.496094 27.949219 "/>
<path style=" stroke:none;fill-rule:nonzero;fill:rgb(0%,0%,0%);fill-opacity:1;" d="M 35.148438 40.464844 C 35.132812 40.429688 34.707031 40.296875 34.210938 40.171875 C 30.804688 39.308594 28.273438 36.503906 27.472656 32.707031 C 27.25 31.652344 27.222656 29.429688 27.414062 28.226562 C 27.980469 24.730469 30.898438 21.519531 34.40625 20.542969 C 34.9375 20.398438 35.929688 20.242188 36.609375 20.195312 C 38.269531 20.09375 39.359375 20.339844 41.238281 21.25 C 42.058594 21.648438 42.808594 21.96875 42.894531 21.96875 C 42.988281 21.96875 43.171875 21.75 43.304688 21.488281 C 43.472656 21.144531 43.652344 20.980469 43.929688 20.914062 C 44.144531 20.867188 45.644531 20.789062 47.265625 20.75 L 50.210938 20.675781 L 50.210938 40.507812 L 47.527344 40.417969 C 46.046875 40.363281 44.632812 40.269531 44.382812 40.203125 C 44.132812 40.132812 43.714844 39.871094 43.449219 39.621094 C 43.191406 39.367188 42.851562 39.164062 42.699219 39.164062 C 42.546875 39.164062 42.015625 39.335938 41.519531 39.550781 C 39.855469 40.261719 39.367188 40.363281 37.222656 40.449219 C 36.101562 40.496094 35.167969 40.5 35.148438 40.464844 Z M 40.652344 34.753906 C 41.46875 34.398438 42.386719 33.53125 42.796875 32.71875 C 43.09375 32.144531 43.136719 31.90625 43.136719 30.761719 C 43.136719 30.046875 43.105469 29.25 43.0625 28.996094 C 42.777344 27.230469 40.882812 25.746094 38.78125 25.640625 C 37.894531 25.597656 37.714844 25.628906 37.226562 25.914062 C 36.375 26.417969 34.9375 27.949219 34.488281 28.835938 C 34.253906 29.292969 34.1875 30.890625 34.398438 31.019531 C 34.464844 31.0625 34.496094 31.171875 34.460938 31.261719 C 34.261719 31.78125 35.382812 33.699219 36.230469 34.289062 C 37.480469 35.160156 39.285156 35.351562 40.652344 34.753906 Z M 40.652344 34.753906 "/>
<path style=" stroke:none;fill-rule:nonzero;fill:rgb(0%,0%,0%);fill-opacity:1;" d="M 61.941406 39.917969 C 61.210938 38.089844 58.398438 30.710938 57.1875 27.441406 C 54.933594 21.363281 54.832031 21.058594 55 20.882812 C 55.167969 20.714844 59.753906 20.726562 60.894531 20.898438 L 61.53125 20.992188 L 63.722656 27.605469 C 64.929688 31.242188 65.953125 34.191406 66.003906 34.164062 C 66.050781 34.132812 67.078125 31.085938 68.292969 27.394531 L 70.492188 20.675781 L 73.410156 20.679688 C 76.40625 20.683594 77.253906 20.796875 77.214844 21.191406 C 77.203125 21.296875 75.941406 24.726562 74.40625 28.808594 C 72.871094 32.890625 71.265625 37.171875 70.84375 38.316406 L 70.070312 40.402344 L 66.117188 40.433594 L 62.164062 40.46875 Z M 61.941406 39.917969 "/>
<path style=" stroke:none;fill-rule:nonzero;fill:rgb(0%,0%,0%);fill-opacity:1;" d="M 89.347656 40.34375 C 87.871094 40.019531 87.136719 39.761719 85.984375 39.144531 C 83.636719 37.882812 81.992188 35.953125 81.167969 33.496094 C 80.902344 32.707031 80.859375 32.339844 80.859375 30.695312 C 80.859375 28.554688 81.058594 27.683594 81.964844 25.878906 C 82.941406 23.921875 84.484375 22.480469 86.757812 21.402344 C 90.710938 19.523438 95 19.625 98.640625 21.671875 C 100.03125 22.457031 100.519531 22.871094 101.160156 23.824219 C 102.457031 25.742188 103.34375 28.230469 103.34375 29.945312 C 103.34375 30.882812 103.324219 30.957031 103.050781 31.011719 C 102.894531 31.046875 100.542969 31.109375 97.835938 31.152344 C 92.15625 31.246094 89.214844 31.402344 88.722656 31.640625 C 88.21875 31.878906 88.203125 32.472656 88.671875 33.472656 C 89.3125 34.847656 90.078125 35.371094 91.75 35.582031 C 92.582031 35.6875 94.125 35.371094 94.84375 34.945312 C 95.390625 34.621094 95.617188 34.308594 95.753906 33.664062 C 95.890625 33.03125 96.164062 32.976562 99.28125 32.976562 C 101.921875 32.976562 102.171875 32.996094 102.421875 33.222656 C 102.800781 33.570312 102.769531 33.875 102.234375 34.992188 C 101.003906 37.574219 99.347656 39.078125 96.792969 39.929688 C 96.152344 40.144531 95.179688 40.378906 94.617188 40.457031 C 93.070312 40.667969 90.625 40.617188 89.347656 40.34375 Z M 96.085938 27.71875 C 97.054688 27.449219 95.898438 25.527344 94.339844 24.8125 C 93.410156 24.382812 91.921875 24.394531 90.773438 24.828125 C 89.609375 25.277344 88.570312 26.277344 88.570312 26.953125 C 88.570312 27.464844 88.660156 27.5625 89.273438 27.707031 C 89.777344 27.828125 95.652344 27.835938 96.085938 27.71875 Z M 96.085938 27.71875 "/>
<path style=" stroke:none;fill-rule:nonzero;fill:rgb(0%,0%,0%);fill-opacity:1;" d="M 109.5625 23.679688 L 109.5625 6.730469 L 116.6875 6.730469 L 116.621094 10.148438 C 116.585938 12.03125 116.519531 19.535156 116.476562 26.832031 L 116.398438 40.09375 L 116.125 40.195312 C 115.972656 40.253906 114.769531 40.34375 113.449219 40.386719 C 112.132812 40.4375 110.71875 40.507812 110.308594 40.554688 L 109.5625 40.632812 Z M 109.5625 23.679688 "/>
<path style=" stroke:none;fill-rule:nonzero;fill:rgb(0%,0%,0%);fill-opacity:1;" d="M 133.105469 34.816406 C 132.289062 34.585938 131.898438 34.28125 131.320312 33.421875 C 130.628906 32.386719 130.125 31.03125 130.113281 30.171875 C 130.105469 29.570312 130.179688 29.324219 130.558594 28.683594 C 131.582031 26.953125 133.28125 25.746094 134.699219 25.746094 C 135.707031 25.746094 136.5625 26.203125 137.535156 27.246094 C 138.492188 28.269531 138.851562 29.148438 138.851562 30.4375 C 138.851562 31.613281 138.488281 32.578125 137.734375 33.421875 C 136.59375 34.695312 134.699219 35.265625 133.105469 34.816406 Z M 133.105469 34.816406 "/>
<path style=" stroke:none;fill-rule:nonzero;fill:rgb(0%,0%,0%);fill-opacity:1;" d="M 130.6875 40.410156 C 128.535156 39.949219 126.585938 38.796875 125.242188 37.1875 C 122.507812 33.910156 122.15625 28.191406 124.46875 24.652344 C 125.5625 22.984375 127.933594 21.050781 129.441406 20.597656 C 130.71875 20.21875 132.382812 20.09375 133.925781 20.261719 C 135.894531 20.476562 136.804688 20.78125 137.816406 21.578125 C 138.882812 22.414062 139.230469 22.417969 139.429688 21.601562 C 139.503906 21.285156 139.675781 20.972656 139.824219 20.886719 C 139.996094 20.785156 141.074219 20.71875 143.03125 20.6875 L 145.976562 20.644531 L 145.976562 40.464844 L 143.222656 40.460938 C 139.882812 40.449219 139.640625 40.390625 139.441406 39.554688 C 139.257812 38.777344 139.011719 38.753906 137.730469 39.402344 C 136.023438 40.261719 135.125 40.488281 133.214844 40.542969 C 132.109375 40.574219 131.238281 40.527344 130.6875 40.410156 Z M 136.304688 34.695312 C 137.253906 34.257812 137.949219 33.59375 138.472656 32.621094 C 138.894531 31.839844 138.914062 31.746094 138.914062 30.4375 C 138.914062 29.128906 138.898438 29.035156 138.472656 28.25 C 137.917969 27.21875 136.75 26.113281 135.921875 25.828125 C 135.011719 25.515625 133.992188 25.558594 133.175781 25.9375 C 131.871094 26.550781 130.359375 28.292969 130.015625 29.566406 C 129.8125 30.335938 130.019531 31.285156 130.6875 32.625 C 131.277344 33.804688 132.09375 34.6875 132.746094 34.859375 C 133.003906 34.921875 133.332031 35.007812 133.472656 35.042969 C 134.074219 35.203125 135.617188 35.015625 136.304688 34.695312 Z M 136.304688 34.695312 "/>
<path style=" stroke:none;fill-rule:nonzero;fill:rgb(0%,0%,0%);fill-opacity:1;" d="M 99.523438 14.464844 C 99.277344 14.21875 99.347656 13.71875 99.8125 12.394531 C 100.398438 10.738281 101.214844 9.335938 101.589844 9.335938 C 102.078125 9.335938 103.316406 11.707031 103.78125 13.53125 C 104.066406 14.644531 103.894531 14.765625 102.828125 14.21875 C 101.988281 13.792969 101.433594 13.808594 100.496094 14.285156 C 99.796875 14.636719 99.710938 14.65625 99.523438 14.464844 Z M 99.523438 14.464844 "/>
<path style=" stroke:none;fill-rule:nonzero;fill:rgb(0%,0%,0%);fill-opacity:1;" d="M 91.890625 14.410156 C 91.46875 13.90625 91.355469 13.347656 91.363281 11.808594 C 91.375 9.832031 91.742188 8.945312 92.558594 8.945312 C 93.320312 8.945312 94.972656 10.128906 95.359375 10.953125 C 95.964844 12.238281 95.179688 13.824219 93.566406 14.558594 C 92.773438 14.925781 92.285156 14.878906 91.890625 14.410156 Z M 93.90625 13.078125 C 93.992188 12.921875 94.0625 12.40625 94.0625 11.941406 C 94.0625 10.984375 93.867188 10.507812 93.484375 10.507812 C 92.9375 10.507812 92.65625 12.007812 93.035156 12.921875 C 93.257812 13.453125 93.664062 13.527344 93.90625 13.078125 Z M 93.90625 13.078125 "/>
<path style=" stroke:none;fill-rule:nonzero;fill:rgb(0%,0%,0%);fill-opacity:1;" d="M 79.9375 14.546875 C 79.515625 14.375 79.355469 13.722656 79.28125 11.875 C 79.207031 10.003906 79.292969 9.609375 79.839844 9.25 C 80.316406 8.933594 81.53125 8.933594 82.003906 9.242188 C 82.691406 9.695312 82.289062 10.410156 81.265625 10.5625 C 80.585938 10.667969 80.582031 10.847656 81.257812 10.972656 C 81.699219 11.058594 82.351562 11.664062 82.351562 11.992188 C 82.351562 12.34375 81.976562 12.628906 81.308594 12.785156 C 80.753906 12.914062 80.660156 12.972656 80.859375 13.050781 C 82.28125 13.589844 82.460938 13.792969 81.953125 14.265625 C 81.542969 14.652344 80.539062 14.789062 79.9375 14.546875 Z M 79.9375 14.546875 "/>
<path style=" stroke:none;fill-rule:nonzero;fill:rgb(0%,0%,0%);fill-opacity:1;" d="M 72.449219 14.511719 C 72.15625 14.0625 71.992188 13.15625 71.988281 11.980469 C 71.984375 10.003906 72.394531 8.945312 73.167969 8.945312 C 73.988281 8.945312 75.613281 10.125 75.613281 10.722656 C 75.613281 10.894531 75.464844 11.386719 75.289062 11.8125 C 74.890625 12.765625 74.871094 13.378906 75.230469 13.703125 C 75.710938 14.144531 75.257812 14.949219 74.738281 14.578125 C 74.613281 14.488281 74.320312 14.316406 74.089844 14.195312 C 73.667969 13.976562 73.664062 13.976562 73.242188 14.390625 C 72.734375 14.886719 72.691406 14.890625 72.449219 14.511719 Z M 72.449219 14.511719 "/>
<path style=" stroke:none;fill-rule:nonzero;fill:rgb(0%,0%,0%);fill-opacity:1;" d="M 65.136719 14.34375 C 64.859375 13.734375 64.695312 11.535156 64.835938 10.363281 C 65.011719 8.910156 65.304688 8.703125 66.558594 9.148438 C 68.757812 9.921875 68.976562 11.640625 67 12.519531 C 66.226562 12.863281 65.761719 13.378906 65.761719 13.902344 C 65.761719 14.691406 65.410156 14.941406 65.136719 14.34375 Z M 66.90625 11.128906 C 66.941406 10.699219 66.910156 10.636719 66.59375 10.558594 C 66.164062 10.449219 65.84375 10.632812 65.785156 11.019531 C 65.726562 11.441406 66.003906 11.703125 66.46875 11.65625 C 66.824219 11.621094 66.867188 11.566406 66.90625 11.128906 Z M 66.90625 11.128906 "/>
<path style=" stroke:none;fill-rule:nonzero;fill:rgb(0%,0%,0%);fill-opacity:1;" d="M 54.359375 14.285156 C 54.359375 13.644531 54.6875 11.421875 54.953125 10.238281 C 55.359375 8.457031 56.015625 8.535156 56.949219 10.476562 C 57.269531 11.140625 57.574219 11.679688 57.628906 11.679688 C 57.6875 11.679688 57.96875 11.183594 58.257812 10.574219 C 58.789062 9.449219 59.101562 9.128906 59.539062 9.269531 C 60.074219 9.441406 60.832031 11.808594 60.878906 13.464844 C 60.921875 14.933594 60.539062 15.046875 59.804688 13.792969 C 58.898438 12.238281 59.042969 12.285156 58.613281 13.382812 C 58.402344 13.917969 58.148438 14.433594 58.046875 14.539062 C 57.671875 14.925781 56.886719 14.152344 56.488281 13 C 56.402344 12.738281 56.28125 12.527344 56.226562 12.527344 C 56.171875 12.527344 55.996094 12.863281 55.839844 13.269531 C 55.441406 14.304688 55.0625 14.804688 54.675781 14.804688 C 54.394531 14.804688 54.359375 14.75 54.359375 14.285156 Z M 54.359375 14.285156 "/>
<path style=" stroke:none;fill-rule:nonzero;fill:rgb(0%,0%,0%);fill-opacity:1;" d="M 47.648438 14.667969 C 47.0625 14.433594 46.183594 13.738281 45.871094 13.261719 C 45.105469 12.101562 45.398438 10.789062 46.632812 9.867188 C 47 9.589844 47.492188 9.265625 47.730469 9.148438 C 48.15625 8.929688 48.167969 8.929688 48.875 9.359375 C 49.796875 9.917969 50.550781 10.742188 50.722656 11.375 C 51.03125 12.546875 50.324219 13.746094 48.890625 14.488281 C 48.226562 14.835938 48.101562 14.851562 47.648438 14.667969 Z M 48.796875 12.863281 C 49.347656 12.3125 49.324219 11.671875 48.738281 11.082031 C 47.863281 10.203125 46.714844 10.632812 46.714844 11.835938 C 46.714844 12.378906 46.992188 13.046875 47.261719 13.15625 C 47.351562 13.191406 47.648438 13.226562 47.925781 13.234375 C 48.308594 13.242188 48.507812 13.15625 48.796875 12.863281 Z M 48.796875 12.863281 "/>
<path style=" stroke:none;fill-rule:nonzero;fill:rgb(0%,0%,0%);fill-opacity:1;" d="M 38.292969 14.339844 C 37.058594 13.632812 36.542969 12.828125 36.632812 11.746094 C 36.707031 10.898438 37.046875 10.402344 38.082031 9.632812 C 39.023438 8.9375 39.402344 8.933594 40.46875 9.59375 C 41.285156 10.097656 41.515625 10.449219 41.226562 10.738281 C 41.050781 10.914062 40.886719 10.917969 39.847656 10.769531 C 38.726562 10.605469 38.648438 10.613281 38.316406 10.859375 C 37.871094 11.191406 37.675781 11.914062 37.890625 12.433594 C 38.175781 13.125 38.707031 13.261719 40.304688 13.054688 C 40.957031 12.96875 41.117188 12.988281 41.261719 13.167969 C 41.417969 13.355469 41.394531 13.4375 41.066406 13.78125 C 40.574219 14.300781 39.835938 14.679688 39.304688 14.675781 C 39.066406 14.675781 38.613281 14.523438 38.292969 14.339844 Z M 38.292969 14.339844 "/>
<path style=" stroke:none;fill-rule:nonzero;fill:rgb(100%,100%,100%);fill-opacity:1;" d="M 133.226562 34.75 C 132.09375 34.433594 131.554688 33.875 130.773438 32.214844 C 130.425781 31.46875 130.300781 31.019531 130.257812 30.324219 C 130.203125 29.441406 130.21875 29.386719 130.710938 28.632812 C 131.332031 27.6875 132.4375 26.617188 133.207031 26.222656 C 133.519531 26.0625 134.109375 25.902344 134.523438 25.863281 C 135.539062 25.769531 136.425781 26.207031 137.429688 27.296875 C 138.484375 28.445312 138.710938 29.007812 138.710938 30.457031 C 138.710938 31.410156 138.65625 31.738281 138.414062 32.230469 C 137.917969 33.234375 137.292969 33.863281 136.277344 34.355469 C 135.152344 34.902344 134.210938 35.023438 133.226562 34.75 Z M 133.226562 34.75 "/>
</g>
</svg>
