<?xml version="1.0" encoding="UTF-8" standalone="no"?>
<svg
   xmlns:dc="http://purl.org/dc/elements/1.1/"
   xmlns:cc="http://creativecommons.org/ns#"
   xmlns:rdf="http://www.w3.org/1999/02/22-rdf-syntax-ns#"
   xmlns:svg="http://www.w3.org/2000/svg"
   xmlns="http://www.w3.org/2000/svg"
   xmlns:sodipodi="http://sodipodi.sourceforge.net/DTD/sodipodi-0.dtd"
   xmlns:inkscape="http://www.inkscape.org/namespaces/inkscape"
   inkscape:version="1.0 (4035a4fb49, 2020-05-01)"
   sodipodi:docname="new.svg"
   id="svg50"
   preserveAspectRatio="xMidYMid meet"
   viewBox="0 0 287.000000 92.000000"
   height="92.000000pt"
   width="287.000000pt"
   version="1.0">
  <metadata
     id="metadata56">
    <rdf:RDF>
      <cc:Work
         rdf:about="">
        <dc:format>image/svg+xml</dc:format>
        <dc:type
           rdf:resource="http://purl.org/dc/dcmitype/StillImage" />
        <dc:title></dc:title>
      </cc:Work>
    </rdf:RDF>
  </metadata>
  <defs
     id="defs54" />
  <sodipodi:namedview
     inkscape:current-layer="svg50"
     inkscape:window-maximized="1"
     inkscape:window-y="-9"
     inkscape:window-x="-9"
     inkscape:cy="25.089056"
     inkscape:cx="244.57944"
     inkscape:zoom="3.2012195"
     showgrid="false"
     id="namedview52"
     inkscape:window-height="1001"
     inkscape:window-width="1920"
     inkscape:pageshadow="2"
     inkscape:pageopacity="0"
     guidetolerance="10"
     gridtolerance="10"
     objecttolerance="10"
     borderopacity="1"
     bordercolor="#666666"
     pagecolor="#ffffff" />
  <path
     transform="scale(0.75000002)"
     id="path316"
     d="M 8.286297,67.135008 C 8.2934656,40.722013 8.5723066,24.17817 9.0178294,23.732647 9.4617035,23.288773 17.097123,22.991114 32.721905,22.808568 l 17.727619,-0.207114 v 8.016099 8.016098 H 37.798095 25.146667 v 6.669367 6.669367 l 5.388571,0.201646 c 2.963714,0.110905 8.516286,0.294257 12.339048,0.407447 l 6.950476,0.205802 v 7.122363 7.122363 l -1.015238,0.154726 c -0.558381,0.0851 -5.99694,0.30077 -12.085684,0.479267 -6.088746,0.178501 -11.163547,0.431529 -11.277336,0.562289 -0.113789,0.13076 -0.367342,6.480427 -0.563451,14.110373 -0.196109,7.629945 -0.427153,13.943217 -0.513431,14.029494 -0.08628,0.08628 -2.512167,0.267332 -5.390864,0.40234 -2.878698,0.135008 -6.463996,0.321631 -7.967329,0.414717 l -2.7333338,0.169245 z"
     style="fill:#a0a0a0;stroke:none;stroke-width:0.312381" />
  <path
     transform="scale(0.75000002)"
     id="path318"
     d="M 83.874286,96.893942 C 74.906406,95.089208 68.73518,88.979261 66.204249,79.399365 c -0.81462,-3.083441 -0.823478,-10.074129 -0.01663,-13.12 1.617952,-6.10777 4.959564,-10.867465 9.877138,-14.068707 4.142611,-2.696756 8.32888,-3.955092 13.27619,-3.990642 4.548745,-0.03269 6.432295,0.531737 12.256433,3.672754 1.34542,0.725597 1.71938,0.812394 2.10857,0.489396 0.26019,-0.215948 0.4731,-0.653323 0.4731,-0.971944 0,-0.318621 0.38001,-0.828552 0.84446,-1.133179 0.73765,-0.483813 1.80445,-0.566833 8.43428,-0.656364 l 7.58983,-0.102496 v 23.765353 23.765353 h -6.34711 c -7.59119,0 -9.15412,-0.3126 -10.16979,-2.034041 -0.82752,-1.402512 -1.3247,-1.388099 -4.710779,0.136567 -1.497938,0.674487 -3.794864,1.44763 -5.10428,1.718095 -2.8398,0.586577 -7.990354,0.598185 -10.84138,0.02443 z M 98.451371,82.978107 c 2.235649,-1.087073 3.623029,-2.539282 4.748339,-4.970202 0.69387,-1.498913 0.80117,-2.153287 0.7963,-4.856159 -0.007,-4.042945 -0.77522,-6.153289 -3.07659,-8.454658 -2.567408,-2.567409 -7.550125,-3.97418 -10.179812,-2.874068 -3.007673,1.25824 -7.599923,6.328593 -7.970597,8.800422 -0.277244,1.848799 0.277707,5.152977 1.206033,7.180706 2.578496,5.632179 8.892753,7.888947 14.476327,5.173959 z"
     style="fill:#a0a0a0;stroke:none;stroke-width:0.312381" />
  <path
     transform="scale(0.75000002)"
     id="path322"
     d="M 8.4348199,67.024322 C 8.6139412,35.688774 8.8100493,24.607355 9.1965407,23.981999 9.484015,23.516856 19.534834,23.120752 37.407619,22.870198 l 13.041905,-0.182832 v 7.973142 7.973143 H 37.798095 25.146667 v 6.683027 6.683028 L 27.88,52.183894 c 1.503333,0.101303 5.685333,0.25971 9.293333,0.352014 3.608,0.09231 7.933221,0.250554 9.6116,0.351664 l 3.051599,0.183838 -0.08398,6.916359 -0.08398,6.916358 -2.655238,0.207162 c -1.460381,0.113941 -6.099238,0.30225 -10.308571,0.418471 -4.209333,0.116219 -8.496762,0.304138 -9.527619,0.417598 l -1.874286,0.206293 -0.110795,2.342857 c -0.06094,1.288571 -0.166145,4.861207 -0.233795,7.93919 -0.06765,3.077986 -0.193506,5.666843 -0.279681,5.753017 -0.08618,0.08618 -0.167101,2.206681 -0.179836,4.712238 -0.01274,2.505555 -0.118164,5.188126 -0.234286,5.961269 l -0.211131,1.405715 -2.811428,0.200917 c -1.546286,0.110501 -5.099176,0.305162 -7.895311,0.432572 l -5.0838829,0.231659 z"
     style="fill:#000000;stroke-width:0.312381" />
  <path
     transform="scale(0.75000002)"
     id="path324"
     d="m 84.732781,97.048889 c -0.04265,-0.0859 -1.061543,-0.404143 -2.26421,-0.707193 C 74.262736,94.273965 68.154003,87.543661 66.227176,78.447718 65.688982,75.907077 65.620727,70.579599 66.089362,67.69109 c 1.360126,-8.383362 8.398843,-16.078001 16.847781,-18.417788 1.288571,-0.356847 3.678286,-0.732002 5.310476,-0.833677 4.004357,-0.249446 6.636576,0.345589 11.168266,2.524677 1.974755,0.949571 3.772455,1.726492 3.994885,1.726492 0.22245,0 0.66202,-0.521672 0.97684,-1.159271 0.40662,-0.823543 0.84379,-1.221297 1.50953,-1.373446 0.51543,-0.117796 4.13515,-0.295224 8.04381,-0.394285 l 7.10667,-0.180111 v 23.780461 23.78046 l -6.48191,-0.217029 c -3.56504,-0.119367 -6.9739,-0.350454 -7.57523,-0.51353 -0.60134,-0.163075 -1.6111,-0.789802 -2.24391,-1.392731 -0.63282,-0.602927 -1.44881,-1.096233 -1.81332,-1.096233 -0.3645,0 -1.64539,0.418157 -2.84641,0.92924 -4.005949,1.704682 -5.188056,1.950744 -10.355964,2.155657 -2.706303,0.107306 -4.955446,0.124818 -4.998095,0.03891 z M 98.000059,83.348432 c 1.960353,-0.849308 4.173091,-2.934847 5.170921,-4.873669 0.71235,-1.384128 0.81062,-1.952048 0.81304,-4.698255 0.002,-1.718095 -0.0781,-3.624269 -0.1769,-4.235942 -0.68376,-4.233166 -5.257452,-7.800088 -10.321746,-8.049707 -2.136667,-0.105316 -2.569491,-0.02881 -3.748571,0.662612 -2.046214,1.199911 -5.507686,4.871509 -6.599301,6.999905 -0.563387,1.098475 -0.719756,4.926889 -0.214002,5.239462 0.164306,0.101547 0.230636,0.362101 0.1474,0.57901 -0.477933,1.245475 2.227948,5.844886 4.271943,7.261375 3.015777,2.089938 7.358459,2.544367 10.657216,1.115209 z"
     style="fill:#000000;stroke-width:0.312381" />
  <path
     transform="scale(0.75000002)"
     id="path326"
     d="m 149.32203,95.725734 c -1.76138,-4.377085 -8.54404,-22.071072 -11.46734,-29.91494 -5.43134,-14.573495 -5.67927,-15.313923 -5.26578,-15.725601 0.40311,-0.401338 11.45521,-0.374487 14.20415,0.03451 l 1.53592,0.228519 5.28505,15.855137 c 2.90677,8.720325 5.37847,15.797093 5.49265,15.726151 0.11418,-0.07094 2.59732,-7.376753 5.51808,-16.235135 l 5.31048,-16.106149 7.02857,0.007 c 7.2235,0.0072 9.26131,0.280322 9.17179,1.229249 -0.0239,0.253327 -3.07071,8.473166 -6.77068,18.266309 -3.69997,9.793143 -7.56605,20.054857 -8.59127,22.803809 l -1.86405,4.998095 -9.52576,0.08256 -9.52577,0.08256 z"
     style="fill:#000000;stroke-width:0.312381" />
  <path
     transform="scale(0.75000002)"
     id="path328"
     d="m 215.38667,96.747435 c -3.56593,-0.76533 -5.33849,-1.393257 -8.11011,-2.872996 -5.65929,-3.021436 -9.62716,-7.646786 -11.61354,-13.537931 -0.64038,-1.899221 -0.73731,-2.78209 -0.73731,-6.716191 0,-5.140248 0.48081,-7.233358 2.65477,-11.557152 2.36128,-4.696363 6.08244,-8.153991 11.55857,-10.739998 9.52849,-4.499667 19.87187,-4.263385 28.6504,0.654484 3.34782,1.875499 4.51856,2.869789 6.07119,5.156137 3.12404,4.600361 5.26317,10.566025 5.26317,14.678109 0,2.259741 -0.0469,2.430953 -0.70286,2.566275 -0.38657,0.07975 -6.04457,0.232025 -12.57333,0.338394 -13.69509,0.223125 -20.78145,0.598974 -21.96887,1.165195 -1.21412,0.578951 -1.25394,1.990622 -0.12396,4.394442 1.54751,3.292039 3.39476,4.551478 7.41635,5.056432 2.00505,0.251757 5.72603,-0.508662 7.45919,-1.524356 1.32228,-0.774911 1.86517,-1.533544 2.19858,-3.07228 0.32969,-1.521598 0.98648,-1.649015 8.49994,-1.649015 6.36394,0 6.97004,0.04761 7.57523,0.595083 0.9097,0.82293 0.83064,1.560983 -0.45444,4.242492 -2.96441,6.18568 -6.95598,9.787942 -13.118,11.838545 -1.53697,0.511474 -3.8941,1.080304 -5.23805,1.264062 -3.7322,0.510299 -9.63095,0.380446 -12.70692,-0.279731 z m 16.24381,-30.277728 c 2.32975,-0.644236 -0.45709,-5.246648 -4.21715,-6.96454 -2.24017,-1.023491 -5.81816,-1.004325 -8.58724,0.046 -2.80416,1.063626 -5.31371,3.466319 -5.31371,5.087445 0,1.228848 0.21786,1.462686 1.69083,1.81482 1.22085,0.291862 15.37993,0.305893 16.42727,0.01628 z"
     style="fill:#000000;stroke-width:0.312381" />
  <path
     transform="scale(0.75000002)"
     id="path330"
     d="M 264.1181,56.792096 V 16.142222 h 8.58535 8.58535 l -0.15546,8.2 c -0.0855,4.51 -0.24099,22.513167 -0.34551,40.007038 l -0.19005,31.807038 -0.6646,0.247965 c -0.36554,0.136382 -3.26518,0.342319 -6.44366,0.457641 -3.17847,0.115318 -6.58733,0.29301 -7.57523,0.394868 l -1.79619,0.185195 z"
     style="fill:#000000;stroke-width:0.312381" />
  <path
     transform="scale(0.75000002)"
     id="path332"
     d="m 320.86755,83.499637 c -1.96884,-0.553514 -2.90776,-1.284572 -4.29729,-3.345923 -1.67332,-2.482364 -2.89101,-5.735279 -2.91752,-7.793812 -0.0186,-1.440479 0.16018,-2.035794 1.07107,-3.567643 2.46866,-4.151533 6.56736,-7.042418 9.98475,-7.042418 2.42343,0 4.49439,1.087784 6.83541,3.59035 2.30287,2.461767 3.17222,4.559741 3.17222,7.655365 0,2.81711 -0.87154,5.134883 -2.69239,7.160101 -2.74407,3.052068 -7.31799,4.423058 -11.15625,3.34398 z"
     style="fill:#000000;stroke-width:0.312381" />
  <path
     transform="scale(0.75000002)"
     id="path334"
     d="M 315.03619,96.911188 C 309.84353,95.81137 305.15254,93.0506 301.91322,89.187982 295.32049,81.326706 294.4716,67.60947 300.0528,59.125466 c 2.63619,-4.007291 8.3461,-8.641685 11.9772,-9.721179 3.08421,-0.916911 7.09512,-1.219531 10.81548,-0.816022 4.73891,0.513979 6.93819,1.255263 9.38299,3.162606 2.56498,2.001103 3.40808,2.013717 3.88172,0.05808 0.18415,-0.760362 0.59939,-1.511073 0.95034,-1.718095 0.4133,-0.243811 3.01743,-0.402599 7.72995,-0.471339 l 7.10666,-0.103663 v 23.76652 23.76652 l -6.63809,-0.01762 c -8.0468,-0.02137 -8.63279,-0.160848 -9.11323,-2.169036 -0.44625,-1.865321 -1.04634,-1.918532 -4.13419,-0.366592 -4.11244,2.066894 -6.27683,2.610905 -10.88401,2.735654 -2.66179,0.07208 -4.76054,-0.03821 -6.09143,-0.320096 z m 13.54485,-13.703056 c 2.2895,-1.048166 3.96435,-2.641324 5.22953,-4.974466 1.01575,-1.873176 1.06181,-2.100383 1.06181,-5.23811 0,-3.140081 -0.0455,-3.363845 -1.06575,-5.245503 -1.3397,-2.470715 -4.15261,-5.125677 -6.15265,-5.807156 -2.19332,-0.747343 -4.64469,-0.648203 -6.61133,0.267379 -3.14352,1.463494 -6.8014,5.640485 -7.62011,8.701539 -0.49333,1.844511 0.008,4.112538 1.62115,7.331653 1.41877,2.831515 3.3791,4.945178 4.96261,5.350783 0.61672,0.157971 1.40246,0.360772 1.74608,0.450669 1.45052,0.379483 5.16665,-0.07589 6.82866,-0.836788 z"
     style="fill:#000000;stroke-width:0.312381" />
  <path
     transform="scale(0.75000002)"
     id="path336"
     d="m 239.91799,34.693685 c -0.59866,-0.598665 -0.43162,-1.788836 0.69655,-4.962891 1.41349,-3.976807 3.37731,-7.340953 4.28528,-7.340953 1.17301,0 4.15593,5.685405 5.27966,10.062973 0.68392,2.664238 0.27367,2.958121 -2.30519,1.651313 -2.01722,-1.022203 -3.36037,-0.98591 -5.61395,0.151694 -1.68578,0.850976 -1.89089,0.889319 -2.34235,0.437864 z"
     style="fill:#000000;stroke-width:0.312381" />
  <path
     transform="scale(0.75000002)"
     id="path338"
     d="m 221.51829,34.563503 c -1.01895,-1.210956 -1.29377,-2.558929 -1.2728,-6.243003 0.027,-4.745482 0.91526,-6.867802 2.8744,-6.867802 1.84031,0 5.81987,2.83637 6.76038,4.818359 1.46199,3.080914 -0.43857,6.884951 -4.3208,8.648256 -1.92042,0.872251 -3.09484,0.768848 -4.04118,-0.35581 z m 4.84999,-3.192709 c 0.21046,-0.386572 0.38264,-1.616572 0.38264,-2.733334 0,-2.287866 -0.46618,-3.43619 -1.39499,-3.43619 -1.32527,0 -1.99792,3.597792 -1.08235,5.789081 0.53276,1.275067 1.51094,1.452725 2.0947,0.380443 z"
     style="fill:#000000;stroke-width:0.312381" />
  <path
     transform="scale(0.75000002)"
     id="path340"
     d="m 192.70006,34.889813 c -1.02027,-0.412026 -1.40747,-1.979672 -1.58286,-6.408543 -0.17761,-4.484969 0.0262,-5.435543 1.35193,-6.304171 1.14582,-0.750765 4.0719,-0.755895 5.2116,-0.0091 1.65426,1.08391 0.69047,2.797019 -1.78219,3.167818 -1.63599,0.245332 -1.64609,0.677318 -0.023,0.981819 1.07213,0.201133 2.64252,1.651352 2.64252,2.440313 0,0.842749 -0.90046,1.523442 -2.5178,1.903311 -1.33622,0.313843 -1.56584,0.449642 -1.07459,0.635506 3.42142,1.294467 3.85703,1.776903 2.63361,2.916698 -0.99251,0.924663 -3.41089,1.26129 -4.85926,0.676385 z"
     style="fill:#000000;stroke-width:0.312381" />
  <path
     transform="scale(0.75000002)"
     id="path342"
     d="m 174.64563,34.806984 c -0.70425,-1.080062 -1.10197,-3.25642 -1.11037,-6.076053 -0.0141,-4.737745 0.9768,-7.278233 2.8389,-7.278233 1.9814,0 5.90013,2.831327 5.90013,4.262906 0,0.414708 -0.35143,1.588972 -0.78096,2.609475 -0.96132,2.284015 -1.00758,3.759022 -0.14244,4.541969 1.16418,1.053562 0.0682,2.988636 -1.18518,2.092603 -0.30066,-0.214943 -1.00458,-0.627338 -1.56427,-0.916435 -1.01369,-0.523609 -1.02155,-0.5218 -2.04534,0.470497 -1.22355,1.185904 -1.31889,1.200539 -1.91047,0.293271 z"
     style="fill:#000000;stroke-width:0.312381" />
  <path
     transform="scale(0.75000002)"
     id="path344"
     d="m 157.01772,34.393357 c -0.66285,-1.454801 -1.0619,-6.728847 -0.72191,-9.541141 0.42154,-3.486778 1.1272,-3.982899 4.15063,-2.918139 5.29714,1.865492 5.83643,5.981055 1.06051,8.093195 -1.85832,0.821835 -2.97362,2.064231 -2.97362,3.312481 0,1.898418 -0.8587,2.495361 -1.51561,1.053604 z m 4.26718,-7.697751 c 0.086,-1.036412 0.005,-1.183712 -0.75121,-1.373618 -1.03415,-0.259556 -1.8096,0.178647 -1.94624,1.099807 -0.15018,1.012481 0.5196,1.637837 1.63737,1.52876 0.86632,-0.08454 0.97349,-0.21141 1.06008,-1.254949 z"
     style="fill:#000000;stroke-width:0.312381" />
  <path
     transform="scale(0.75000002)"
     id="path346"
     d="m 131.04381,34.258261 c 0,-1.537591 0.78561,-6.861703 1.43155,-9.701695 0.97263,-4.276339 2.54994,-4.088948 4.80848,0.57127 0.76897,1.586674 1.50827,2.884862 1.64287,2.884862 0.13461,0 0.81155,-1.193021 1.50431,-2.651157 1.28267,-2.699797 2.04148,-3.466399 3.09894,-3.130774 1.28774,0.408711 3.10881,6.091915 3.22389,10.061098 0.10203,3.519225 -0.81409,3.798325 -2.58156,0.786477 -2.19047,-3.732666 -1.84693,-3.615694 -2.88513,-0.982366 -0.50318,1.276292 -1.11192,2.52222 -1.35275,2.768728 -0.91575,0.937336 -2.8049,-0.918203 -3.75829,-3.691424 -0.21368,-0.621558 -0.49857,-1.130105 -0.63309,-1.130105 -0.13452,0 -0.5552,0.801921 -0.93484,1.782048 -0.96058,2.479911 -1.87759,3.684618 -2.8047,3.684618 -0.67825,0 -0.75968,-0.13416 -0.75968,-1.25158 z"
     style="fill:#000000;stroke-width:0.312381" />
  <path
     transform="scale(0.75000002)"
     id="path348"
     d="m 114.86256,35.18198 c -1.4139,-0.567341 -3.53226,-2.235211 -4.28649,-3.374939 -1.84412,-2.786649 -1.13439,-5.931142 1.83918,-8.148528 0.88209,-0.657776 2.07272,-1.433022 2.64584,-1.722769 1.03198,-0.521727 1.05865,-0.5168 2.76147,0.510309 2.21821,1.337981 4.03846,3.319131 4.44275,4.835476 0.74855,2.807527 -0.95138,5.687145 -4.40921,7.469029 -1.59758,0.82326 -1.90618,0.867735 -2.99354,0.431422 z m 2.7729,-4.333824 c 1.32038,-1.320379 1.26681,-2.856618 -0.14898,-4.27241 -2.10486,-2.104856 -4.87315,-1.078368 -4.87315,1.806974 0,1.305071 0.66749,2.906518 1.32105,3.169475 0.21838,0.08786 0.935,0.170849 1.59251,0.184413 0.92422,0.01907 1.40262,-0.182509 2.10857,-0.888452 z"
     style="fill:#000000;stroke-width:0.312381" />
  <path
     transform="scale(0.75000002)"
     id="path350"
     d="m 92.308571,34.389524 c -2.973003,-1.692823 -4.211308,-3.622355 -3.99542,-6.225682 0.167802,-2.023467 0.992315,-3.217559 3.49266,-5.058209 2.266629,-1.668597 3.175444,-1.684398 5.750454,-0.09998 1.968644,1.211319 2.527845,2.051097 1.830301,2.748642 -0.422731,0.42273 -0.820657,0.431329 -3.328131,0.07192 -2.70561,-0.387808 -2.890059,-0.376999 -3.689404,0.216209 -1.075586,0.798211 -1.544414,2.524437 -1.025716,3.776685 0.687015,1.658601 1.965221,1.985336 5.816076,1.486705 1.570706,-0.203384 1.954418,-0.158035 2.312385,0.273288 0.373947,0.450579 0.312493,0.639977 -0.477486,1.471593 -1.18659,1.249129 -2.969604,2.147697 -4.252322,2.143001 -0.565225,-0.0021 -1.660254,-0.363948 -2.433397,-0.804174 z"
     style="fill:#000000;stroke-width:0.312381" />
  <path
     transform="scale(0.75000002)"
     id="path354"
     d="m 321.16021,83.339369 c -2.72878,-0.755795 -4.03287,-2.097364 -5.91276,-6.082694 -0.84027,-1.781364 -1.13778,-2.866918 -1.24135,-4.529524 -0.13198,-2.118624 -0.0979,-2.244989 1.09415,-4.060953 1.48632,-2.264176 4.15997,-4.833946 6.01283,-5.779204 0.7481,-0.381651 2.17342,-0.767654 3.16738,-0.857783 2.45975,-0.223042 4.58563,0.819865 7.01079,3.439321 2.54098,2.744567 3.09563,4.103587 3.08993,7.571 -0.004,2.292262 -0.13654,3.078864 -0.71896,4.259665 -1.18765,2.407839 -2.70256,3.90569 -5.14727,5.089294 -2.7128,1.313398 -4.98516,1.607186 -7.35474,0.950878 z"
     style="fill:#ffffff;stroke-width:0.312381" />
</svg>
