<?xml version="1.0" standalone="no"?>
<!DOCTYPE svg PUBLIC "-//W3C//DTD SVG 20010904//EN"
 "http://www.w3.org/TR/2001/REC-SVG-20010904/DTD/svg10.dtd">
<svg version="1.0" xmlns="http://www.w3.org/2000/svg"
 width="900.000000pt" height="300.000000pt" viewBox="0 0 900.000000 300.000000"
 preserveAspectRatio="xMidYMid meet">

<g transform="translate(0.000000,300.000000) scale(0.100000,-0.100000)"
fill="#000000" stroke="none">
<path d="M3490 2365 c0 -217 3 -395 8 -395 4 0 184 -1 400 -3 l392 -2 0 398 0
397 -400 0 -400 0 0 -395z m591 313 c2 -31 2 -31 6 -5 3 19 10 27 24 27 17 0
20 -6 17 -32 l-3 -33 -185 0 -185 0 -7 30 -7 30 3 -32 c2 -22 -2 -33 -11 -33
-8 0 -13 13 -13 35 l0 35 48 0 c26 0 53 -5 60 -12 9 -9 12 -9 12 0 0 22 20 12
21 -10 2 -22 2 -22 6 -2 3 18 12 22 48 22 24 1 47 -3 50 -8 4 -6 2 -10 -3 -10
-6 0 -12 -7 -15 -14 -4 -10 -1 -13 8 -10 8 3 17 14 20 25 9 28 25 23 26 -8 l2
-28 4 28 c4 27 26 37 38 17 3 -5 2 -10 -3 -10 -6 0 -12 -7 -15 -14 -4 -10 -1
-13 9 -9 8 3 17 16 20 29 9 35 24 29 25 -8z m-451 -63 c0 -69 -3 -85 -15 -85
-12 0 -15 13 -15 61 0 37 -4 58 -10 54 -5 -3 -10 -1 -10 5 0 21 21 50 35 50
12 0 15 -17 15 -85z m140 -31 c0 9 5 16 10 16 6 0 10 -6 10 -12 0 -7 3 -22 6
-33 4 -17 0 -20 -36 -22 -39 -2 -40 -1 -40 31 0 43 11 52 32 26 14 -18 18 -19
18 -6z m147 13 c6 -4 15 -3 18 3 5 8 11 8 20 0 7 -6 16 -7 19 -2 3 5 15 8 28
7 18 -2 23 -8 21 -29 -2 -36 13 -33 21 5 7 36 22 31 28 -10 3 -22 0 -30 -11
-30 -182 -9 -203 -7 -211 13 -7 19 -9 19 -15 4 -11 -27 -25 -21 -25 10 0 16 2
31 4 33 7 7 90 4 103 -4z m-259 -215 c3 -17 -2 -22 -17 -22 -14 0 -21 6 -21
18 0 38 33 41 38 4z m492 13 c13 -16 6 -35 -15 -35 -18 0 -28 17 -21 35 7 19
20 19 36 0z m-300 -25 c0 -13 -7 -20 -20 -20 -13 0 -20 7 -20 20 0 13 7 20 20
20 13 0 20 -7 20 -20z m128 3 c5 -17 -26 -29 -40 -15 -6 6 -7 15 -3 22 9 14
37 9 43 -7z m-283 -53 c4 -16 4 -34 1 -38 -3 -5 3 -17 14 -27 19 -17 21 -17
40 0 10 9 24 33 30 51 10 31 15 34 50 34 36 0 39 -3 51 -37 l12 -38 12 35 c11
32 15 35 50 35 36 0 40 -3 54 -38 8 -23 11 -41 5 -45 -17 -13 -34 -52 -34 -81
0 -24 -4 -28 -25 -28 -22 0 -25 4 -25 38 0 22 -4 39 -9 39 -5 0 -11 9 -14 20
-3 13 -11 18 -20 14 -9 -3 -13 -12 -10 -20 3 -8 0 -14 -5 -14 -6 0 -12 -17
-14 -37 -3 -33 -6 -38 -28 -38 -22 0 -25 5 -28 38 -2 20 -8 37 -14 37 -5 0 -8
7 -4 15 3 8 2 15 -3 15 -14 0 -33 -28 -27 -39 3 -5 3 -23 0 -40 -5 -21 -12
-31 -25 -31 -19 0 -20 3 -23 70 0 17 -8 35 -16 40 -13 8 -15 0 -18 -49 -3 -57
-3 -58 -32 -58 -30 0 -30 1 -31 61 l-1 61 -13 -50 c-16 -68 -27 -89 -19 -40 8
49 13 99 13 143 1 32 1 32 50 32 47 0 50 -2 56 -30z m491 6 c8 -34 1 -71 -14
-68 -8 1 -12 -16 -12 -57 0 -59 0 -60 -27 -58 -26 2 -28 6 -31 55 -2 28 -7 52
-13 52 -10 0 -13 83 -2 93 3 4 26 7 49 7 38 0 44 -3 50 -24z m-436 -50 c0 -8
-5 -18 -11 -22 -14 -8 -33 11 -25 25 10 16 36 13 36 -3z m315 -6 c1 -8 6 -25
13 -37 15 -26 16 -46 2 -38 -6 4 -10 -7 -10 -24 0 -26 -3 -30 -22 -27 -17 2
-23 10 -23 28 0 16 -4 24 -11 21 -16 -6 -7 32 11 47 7 6 11 20 8 31 -5 17 -2
20 13 17 10 -2 19 -10 19 -18z"/>
<path d="M4101 2664 c0 -11 3 -14 6 -6 3 7 2 16 -1 19 -3 4 -6 -2 -5 -13z"/>
<path d="M3732 2570 c0 -14 2 -19 5 -12 2 6 2 18 0 25 -3 6 -5 1 -5 -13z"/>
<path d="M3984 2570 c0 -24 20 -21 24 3 2 9 -3 17 -10 17 -8 0 -14 -9 -14 -20z"/>
<path d="M6162 2363 l3 -398 400 0 400 0 3 398 2 397 -405 0 -405 0 2 -397z
m495 320 c8 31 33 20 33 -16 l0 -33 -110 0 c-60 1 -110 5 -110 10 0 5 -7 3
-15 -4 -18 -15 -31 -6 -38 25 -2 11 -3 8 -2 -7 1 -18 -3 -28 -12 -28 -8 0 -13
13 -13 35 0 35 0 35 45 35 42 0 45 -2 46 -27 l1 -28 7 25 c6 25 51 43 51 20 0
-6 -4 -8 -10 -5 -5 3 -10 -4 -10 -16 0 -18 2 -19 15 -9 8 7 15 19 15 26 0 24
20 15 21 -8 2 -23 2 -23 6 0 4 19 9 23 29 18 16 -4 24 -2 25 6 0 7 5 2 11 -12
9 -21 12 -22 15 -7z m-335 -50 c4 -68 -4 -103 -22 -103 -6 0 -10 7 -10 15 0 9
-9 15 -25 15 -31 0 -31 7 -2 81 14 39 28 59 39 59 13 0 17 -13 20 -67z m438
42 c-5 -14 -5 -26 2 -33 7 -7 -1 -10 -26 -10 -34 0 -36 2 -36 33 0 31 2 33 34
33 32 0 34 -2 26 -23z m-309 -75 c11 0 19 -7 20 -17 1 -17 2 -17 6 0 6 24 23
21 24 -5 l2 -23 4 23 c6 31 23 28 24 -5 l2 -28 4 26 c6 41 51 46 66 9 4 -12 6
-11 6 3 1 25 21 21 22 -5 1 -23 1 -23 8 1 5 17 14 24 37 26 28 2 30 0 30 -31
l-1 -33 -118 1 c-64 0 -120 -2 -124 -5 -3 -4 -15 -2 -26 4 -15 8 -18 8 -12 -1
5 -8 1 -11 -11 -8 -11 2 -20 13 -22 26 -5 34 6 55 24 48 9 -3 24 -6 35 -6z
m347 -177 c2 -8 -5 -13 -17 -13 -12 0 -21 6 -21 16 0 18 31 15 38 -3z m-350
-311 l83 -23 79 26 80 27 0 133 c0 81 4 136 10 140 7 4 10 -42 8 -141 l-3
-147 -90 -28 -89 -28 -93 26 -93 27 0 141 c0 78 3 145 8 149 4 4 9 -57 12
-135 l5 -143 83 -24z m1 267 l71 -41 0 -114 c0 -85 -3 -114 -12 -114 -7 0 -40
9 -73 19 l-60 19 -3 136 c-1 75 -1 136 2 136 2 0 36 -18 75 -41z m224 -230
c-9 -8 -114 -39 -132 -39 -8 0 -11 34 -9 112 l3 113 70 42 70 42 3 -131 c1
-72 -1 -135 -5 -139z m127 127 c0 -117 -16 -199 -31 -160 -4 10 -8 76 -8 147
-1 121 0 127 19 127 19 0 20 -7 20 -114z"/>
<path d="M6442 2670 c0 -14 2 -19 5 -12 2 6 2 18 0 25 -3 6 -5 1 -5 -13z"/>
<path d="M6672 2670 c0 -14 2 -19 5 -12 2 6 2 18 0 25 -3 6 -5 1 -5 -13z"/>
<path d="M6590 2665 c0 -9 6 -12 15 -9 8 4 15 10 15 15 0 5 -7 9 -15 9 -8 0
-15 -7 -15 -15z"/>
<path d="M6277 2616 c-4 -10 -5 -21 -2 -24 9 -9 17 6 13 25 -3 17 -4 17 -11
-1z"/>
<path d="M6572 2570 c0 -14 2 -19 5 -12 2 6 2 18 0 25 -3 6 -5 1 -5 -13z"/>
<path d="M7060 2365 l0 -395 400 0 400 0 0 395 0 395 -400 0 -400 0 0 -395z
m150 320 c0 -9 -9 -15 -25 -15 -31 0 -33 -17 -2 -22 19 -3 22 -9 22 -52 0 -56
-21 -80 -52 -60 -24 15 -30 64 -9 64 9 0 16 -9 16 -20 0 -11 5 -20 10 -20 6 0
10 14 10 30 0 27 -2 30 -25 24 -24 -6 -25 -4 -25 40 l0 46 40 0 c29 0 40 -4
40 -15z m171 -2 c1 -17 2 -17 6 0 6 24 23 21 24 -5 l2 -23 4 23 c7 33 23 27
25 -10 l1 -33 4 33 c3 24 9 32 24 32 11 0 19 -7 20 -17 1 -17 2 -17 6 0 2 9 9
17 14 17 5 0 10 -8 10 -17 1 -17 2 -17 6 0 3 12 14 17 36 17 29 0 32 -3 33
-33 l1 -34 -158 -1 -159 -1 0 35 0 34 50 0 c41 0 50 -3 51 -17z m134 -77 l70
-1 0 -34 0 -34 -107 -2 c-97 -2 -108 0 -113 17 -10 30 4 61 26 55 10 -3 19 -1
19 5 0 6 8 7 18 3 9 -4 49 -8 87 -9z m-168 -36 c0 -36 -2 -37 -31 -36 -28 1
-31 5 -34 38 -3 35 -2 36 31 36 33 0 34 -1 34 -38z m293 -155 c0 -48 -2 -55
-20 -55 -11 0 -20 5 -20 12 0 8 -5 7 -15 -3 -13 -12 -13 -21 -4 -47 17 -49 3
-101 -38 -139 -19 -18 -41 -33 -49 -33 -21 0 -17 -27 6 -33 12 -3 20 -14 20
-26 0 -14 -6 -21 -20 -21 -14 0 -20 -7 -20 -21 0 -15 -5 -20 -22 -17 -15 2
-22 9 -22 21 1 12 -5 17 -22 17 -31 0 -34 39 -4 47 30 8 24 27 -15 46 -123 59
-79 247 58 247 21 0 47 -5 58 -10 14 -8 25 -7 40 3 20 14 20 15 0 20 -17 4
-20 17 -12 45 1 1 24 2 51 2 l50 0 0 -55z"/>
<path d="M7380 2580 c0 -5 5 -10 11 -10 5 0 7 5 4 10 -3 6 -8 10 -11 10 -2 0
-4 -4 -4 -10z"/>
<path d="M7424 2570 c0 -11 4 -20 8 -20 4 0 8 9 8 20 0 11 -4 20 -8 20 -4 0
-8 -9 -8 -20z"/>
<path d="M7494 2570 c0 -11 4 -20 8 -20 4 0 8 9 8 20 0 11 -4 20 -8 20 -4 0
-8 -9 -8 -20z"/>
<path d="M7393 2346 c-61 -53 -21 -156 62 -156 21 0 44 9 62 24 61 53 21 156
-62 156 -21 0 -44 -9 -62 -24z m127 -40 c0 -10 -16 -15 -55 -18 -65 -4 -75 -1
-75 18 0 11 16 14 65 14 49 0 65 -3 65 -14z m-2 -53 c-3 -15 -14 -18 -63 -18
-49 0 -60 3 -63 18 -3 15 5 17 63 17 58 0 66 -2 63 -17z"/>
<path d="M5391 2654 c0 -11 3 -14 6 -6 3 7 2 16 -1 19 -3 4 -6 -2 -5 -13z"/>
<path d="M5392 2580 c0 -14 2 -19 5 -12 2 6 2 18 0 25 -3 6 -5 1 -5 -13z"/>
<path d="M5791 2444 c0 -11 3 -14 6 -6 3 7 2 16 -1 19 -3 4 -6 -2 -5 -13z"/>
<path d="M5802 2265 c0 -16 2 -22 5 -12 2 9 2 23 0 30 -3 6 -5 -1 -5 -18z"/>
<path d="M5576 2263 c-6 -14 -5 -15 5 -6 7 7 10 15 7 18 -3 3 -9 -2 -12 -12z"/>
<path d="M5840 2205 c13 -14 26 -25 28 -25 3 0 -5 11 -18 25 -13 14 -26 25
-28 25 -3 0 5 -11 18 -25z"/>
<path d="M5716 2205 c-3 -9 -6 -22 -5 -28 0 -7 5 -1 10 12 5 13 8 26 5 28 -2
2 -6 -3 -10 -12z"/>
<path d="M4380 1480 l0 -400 400 0 400 0 0 400 0 400 -400 0 -400 0 0 -400z
m154 306 c6 -36 6 -90 1 -113 -4 -18 -13 -23 -35 -23 -36 0 -59 35 -42 66 6
11 8 32 5 48 -4 21 -1 33 11 42 23 16 55 6 60 -20z m117 2 l1 -33 10 34 c9 34
22 33 31 -4 4 -15 5 -13 6 8 1 17 7 27 16 27 10 0 15 -10 16 -27 l1 -28 10 28
c12 32 27 27 29 -11 1 -24 3 -23 9 8 l7 35 2 -32 c0 -18 6 -33 11 -33 6 0 10
15 11 33 0 27 2 29 9 12 6 -13 9 -15 9 -5 1 9 11 16 26 16 19 2 27 -4 31 -21
3 -13 3 -29 -1 -35 -9 -15 -48 -8 -57 10 -5 13 -7 12 -7 -2 -1 -15 -13 -17
-98 -15 l-98 1 -6 31 -6 30 -2 -32 c-1 -44 -21 -42 -21 2 0 32 2 35 30 35 27
0 30 -3 31 -32z m482 19 c-13 -20 -12 -41 0 -49 8 -5 6 -8 -5 -8 -13 0 -18 9
-19 33 l-2 32 -7 -35 c-6 -34 -9 -32 -23 10 -3 8 -6 2 -6 -15 -1 -23 -4 -27
-11 -15 -6 9 -10 11 -10 3 0 -9 -22 -12 -75 -11 l-75 1 0 32 0 32 120 1 c90 0
118 -2 113 -11z m-528 -112 c0 -21 -5 -35 -12 -35 -8 0 -13 14 -13 35 0 21 5
35 13 35 7 0 12 -14 12 -35z m227 21 c5 -8 8 -7 8 1 0 8 19 12 58 11 l58 -1
-5 -36 -5 -36 -7 30 -7 30 -1 -27 c-1 -27 -21 -41 -21 -15 0 9 -2 9 -8 0 -5
-9 -46 -11 -142 -10 -121 2 -135 4 -138 20 -8 39 3 43 104 43 60 0 102 -4 106
-10z m163 -22 c0 -19 -5 -29 -15 -29 -16 0 -25 28 -16 51 10 25 31 10 31 -22z
m-245 -55 c0 -5 5 -7 11 -3 6 3 15 0 20 -7 5 -9 9 -10 9 -2 0 7 18 11 53 9 51
-2 52 -3 52 -31 l0 -30 -140 0 -140 0 0 30 c0 28 2 30 40 30 22 1 43 -4 47
-10 5 -6 8 -5 8 3 0 7 5 10 10 7 6 -3 10 -1 10 4 0 6 5 11 10 11 6 0 10 -5 10
-11z m-145 -34 c0 -21 -5 -35 -12 -35 -8 0 -13 14 -13 35 0 21 5 35 13 35 7 0
12 -14 12 -35z m365 -44 c0 -30 -10 -50 -23 -45 -7 2 -46 -30 -87 -71 -41 -41
-78 -75 -82 -75 -4 0 -20 14 -35 30 l-27 31 -53 -53 c-42 -41 -55 -50 -65 -40
-10 10 1 25 50 74 l62 62 34 -33 35 -34 70 68 c38 37 67 73 64 80 -4 12 12 21
45 24 6 0 12 -8 12 -18z m-23 -234 l-2 -152 -47 -3 -48 -3 0 118 0 117 42 43
c23 23 45 40 49 37 4 -2 7 -73 6 -157z m-237 -52 l0 -105 -50 0 -50 0 0 62 c0
60 2 64 42 105 23 24 46 43 50 43 4 0 8 -47 8 -105z m85 75 c10 11 22 20 27
20 4 0 8 -45 8 -100 l0 -100 -50 0 -50 0 0 102 0 101 23 -21 24 -22 18 20z"/>
<path d="M4490 1769 c0 -11 5 -17 10 -14 6 3 10 13 10 21 0 8 -4 14 -10 14 -5
0 -10 -9 -10 -21z"/>
<path d="M4484 1715 c-8 -20 3 -48 16 -40 13 8 13 55 0 55 -6 0 -13 -7 -16
-15z"/>
<path d="M4862 1780 c0 -14 2 -19 5 -12 2 6 2 18 0 25 -3 6 -5 1 -5 -13z"/>
<path d="M4959 1808 c-7 -25 -7 -48 1 -48 6 0 10 11 10 25 0 20 -7 35 -11 23z"/>
<path d="M5029 1808 c-7 -25 -7 -48 1 -48 6 0 10 11 10 25 0 20 -7 35 -11 23z"/>
<path d="M4911 1784 c0 -11 3 -14 6 -6 3 7 2 16 -1 19 -3 4 -6 -2 -5 -13z"/>
<path d="M4990 1784 c0 -8 5 -12 10 -9 6 4 8 11 5 16 -9 14 -15 11 -15 -7z"/>
<path d="M4713 1697 c0 -15 5 -23 17 -23 16 0 16 2 3 23 -9 13 -16 23 -18 23
-1 0 -2 -10 -2 -23z"/>
<path d="M4879 1718 c-5 -17 -4 -48 3 -48 4 0 8 11 8 25 0 20 -7 34 -11 23z"/>
<path d="M4640 1694 c0 -8 5 -12 10 -9 6 4 8 11 5 16 -9 14 -15 11 -15 -7z"/>
<path d="M4745 1700 c3 -5 8 -10 11 -10 2 0 4 5 4 10 0 6 -5 10 -11 10 -5 0
-7 -4 -4 -10z"/>
<path d="M4780 1694 c0 -8 5 -12 10 -9 6 4 8 11 5 16 -9 14 -15 11 -15 -7z"/>
<path d="M4630 1604 c0 -8 5 -12 10 -9 6 4 8 11 5 16 -9 14 -15 11 -15 -7z"/>
<path d="M4662 1600 c0 -14 2 -19 5 -12 2 6 2 18 0 25 -3 6 -5 1 -5 -13z"/>
<path d="M4742 1600 c0 -14 2 -19 5 -12 2 6 2 18 0 25 -3 6 -5 1 -5 -13z"/>
<path d="M4840 1601 c0 -25 6 -27 13 -6 4 8 2 17 -3 20 -6 4 -10 -3 -10 -14z"/>
<path d="M4872 1600 c0 -14 2 -19 5 -12 2 6 2 18 0 25 -3 6 -5 1 -5 -13z"/>
<path d="M6167 1873 c-4 -3 -7 -183 -7 -400 l0 -393 405 0 405 0 0 400 0 400
-398 0 c-219 0 -402 -3 -405 -7z m187 -69 c16 -16 22 -105 10 -138 -7 -17 -59
-22 -69 -7 -3 5 -6 37 -7 72 -1 50 2 64 17 75 24 18 30 18 49 -2z m252 4 c4
-6 2 -14 -4 -16 -17 -5 -15 -22 3 -22 9 0 15 9 15 25 0 31 20 33 21 3 1 -16 3
-18 6 -6 6 22 32 31 39 14 3 -8 4 -25 2 -38 -3 -22 -7 -23 -100 -24 l-98 -1 0
29 c0 15 -4 28 -9 28 -4 0 -7 -13 -5 -30 2 -16 -1 -30 -6 -30 -6 0 -11 12 -11
28 l-1 27 -7 -25 c-9 -39 -31 -36 -31 4 l0 34 76 0 c42 0 78 3 81 6 10 9 21 7
29 -6z m214 -9 c0 -6 -6 -7 -12 -3 -10 6 -10 4 0 -7 21 -22 15 -49 -10 -46
-13 1 -26 7 -30 12 -5 7 -8 7 -8 0 0 -5 -11 -11 -25 -11 -22 -2 -25 2 -25 32
0 43 29 49 31 7 1 -28 1 -28 8 -4 9 33 31 39 31 9 0 -15 6 -25 15 -25 11 0 12
4 4 14 -13 15 -4 47 11 38 5 -3 10 -11 10 -16z m-550 -69 c0 -64 -3 -80 -15
-80 -12 0 -15 13 -15 55 0 30 -4 55 -10 55 -14 0 -13 23 2 38 29 29 38 13 38
-68z m331 -45 l6 -30 2 33 c1 33 20 46 22 15 1 -17 2 -17 6 0 7 27 23 20 24
-10 l2 -28 4 28 c6 38 23 34 25 -5 l1 -33 4 33 c5 38 29 43 43 10 l9 -23 0 23
c1 26 20 30 22 5 1 -16 2 -16 6 -2 3 12 14 17 36 16 29 -1 32 -4 32 -33 l0
-32 -212 0 -213 1 0 32 0 33 88 -2 87 -1 6 -30z m289 24 c0 -5 -5 -7 -11 -3
-8 5 -8 1 0 -14 15 -28 14 -42 -4 -42 -8 0 -15 5 -15 11 0 5 6 7 13 3 10 -6
10 -4 0 7 -18 18 -16 49 2 49 8 0 15 -5 15 -11z m-277 -150 c23 -5 53 -19 67
-29 23 -18 24 -20 9 -35 -15 -15 -19 -15 -50 4 -47 29 -116 28 -159 -1 -55
-38 -75 -73 -75 -132 0 -97 70 -166 170 -166 87 0 151 58 166 152 l8 53 -3
-57 c-5 -103 -80 -178 -180 -178 -58 0 -93 14 -135 53 -43 41 -61 84 -61 147
0 89 56 164 140 188 47 14 54 14 103 1z m37 -159 c0 -18 -7 -20 -85 -20 -64 0
-85 3 -85 13 0 24 12 27 92 27 71 0 78 -2 78 -20z m0 -70 c0 -18 -7 -20 -85
-20 -78 0 -85 2 -85 20 0 18 7 20 85 20 78 0 85 -2 85 -20z"/>
<path d="M6320 1729 c0 -37 4 -58 10 -54 6 3 10 31 10 61 0 30 -4 54 -10 54
-6 0 -10 -27 -10 -61z"/>
<path d="M6672 1780 c0 -14 2 -19 5 -12 2 6 2 18 0 25 -3 6 -5 1 -5 -13z"/>
<path d="M6722 1780 c0 -14 2 -19 5 -12 2 6 2 18 0 25 -3 6 -5 1 -5 -13z"/>
<path d="M6479 1709 c-8 -45 -4 -55 18 -41 8 5 8 12 -3 26 -8 11 -14 18 -15
15z"/>
<path d="M6432 1680 c0 -14 2 -19 5 -12 2 6 2 18 0 25 -3 6 -5 1 -5 -13z"/>
<path d="M6515 1690 c3 -5 8 -10 11 -10 2 0 4 5 4 10 0 6 -5 10 -11 10 -5 0
-7 -4 -4 -10z"/>
<path d="M6560 1696 c0 -2 7 -6 15 -10 8 -3 15 -1 15 4 0 6 -7 10 -15 10 -8 0
-15 -2 -15 -4z"/>
<path d="M382 1833 c-28 -11 -42 -62 -42 -155 0 -133 22 -166 105 -159 11 1
30 14 43 28 22 25 23 32 20 140 -3 107 -5 116 -27 134 -22 18 -70 24 -99 12z
m63 -154 c0 -107 -1 -114 -20 -114 -19 0 -20 8 -23 109 -2 81 1 112 10 118 28
17 33 -1 33 -113z"/>
<path d="M540 1833 c0 -5 -1 -75 -2 -158 l-1 -150 58 -3 c77 -4 95 12 95 83 0
35 -5 57 -15 65 -11 9 -13 16 -5 24 5 5 10 34 10 62 0 43 -4 56 -22 68 -23 16
-118 23 -118 9z m90 -82 c0 -26 -5 -41 -16 -45 -24 -9 -24 -9 -24 39 0 38 3
45 20 45 17 0 20 -7 20 -39z m8 -129 c4 -35 -11 -62 -34 -62 -10 0 -14 14 -14
51 0 47 2 50 23 47 17 -2 23 -11 25 -36z"/>
<path d="M805 1828 c-3 -7 -6 -69 -7 -138 -3 -103 -6 -125 -18 -125 -11 0 -16
13 -18 43 -3 38 -6 43 -25 40 -18 -2 -23 -11 -25 -44 -4 -57 22 -88 73 -87 65
2 70 15 70 176 0 140 0 142 -23 145 -12 2 -24 -3 -27 -10z"/>
<path d="M884 1827 c-2 -7 -3 -78 -2 -157 l3 -145 63 -3 c56 -3 62 -1 62 17 0
15 -8 20 -32 23 -32 3 -33 5 -36 51 -3 45 -2 47 22 47 19 0 26 5 26 20 0 15
-7 20 -25 20 -23 0 -25 4 -25 44 0 43 1 45 33 48 24 2 33 8 35 26 3 21 0 22
-58 22 -40 0 -62 -4 -66 -13z"/>
<path d="M1030 1819 c0 -12 8 -23 20 -26 18 -5 20 -15 22 -137 l3 -131 28 -3
27 -3 0 134 c0 126 1 135 20 140 12 3 20 14 20 26 0 19 -6 21 -70 21 -64 0
-70 -2 -70 -21z"/>
<path d="M1190 1680 l0 -161 28 3 27 3 0 155 0 155 -27 3 -28 3 0 -161z"/>
<path d="M1270 1823 c1 -10 13 -81 28 -158 l27 -140 30 0 30 0 27 130 c34 168
35 187 6 183 -21 -3 -25 -13 -38 -95 -8 -50 -18 -94 -22 -98 -3 -4 -9 15 -13
42 -3 26 -11 72 -16 101 -9 46 -13 52 -35 52 -16 0 -24 -6 -24 -17z"/>
<path d="M1489 1821 c-23 -18 -24 -25 -24 -140 0 -110 2 -122 21 -142 28 -27
89 -29 116 -2 15 16 20 38 23 115 5 102 -5 156 -32 176 -25 18 -77 15 -104 -7z
m79 -145 c-3 -103 -4 -111 -23 -111 -19 0 -20 8 -23 109 -3 111 3 131 35 119
11 -4 13 -30 11 -117z"/>
<path d="M1670 1820 c-36 -36 -27 -82 31 -146 38 -42 49 -62 47 -82 -2 -19 -9
-27 -23 -27 -15 0 -21 8 -23 33 -3 26 -7 32 -28 32 -21 0 -24 -5 -24 -34 0
-44 27 -77 65 -78 67 -2 91 22 86 87 -2 34 -15 55 -65 108 -34 37 -47 75 -26
79 29 4 35 1 40 -22 4 -16 14 -26 28 -28 18 -3 22 1 22 25 0 16 -7 39 -16 51
-20 29 -85 31 -114 2z"/>
<path d="M1899 1821 c-23 -18 -24 -25 -24 -145 0 -136 7 -156 55 -155 14 0 42
0 63 0 l37 0 0 85 0 84 -35 0 c-27 0 -35 -4 -35 -18 0 -10 5 -23 11 -29 6 -6
9 -26 7 -44 -2 -26 -8 -34 -23 -34 -19 0 -20 8 -23 109 -2 77 1 112 9 117 20
12 38 -1 41 -29 2 -19 9 -27 23 -27 26 0 32 47 10 81 -20 31 -81 33 -116 5z"/>
<path d="M2058 1828 c-2 -7 -3 -78 -1 -158 l2 -145 58 0 c45 0 58 3 58 15 0
10 -12 16 -32 18 l-33 3 0 140 0 139 -24 0 c-13 0 -26 -6 -28 -12z"/>
<path d="M2227 1828 c-27 -22 -35 -60 -33 -166 1 -89 4 -105 22 -123 32 -31
92 -29 121 6 21 24 23 36 23 134 0 94 -3 112 -21 135 -16 20 -29 26 -58 26
-20 0 -45 -6 -54 -12z m71 -152 c-3 -103 -4 -111 -23 -111 -19 0 -20 8 -23
104 -3 105 5 135 34 124 12 -4 14 -27 12 -117z"/>
<path d="M2384 1827 c-2 -7 -3 -78 -2 -157 l3 -145 59 -3 c78 -4 96 12 96 83
0 35 -5 57 -15 65 -11 9 -13 16 -5 24 5 5 10 34 10 62 0 43 -4 56 -22 68 -28
20 -116 22 -124 3z m96 -76 c0 -26 -5 -41 -16 -45 -24 -9 -24 -9 -24 39 0 38
3 45 20 45 17 0 20 -7 20 -39z m8 -135 c3 -38 -8 -56 -35 -56 -9 0 -13 17 -13
51 0 47 2 50 23 47 18 -2 23 -10 25 -42z"/>
<path d="M2617 1833 c-2 -5 -12 -48 -21 -98 -9 -49 -21 -112 -26 -138 -14 -68
-13 -77 11 -77 13 0 23 10 30 30 16 44 69 35 69 -12 0 -12 8 -18 23 -18 13 0
26 2 29 5 3 3 0 31 -7 63 -7 31 -20 101 -30 155 -18 95 -19 97 -46 97 -15 0
-30 -3 -32 -7z m42 -186 c1 -22 -3 -28 -16 -25 -14 3 -17 11 -14 43 1 22 6 44
9 50 7 12 20 -28 21 -68z"/>
<path d="M2759 1831 c-2 -6 -3 -79 -1 -161 3 -149 3 -151 25 -148 22 3 22 6
22 158 0 151 -1 155 -21 158 -12 2 -24 -2 -25 -7z"/>
<path d="M2858 1823 c-41 -46 -30 -92 38 -165 45 -48 48 -55 38 -82 -8 -22
-44 -20 -45 2 -1 9 -2 24 -3 32 0 9 -11 15 -26 15 -23 0 -25 -4 -24 -38 2 -50
22 -70 73 -70 50 0 69 15 77 59 8 45 -8 82 -57 130 -38 37 -50 76 -29 89 15 9
40 -14 40 -36 0 -12 7 -19 20 -19 17 0 20 7 20 40 0 29 -5 42 -19 50 -31 16
-86 12 -103 -7z"/>
<path d="M5378 1823 c7 -3 16 -2 19 1 4 3 -2 6 -13 5 -11 0 -14 -3 -6 -6z"/>
<path d="M5902 1816 c7 -8 15 -12 17 -11 5 6 -10 25 -20 25 -5 0 -4 -6 3 -14z"/>
<path d="M5730 1785 c0 -8 2 -15 4 -15 2 0 6 7 10 15 3 8 1 15 -4 15 -6 0 -10
-7 -10 -15z"/>
<path d="M6032 1775 c0 -16 2 -22 5 -12 2 9 2 23 0 30 -3 6 -5 -1 -5 -18z"/>
<path d="M5382 1765 c0 -16 2 -22 5 -12 2 9 2 23 0 30 -3 6 -5 -1 -5 -18z"/>
<path d="M5432 1729 c1 -57 2 -59 5 -16 3 33 8 45 16 40 7 -4 5 2 -3 13 -8 10
-16 21 -17 23 -2 2 -2 -25 -1 -60z"/>
<path d="M5332 1760 c0 -14 2 -19 5 -12 2 6 2 18 0 25 -3 6 -5 1 -5 -13z"/>
<path d="M5553 1734 c0 -8 6 -14 14 -14 7 0 13 4 13 9 0 5 -6 11 -13 14 -8 3
-14 -1 -14 -9z"/>
<path d="M5465 1730 c3 -5 10 -10 16 -10 5 0 9 5 9 10 0 6 -7 10 -16 10 -8 0
-12 -4 -9 -10z"/>
<path d="M5500 1732 c0 -4 9 -8 19 -8 11 0 17 4 15 8 -3 4 -12 8 -20 8 -8 0
-14 -4 -14 -8z"/>
<path d="M5600 1730 c-13 -8 -12 -10 3 -10 9 0 17 5 17 10 0 12 -1 12 -20 0z"/>
<path d="M5630 1730 c0 -4 36 -7 81 -7 44 -1 78 1 75 4 -8 8 -156 10 -156 3z"/>
<path d="M5820 1728 c0 -5 11 -8 25 -8 14 0 25 3 25 8 0 4 -11 7 -25 7 -14 0
-25 -3 -25 -7z"/>
<path d="M5885 1730 c-3 -5 3 -10 15 -10 12 0 18 5 15 10 -3 6 -10 10 -15 10
-5 0 -12 -4 -15 -10z"/>
<path d="M5700 1586 c0 -3 9 -10 20 -16 11 -6 20 -8 20 -6 0 3 -9 10 -20 16
-11 6 -20 8 -20 6z"/>
<path d="M5791 1523 c7 -12 15 -20 18 -17 3 2 -3 12 -13 22 -17 16 -18 16 -5
-5z"/>
<path d="M5603 1463 c1 -18 4 -33 7 -33 10 1 40 27 40 36 0 4 -5 3 -12 -4 -18
-18 -26 -15 -31 11 -3 13 -4 9 -4 -10z"/>
<path d="M5738 1476 c-10 -7 -18 -17 -18 -21 0 -5 9 0 20 10 19 18 20 17 20
-4 0 -14 -4 -20 -12 -15 -7 4 -8 3 -4 -4 13 -22 26 -12 26 18 0 33 -6 36 -32
16z"/>
<path d="M820 1375 l0 -75 33 0 c35 0 61 15 70 40 3 11 8 7 16 -12 9 -23 16
-28 43 -27 22 1 26 3 11 6 -12 2 -27 11 -33 19 -10 12 -8 14 17 14 16 0 34 5
39 10 12 12 64 -9 64 -27 0 -6 -12 -14 -27 -16 -26 -4 -25 -4 5 -6 21 0 35 4
38 14 8 20 -13 45 -38 45 -27 0 -17 23 13 31 l24 7 -25 1 c-15 1 -31 -4 -38
-11 -9 -9 -15 -9 -24 0 -17 17 -49 15 -63 -5 -11 -14 -13 -13 -19 13 -11 43
-24 54 -67 54 l-39 0 0 -75z m70 45 c25 -25 26 -61 2 -91 -30 -36 -50 -19 -54
45 -4 68 14 84 52 46z m110 -45 c11 -13 8 -15 -18 -15 -24 0 -30 4 -26 15 4 8
12 15 19 15 7 0 18 -7 25 -15z"/>
<path d="M1470 1375 c0 -43 4 -75 10 -75 6 0 10 32 10 75 0 43 -4 75 -10 75
-6 0 -10 -32 -10 -75z"/>
<path d="M2131 1428 c-12 -19 -11 -24 9 -40 12 -10 31 -18 41 -18 24 0 35 -25
19 -45 -6 -7 -26 -16 -43 -18 -21 -3 -17 -4 12 -3 75 2 84 58 13 81 -42 14
-47 22 -32 41 8 9 23 14 37 11 13 -2 26 0 29 4 3 5 -12 9 -33 9 -28 0 -42 -6
-52 -22z"/>
<path d="M2750 1434 c0 -8 5 -12 10 -9 6 3 10 10 10 16 0 5 -4 9 -10 9 -5 0
-10 -7 -10 -16z"/>
<path d="M2980 1377 c0 -42 3 -77 8 -77 8 0 6 139 -2 148 -3 3 -6 -29 -6 -71z"/>
<path d="M1590 1430 c0 -5 5 -10 10 -10 6 0 10 5 10 10 0 6 -4 10 -10 10 -5 0
-10 -4 -10 -10z"/>
<path d="M1957 1417 c-2 -7 -1 -34 2 -62 5 -39 10 -51 26 -54 19 -3 19 -3 3
16 -21 23 -23 59 -5 70 10 6 10 11 -4 25 -12 11 -19 13 -22 5z"/>
<path d="M2416 1412 c-9 -28 8 -105 24 -110 12 -4 13 -2 3 9 -17 17 -17 66 0
76 10 6 9 12 -4 25 -17 16 -18 16 -23 0z"/>
<path d="M5540 1402 c-23 -22 -23 -24 -3 -13 12 6 25 16 28 22 13 20 0 15 -25
-9z"/>
<path d="M5631 1416 l-25 -14 32 -16 c18 -9 32 -12 32 -6 0 5 -7 10 -15 10 -9
0 -12 6 -8 16 5 13 7 13 14 2 7 -10 9 -9 9 5 0 20 -7 21 -39 3z"/>
<path d="M5700 1420 c0 -5 3 -9 8 -9 28 5 34 -1 21 -18 -13 -17 -12 -17 4 -4
18 14 18 16 1 28 -21 16 -34 17 -34 3z"/>
<path d="M2659 1408 c-1 -7 0 -17 1 -23 1 -5 2 -17 2 -25 -2 -35 9 -60 26 -59
10 0 12 3 5 6 -16 6 -17 83 -2 83 6 0 4 7 -5 15 -18 18 -26 19 -27 3z"/>
<path d="M2735 1400 c-3 -5 3 -10 14 -10 32 0 25 -28 -6 -32 -22 -2 -28 -8
-28 -28 0 -22 4 -25 35 -25 33 0 35 2 38 38 2 28 -2 43 -15 53 -22 16 -30 17
-38 4z m35 -64 c0 -8 -5 -18 -11 -22 -14 -8 -33 11 -25 25 10 16 36 13 36 -3z"/>
<path d="M5817 1399 c7 -7 15 -10 18 -7 3 3 -2 9 -12 12 -14 6 -15 5 -6 -5z"/>
<path d="M351 1323 c1 -48 4 -68 8 -53 5 18 15 26 34 28 15 2 27 8 27 13 0 5
7 9 15 9 8 0 15 -5 15 -11 0 -6 14 -9 33 -7 35 3 45 26 33 74 -5 19 -13 24
-39 23 -27 -1 -29 -2 -9 -7 28 -8 30 -26 5 -31 -10 -2 -21 -8 -25 -14 -5 -8
-8 -7 -12 3 -2 8 -7 23 -10 33 -4 12 -16 17 -41 17 l-35 0 1 -77z m63 45 c13
-21 -2 -51 -28 -56 -20 -4 -30 20 -22 54 8 29 32 30 50 2z m82 -29 c10 -17
-13 -36 -27 -22 -12 12 -4 33 11 33 5 0 12 -5 16 -11z"/>
<path d="M535 1389 c-9 -14 4 -27 13 -13 4 6 14 14 22 17 10 4 8 6 -7 6 -12 1
-25 -4 -28 -10z"/>
<path d="M618 1392 c13 -4 23 -11 23 -17 0 -5 -10 -12 -23 -15 -16 -4 -23 -13
-23 -30 0 -22 5 -25 35 -25 29 0 36 4 38 24 2 12 1 34 -2 47 -5 19 -13 24 -39
23 -27 -1 -29 -2 -9 -7z m32 -56 c0 -8 -5 -18 -11 -22 -14 -8 -33 11 -25 25
10 16 36 13 36 -3z"/>
<path d="M712 1388 c-16 -16 -15 -63 2 -78 8 -6 25 -10 38 -8 20 3 23 9 23 48
0 41 -2 45 -25 48 -14 2 -31 -3 -38 -10z m53 -18 c9 -29 -4 -62 -23 -58 -12 2
-18 15 -20 41 -3 31 0 37 17 37 11 0 22 -9 26 -20z"/>
<path d="M1122 1388 c-13 -13 -16 -47 -6 -72 4 -10 17 -16 38 -15 28 1 29 2 7
8 -35 9 -37 29 -4 33 18 2 29 10 31 22 6 31 -41 49 -66 24z m48 -13 c0 -8 -9
-15 -20 -15 -11 0 -20 7 -20 15 0 8 9 15 20 15 11 0 20 -7 20 -15z"/>
<path d="M1207 1394 c-12 -12 -8 -96 4 -89 5 4 9 17 8 28 -3 45 1 57 21 57 17
0 20 -7 20 -45 0 -25 5 -45 10 -45 6 0 10 19 10 43 l1 42 20 -42 c20 -44 39
-56 39 -25 0 9 7 30 15 46 9 16 13 32 10 35 -8 8 -25 -20 -25 -41 0 -27 -17
-22 -32 9 -10 21 -21 27 -54 30 -22 2 -43 1 -47 -3z"/>
<path d="M1382 1388 c-7 -7 -12 -24 -12 -38 0 -31 17 -50 45 -50 28 0 45 19
45 50 0 31 -17 50 -45 50 -12 0 -26 -5 -33 -12z m56 -36 c5 -52 -44 -57 -52
-6 -4 24 13 46 33 42 10 -2 17 -16 19 -36z"/>
<path d="M1500 1393 c0 -16 33 -93 40 -93 7 0 40 77 40 93 0 19 -21 -7 -29
-36 l-9 -32 -16 38 c-15 34 -26 47 -26 30z"/>
<path d="M1627 1393 c-11 -10 -8 -93 3 -93 6 0 10 20 10 45 0 38 3 45 20 45
21 0 23 -7 20 -52 -1 -14 3 -29 9 -33 7 -4 11 10 11 39 0 38 3 46 19 46 23 0
31 -17 24 -52 -3 -14 0 -29 7 -33 8 -5 10 7 8 42 l-3 48 -61 2 c-33 2 -64 0
-67 -4z"/>
<path d="M1780 1381 c-23 -44 -5 -82 40 -80 l25 1 -25 7 c-33 9 -33 36 0 36
16 0 26 7 28 19 7 36 -50 50 -68 17z m50 -6 c11 -13 8 -15 -14 -15 -25 0 -33
10 -19 23 10 11 19 8 33 -8z"/>
<path d="M1869 1393 c0 -4 -2 -25 -4 -45 -2 -21 0 -40 6 -43 5 -4 9 13 9 39 0
39 3 46 20 46 17 0 20 -7 20 -39 0 -22 5 -43 11 -46 7 -5 9 9 7 42 -3 46 -4
48 -35 51 -18 2 -33 0 -34 -5z"/>
<path d="M2022 1388 c-16 -16 -15 -63 2 -78 8 -6 25 -10 38 -8 20 3 23 9 23
48 0 41 -2 45 -25 48 -14 2 -31 -3 -38 -10z m53 -38 c0 -28 -4 -35 -20 -35
-13 0 -21 8 -23 23 -5 34 5 54 25 50 13 -2 18 -13 18 -38z"/>
<path d="M2242 1355 c3 -50 3 -50 38 -50 30 0 35 3 38 26 3 25 5 26 33 16 34
-13 33 -28 -2 -38 -22 -6 -21 -7 7 -8 21 -1 34 5 38 15 8 21 -11 44 -36 44
-27 0 -17 23 13 31 24 7 24 7 -3 8 -15 1 -30 -4 -33 -9 -5 -8 -11 -7 -21 1
-12 9 -14 5 -14 -30 0 -29 -5 -44 -16 -48 -20 -7 -36 15 -31 44 2 12 0 28 -5
35 -5 8 -7 -6 -6 -37z"/>
<path d="M2482 1391 c-8 -5 -12 -23 -10 -47 3 -37 5 -39 38 -41 29 -2 31 -1
10 6 -34 10 -40 40 -7 34 30 -6 42 10 27 37 -11 21 -36 26 -58 11z m48 -16 c0
-10 -10 -15 -26 -15 -22 0 -25 2 -14 15 7 8 19 15 26 15 8 0 14 -7 14 -15z"/>
<path d="M2567 1394 c-12 -12 -8 -96 4 -88 6 3 9 18 6 32 -7 35 1 52 24 52 16
0 19 -8 19 -46 0 -25 4 -43 9 -39 5 3 9 24 8 48 -2 39 -5 42 -33 45 -16 2 -33
0 -37 -4z"/>
<path d="M2801 1389 c-1 -23 27 -89 39 -89 5 0 12 16 16 35 3 19 10 35 15 35
5 0 9 7 9 15 0 27 -20 16 -26 -15 -8 -39 -20 -38 -38 3 -8 17 -15 25 -15 16z"/>
<path d="M2889 1373 c-15 -40 2 -73 38 -72 27 1 28 1 4 8 -33 9 -39 31 -9 31
13 0 30 5 38 10 22 14 0 44 -34 48 -21 3 -28 -2 -37 -25z m59 0 c2 -8 -6 -13
-22 -13 -25 0 -33 10 -19 24 10 10 36 3 41 -11z"/>
<path d="M1595 1354 c-4 -22 -2 -41 4 -47 8 -8 11 3 11 36 0 56 -5 60 -15 11z"/>
<path d="M5787 1375 c3 -8 9 -12 14 -9 12 7 11 11 -5 17 -10 4 -13 1 -9 -8z"/>
<path d="M5856 1378 c3 -4 15 -13 27 -18 20 -10 20 -10 5 3 -10 8 -16 16 -13
19 3 2 -2 5 -10 5 -8 0 -12 -4 -9 -9z"/>
<path d="M5721 1351 c-10 -6 -9 -10 3 -14 8 -3 18 -2 21 3 8 13 -9 20 -24 11z"/>
<path d="M5833 1354 c4 -4 -1 -13 -11 -21 -15 -12 -14 -13 8 -2 33 16 33 16
13 23 -9 4 -14 4 -10 0z"/>
<path d="M5750 1326 c0 -3 9 -10 19 -16 15 -7 22 -7 27 2 4 7 4 10 -1 6 -4 -4
-16 -3 -26 3 -11 5 -19 7 -19 5z"/>
<path d="M5504 1279 c1 -31 7 -45 23 -56 17 -12 22 -12 29 -1 4 7 4 10 -1 6
-17 -16 -44 13 -48 52 l-4 40 1 -41z"/>
<path d="M5845 1304 c-11 -11 -16 -16 -11 -11 6 4 14 7 18 7 10 0 11 -53 1
-66 -5 -5 -2 -4 5 2 8 7 12 26 10 49 -3 37 -3 37 -23 19z"/>
<path d="M5634 1276 c26 -21 36 -20 35 2 0 10 -3 12 -6 5 -3 -10 -10 -10 -26
-2 -21 10 -21 10 -3 -5z"/>
<path d="M5601 1228 c2 -31 2 -31 6 -5 3 16 9 25 15 21 7 -4 8 -2 4 4 -14 22
-26 12 -25 -20z"/>
<path d="M5804 1227 c0 -15 6 -23 14 -20 10 4 10 9 0 22 -7 9 -13 17 -14 19
-1 2 -1 -8 0 -21z"/>
<path d="M5492 1204 c10 -10 20 -15 24 -12 3 4 -5 12 -18 18 -22 12 -22 12 -6
-6z"/>
<path d="M5675 1209 c-4 -6 -4 -13 -1 -16 3 -4 6 -1 6 6 0 7 5 9 12 5 7 -4 8
-3 4 4 -9 15 -13 15 -21 1z"/>
<path d="M5530 1186 c0 -2 7 -9 15 -16 9 -7 15 -8 15 -2 0 5 -7 12 -15 16 -8
3 -15 4 -15 2z"/>
<path d="M5730 1186 c0 -3 9 -10 20 -16 11 -6 20 -8 20 -6 0 3 -9 10 -20 16
-11 6 -20 8 -20 6z"/>
<path d="M5814 1174 c-18 -14 -18 -15 4 -4 12 6 22 13 22 15 0 8 -5 6 -26 -11z"/>
<path d="M3497 583 l3 -398 395 -3 395 -2 0 400 0 400 -397 0 -398 0 2 -397z
m364 320 c2 -25 2 -25 6 -5 7 36 37 24 41 -16 3 -32 2 -33 -35 -33 -21 1 -48
1 -60 0 -67 0 -73 2 -66 30 8 33 12 41 24 41 5 0 10 -10 10 -22 2 -23 2 -23 6
0 4 20 9 23 30 17 16 -4 22 -2 18 5 -3 5 1 10 9 10 10 0 16 -10 17 -27z m-261
0 c1 -17 1 -17 11 0 12 20 52 23 67 5 13 -17 13 -129 0 -145 -15 -19 -55 -16
-67 5 -10 16 -10 16 -11 0 0 -11 -8 -18 -20 -18 -18 0 -20 7 -20 54 0 35 -5
56 -12 59 -10 3 -10 10 1 30 16 30 51 37 51 10z m519 -1 c10 -16 10 -16 11 1
0 25 17 21 24 -5 11 -43 7 -48 -34 -48 -38 0 -40 2 -42 33 l-1 32 -4 -32 c-5
-40 -22 -44 -24 -5 l-2 27 -4 -27 c-4 -29 -8 -30 -78 -30 -14 0 -29 0 -35 1
-10 1 -14 53 -5 63 3 3 46 6 95 6 75 1 91 -1 99 -16z m92 -19 c5 -27 3 -30
-18 -30 -20 0 -24 3 -19 21 3 11 6 27 6 34 0 26 24 6 31 -25z m-341 -74 c6 -8
9 -6 12 7 4 17 6 16 16 -6 8 -18 11 -20 11 -7 1 11 9 17 26 17 14 0 28 1 32 3
4 1 9 -7 11 -18 3 -16 1 -17 -7 -5 -9 12 -11 11 -11 -7 0 -28 27 -21 32 8 5
32 23 22 26 -14 2 -22 -1 -34 -10 -35 -25 -2 -53 -2 -160 -2 l-108 0 0 34 c0
18 2 35 4 37 10 10 119 0 126 -12z m211 11 c5 0 10 -12 10 -27 l1 -28 7 30 c5
24 11 29 36 30 23 0 31 -5 36 -25 6 -23 7 -23 8 -3 1 21 21 44 21 24 0 -6 7
-8 15 -5 10 4 15 0 15 -14 0 -11 3 -27 6 -35 5 -13 -10 -15 -98 -14 -100 2
-103 3 -106 25 -5 34 6 55 24 48 9 -3 20 -6 25 -6z m-305 -91 c5 -8 9 -8 14 1
13 21 30 1 30 -34 0 -32 -1 -34 -40 -34 -39 -1 -40 0 -40 32 0 43 19 62 36 35z
m115 -25 l7 -29 1 27 c1 23 5 27 31 26 20 -1 30 -6 31 -17 1 -13 2 -13 6 2 9
34 33 10 33 -33 0 -16 -9 -18 -82 -16 -79 1 -83 2 -86 24 -5 36 5 52 30 49 16
-3 25 -13 29 -33z m176 -113 c33 -18 77 -50 98 -71 l37 -38 -21 -30 c-49 -69
-184 -132 -282 -132 -99 0 -241 67 -285 135 -17 26 -16 27 21 65 40 41 119 88
169 101 17 5 70 7 117 5 74 -3 95 -8 146 -35z"/>
<path d="M3641 876 c-1 -13 -6 -17 -21 -13 -17 4 -20 0 -20 -24 0 -21 4 -27
15 -23 9 4 18 -2 24 -17 9 -22 10 -22 10 -3 1 11 -5 26 -11 32 -10 10 -10 15
1 21 7 5 11 17 8 27 -5 18 -5 18 -6 0z"/>
<path d="M3940 884 c0 -8 5 -12 10 -9 6 4 8 11 5 16 -9 14 -15 11 -15 -7z"/>
<path d="M4112 790 c0 -14 2 -19 5 -12 2 6 2 18 0 25 -3 6 -5 1 -5 -13z"/>
<path d="M3762 700 c0 -14 2 -19 5 -12 2 6 2 18 0 25 -3 6 -5 1 -5 -13z"/>
<path d="M3850 700 c0 -5 5 -10 11 -10 5 0 7 5 4 10 -3 6 -8 10 -11 10 -2 0
-4 -4 -4 -10z"/>
<path d="M3883 593 c-9 -3 -10 -10 -3 -22 7 -15 4 -21 -16 -30 -14 -6 -33 -11
-42 -11 -13 0 -12 -5 8 -21 l25 -20 -35 3 c-33 3 -35 1 -35 -27 0 -20 5 -30
15 -30 8 0 19 -10 25 -22 12 -27 24 -29 31 -5 3 9 10 25 15 35 6 11 6 17 -1
17 -5 0 -10 7 -10 16 0 14 3 14 15 4 18 -15 20 1 3 18 -20 20 2 14 30 -8 19
-16 27 -18 33 -8 9 14 11 12 27 -17 8 -14 11 -16 12 -5 0 9 9 22 19 30 18 12
18 16 5 42 -22 42 -86 75 -121 61z"/>
<path d="M3983 429 c-26 -10 -30 -24 -8 -33 9 -3 19 3 26 15 13 26 10 29 -18
18z"/>
<path d="M3883 363 c9 -2 25 -2 35 0 9 3 1 5 -18 5 -19 0 -27 -2 -17 -5z"/>
<path d="M4391 585 l-2 -395 396 0 395 0 0 395 0 395 -394 0 -394 -1 -1 -394z
m754 337 c-3 -3 -11 0 -18 7 -9 10 -8 11 6 5 10 -3 15 -9 12 -12z m-655 -59
l1 -58 23 55 c18 46 27 55 48 56 26 1 27 -6 14 -79 -4 -25 16 -61 29 -49 5 4
5 1 1 -6 -4 -7 -12 -10 -17 -7 -5 4 -9 -1 -9 -9 0 -9 -9 -16 -20 -16 -11 0
-20 4 -20 9 0 5 -11 11 -25 13 -17 4 -25 1 -25 -8 0 -8 -9 -14 -20 -14 -18 0
-20 7 -20 55 0 39 -3 53 -12 50 -8 -3 -13 4 -13 19 0 13 3 22 6 20 4 -2 12 3
19 11 26 32 40 17 40 -42z m241 40 c1 -17 2 -17 6 0 7 26 27 15 34 -19 l7 -29
1 33 c1 25 5 32 21 32 12 0 20 -7 21 -17 1 -17 2 -17 6 0 7 27 23 16 37 -23
l12 -35 -96 1 c-140 1 -140 1 -140 25 0 11 -4 18 -9 15 -5 -4 -7 2 -4 12 7 27
102 31 104 5z m-114 -68 c0 -8 -4 -12 -8 -9 -4 2 -9 -1 -11 -8 -3 -7 -7 -5
-11 6 -4 9 -3 15 2 11 5 -3 12 -1 16 5 9 14 12 13 12 -5z m53 -3 c0 -4 27 -7
59 -5 58 3 84 -8 60 -23 -8 -4 -9 -3 -5 4 4 7 3 12 -3 12 -6 0 -7 -15 -4 -35
l6 -36 -76 2 c-54 1 -77 6 -81 15 -3 8 -1 14 4 14 6 0 10 11 10 23 0 13 3 27
7 30 9 10 23 9 23 -1z m-149 -104 c-10 -11 -11 -9 -5 6 6 15 4 17 -6 11 -9 -6
-11 -4 -5 4 5 9 10 10 18 2 8 -8 7 -14 -2 -23z m101 -9 c-21 -24 -26 -24 -13
0 6 10 7 21 3 25 -3 4 1 4 10 1 15 -6 15 -8 0 -26z m-131 4 c13 -16 12 -17 -3
-4 -17 13 -22 21 -14 21 2 0 10 -8 17 -17z m242 -14 c-8 -8 -13 -7 -18 2 -5 8
-4 10 3 5 7 -4 12 -2 12 5 0 7 3 9 7 6 4 -4 2 -12 -4 -18z m-150 -4 c-3 -9 -8
-14 -10 -11 -3 3 -2 9 2 15 9 16 15 13 8 -4z m126 -4 c2 -1 -2 -7 -8 -14 -6
-8 -10 -16 -8 -18 1 -2 0 -2 -3 -1 -3 2 -5 7 -5 10 0 4 -4 12 -8 19 -6 10 -2
11 32 4z m76 -1 c3 -6 -1 -7 -9 -4 -18 7 -21 14 -7 14 6 0 13 -4 16 -10z
m-325 -4 c0 -2 -7 -7 -16 -10 -8 -3 -12 -2 -9 4 6 10 25 14 25 6z m385 -42
c51 7 53 7 98 0 22 -4 43 -2 51 5 11 9 12 6 8 -15 -4 -21 -2 -25 9 -19 11 7
12 6 2 -6 -14 -17 -70 -17 -102 1 -13 7 -22 7 -26 0 -8 -14 -78 -13 -92 1 -12
12 -37 3 -29 -9 6 -10 -77 -2 -88 9 -6 5 -15 4 -22 -2 -7 -6 -35 -12 -61 -13
-26 -2 -43 -2 -37 1 6 2 9 18 7 36 -2 17 0 26 3 20 3 -7 22 -13 42 -13 28 0
33 3 22 10 -10 7 -4 8 20 3 19 -3 53 -6 75 -7 34 -1 40 2 37 18 -3 16 -1 16
20 -4 18 -17 31 -20 63 -16z m105 22 c0 -2 -7 -7 -16 -10 -8 -3 -12 -2 -9 4 6
10 25 14 25 6z m87 -19 c0 -8 -6 -14 -14 -14 -9 0 -10 4 -2 14 6 7 12 13 14
13 1 0 2 -6 2 -13z m-309 -69 c17 1 41 1 52 1 11 0 36 0 55 0 150 1 165 -1
165 -22 0 -12 4 -16 13 -11 6 4 9 3 4 -1 -11 -13 -87 -17 -101 -6 -9 7 -22 7
-44 -1 -24 -9 -39 -10 -62 -1 -22 8 -38 8 -60 0 -20 -8 -38 -8 -57 -1 -18 6
-37 7 -54 0 -36 -13 -79 0 -79 24 0 16 5 19 29 14 16 -3 37 -1 48 5 10 6 27 8
38 5 11 -4 35 -6 53 -6z m312 -42 c0 -2 -8 -10 -17 -17 -16 -13 -17 -12 -4 4
13 16 21 21 21 13z m-375 -25 c-3 -6 3 -14 12 -20 14 -8 15 -10 3 -11 -12 0
-12 -2 -2 -9 11 -7 11 -9 -1 -14 -11 -4 -15 0 -12 13 2 11 -1 22 -6 25 -9 6
-3 25 7 25 3 0 3 -4 -1 -9z m240 -1 c3 -5 1 -10 -4 -10 -6 0 -11 5 -11 10 0 6
2 10 4 10 3 0 8 -4 11 -10z m-265 -6 c0 -8 -19 -13 -24 -6 -3 5 1 9 9 9 8 0
15 -2 15 -3z m137 -10 c-3 -3 -12 -4 -19 -1 -8 3 -5 6 6 6 11 1 17 -2 13 -5z
m-167 -19 c16 -8 35 -24 43 -35 l15 -21 35 24 c20 14 34 26 32 29 -6 5 18 8
108 12 45 2 73 0 65 -5 -7 -5 -10 -9 -6 -9 3 0 14 -3 24 -7 11 -4 15 -3 10 5
-3 6 -2 13 3 17 6 3 8 -3 6 -14 -2 -11 8 -30 26 -47 36 -34 36 -40 2 -77 -20
-22 -23 -28 -10 -24 11 4 16 3 12 -4 -4 -5 -12 -8 -18 -6 -7 2 -30 -4 -52 -14
-22 -10 -56 -19 -75 -19 -36 0 -113 30 -141 56 -14 12 -18 12 -35 -7 -19 -22
-66 -49 -82 -49 -6 0 -9 11 -8 24 0 13 4 22 8 20 4 -3 10 12 14 32 6 31 -2 71
-22 122 -7 16 11 15 46 -3z m420 -51 c0 -8 -19 -13 -24 -6 -3 5 1 9 9 9 8 0
15 -2 15 -3z m7 -37 c0 -8 -6 -14 -14 -14 -9 0 -10 4 -2 14 6 7 12 13 14 13 1
0 2 -6 2 -13z m-30 -42 c0 -8 -4 -12 -9 -9 -5 3 -6 10 -3 15 9 13 12 11 12 -6z
m-321 -27 c4 -7 3 -8 -4 -4 -7 4 -12 3 -12 -3 0 -5 6 -12 13 -14 9 -4 9 -6 0
-6 -15 -1 -26 16 -18 29 8 13 12 13 21 -2z"/>
<path d="M4864 419 c-8 -14 11 -33 25 -25 16 10 13 36 -3 36 -8 0 -18 -5 -22
-11z"/>
<path d="M6168 580 l2 -400 395 2 395 3 3 398 2 397 -400 0 -400 0 3 -400z
m570 346 c6 -3 17 -3 26 0 13 5 16 -1 16 -29 0 -29 -3 -34 -22 -33 -11 0 -23
-4 -25 -9 -2 -6 13 -10 34 -10 33 0 37 -3 37 -25 0 -40 -10 -50 -44 -40 -18 5
-32 5 -36 -1 -4 -6 -11 -6 -19 1 -9 7 -15 8 -19 1 -4 -6 -15 -7 -30 -1 -15 5
-27 5 -34 -2 -12 -12 -16 -6 -25 37 -3 15 -5 13 -6 -7 0 -16 -5 -28 -11 -28
-5 0 -11 12 -11 28 l-1 27 -8 -30 c-8 -30 -8 -30 -9 7 l-1 37 68 -2 c37 -1 69
-5 72 -9 3 -4 11 1 18 12 10 16 9 18 -3 14 -11 -5 -15 2 -16 27 l-2 34 -7 -35
-7 -35 -2 31 c-1 20 -6 31 -16 31 -11 0 -12 -4 -4 -14 6 -7 9 -19 6 -27 -7
-17 -99 -16 -105 2 -2 6 1 12 7 12 6 0 11 9 11 20 0 32 30 24 31 -7 l2 -28 4
27 c2 15 11 28 20 30 26 5 100 1 111 -6z m-288 -13 c0 -10 -7 -27 -15 -37 -14
-19 -15 -18 -15 17 0 26 4 37 15 37 8 0 15 -8 15 -17z m41 -14 c6 -21 7 -21 9
-4 1 11 2 23 1 28 0 4 6 7 14 7 18 0 18 -5 5 -31 -8 -15 -7 -19 5 -19 8 0 15
-5 15 -10 0 -6 -20 -9 -45 -8 -35 1 -45 5 -40 15 3 8 5 24 5 35 0 27 23 18 31
-13z m333 25 c-6 -3 -10 -18 -8 -35 3 -21 0 -29 -9 -27 -6 3 -13 19 -15 36 -3
28 0 32 20 31 13 0 18 -3 12 -5z m-549 -90 c0 -67 -3 -79 -18 -82 -14 -3 -17
5 -17 52 0 31 -4 56 -10 56 -15 0 -12 21 7 42 28 32 37 16 38 -68z m83 74 c17
-17 15 -38 -3 -38 -8 0 -15 5 -15 10 0 6 -4 10 -10 10 -19 0 -10 -25 13 -35
15 -7 23 -20 25 -43 4 -42 -14 -64 -47 -60 -25 3 -26 6 -29 72 -2 38 -1 75 2
83 7 16 48 17 64 1z m182 -93 c0 -19 -4 -35 -10 -35 -5 0 -10 11 -10 23 0 14
-6 24 -15 24 -11 0 -12 -4 -4 -14 14 -16 3 -47 -12 -37 -7 4 -25 7 -40 6 -26
-1 -29 3 -29 31 l0 32 60 2 60 3 0 -35z m-3 -68 c4 -6 1 -13 -5 -15 -7 -2 -12
-8 -12 -14 0 -6 6 -6 15 2 8 7 15 19 15 26 0 8 5 14 10 14 6 0 10 -9 10 -19 0
-11 5 -23 11 -27 8 -5 10 1 7 19 -4 23 -2 25 23 25 25 -1 28 -4 25 -29 -2 -21
1 -27 15 -26 13 1 15 4 7 14 -13 16 -2 46 14 41 12 -4 16 -46 6 -63 -3 -6 -47
-9 -102 -7 -81 3 -96 6 -97 20 -1 15 -2 15 -6 0 -3 -11 -14 -18 -29 -18 -21 0
-24 5 -24 35 l0 36 55 -2 c31 -1 59 -7 62 -12z m250 -52 c-4 -8 -11 -15 -17
-15 -14 0 -13 27 3 33 16 6 21 1 14 -18z m-41 -9 c3 -15 11 -23 19 -20 7 3 16
1 20 -5 3 -6 -1 -14 -9 -17 -9 -3 -14 -10 -11 -14 9 -15 -15 -22 -30 -10 -12
10 -15 8 -16 -11 -1 -13 -1 -31 0 -39 1 -11 -3 -9 -14 5 -16 20 -16 20 -31 1
-8 -11 -14 -36 -14 -55 0 -50 -31 -97 -74 -111 -25 -8 -36 -18 -36 -31 0 -18
6 -20 58 -17 56 3 57 3 57 33 0 28 3 30 40 33 39 2 81 -15 59 -24 -6 -3 -10
-15 -8 -27 2 -12 5 -41 8 -65 l4 -42 -53 0 c-52 0 -54 1 -52 28 l2 27 -163 0
c-158 0 -162 1 -162 21 0 20 4 20 80 16 75 -4 80 -3 80 16 0 14 -8 22 -28 26
-15 4 -41 15 -57 26 -29 19 -29 20 -7 20 13 0 38 10 54 22 l30 21 -26 14 c-14
7 -26 15 -26 16 0 1 -11 33 -24 71 l-24 68 35 -5 c19 -4 56 -22 81 -42 54 -42
74 -43 119 -9 23 17 43 24 59 21 28 -5 28 -4 12 23 -19 29 1 38 22 10 10 -14
22 -21 26 -17 4 4 2 7 -5 7 -7 0 -9 5 -6 10 3 6 1 10 -4 10 -6 0 -11 9 -11 20
0 28 18 25 26 -4z"/>
<path d="M6720 900 c0 -13 5 -18 15 -14 8 4 15 10 15 14 0 4 -7 10 -15 14 -10
4 -15 -1 -15 -14z"/>
<path d="M6670 808 c0 -12 3 -17 8 -12 4 5 11 12 15 15 5 3 2 9 -7 12 -12 5
-16 0 -16 -15z"/>
<path d="M6712 810 c0 -14 2 -19 5 -12 2 6 2 18 0 25 -3 6 -5 1 -5 -13z"/>
<path d="M6754 811 c0 -12 7 -19 17 -18 13 1 14 5 5 19 -14 23 -22 23 -22 -1z"/>
<path d="M6320 805 c0 -14 5 -25 10 -25 6 0 10 11 10 25 0 14 -4 25 -10 25 -5
0 -10 -11 -10 -25z"/>
<path d="M6470 811 c0 -5 7 -12 16 -15 14 -5 15 -4 4 9 -14 17 -20 19 -20 6z"/>
<path d="M6434 720 c0 -11 4 -20 8 -20 4 0 8 9 8 20 0 11 -4 20 -8 20 -4 0 -8
-9 -8 -20z"/>
<path d="M6607 726 c-4 -10 -5 -21 -2 -24 9 -9 17 6 13 25 -3 17 -4 17 -11 -1z"/>
<path d="M6522 380 c0 -14 2 -19 5 -12 2 6 2 18 0 25 -3 6 -5 1 -5 -13z"/>
<path d="M7060 580 l0 -400 400 0 400 0 0 400 0 400 -400 0 -400 0 0 -400z
m115 255 c0 -54 -4 -80 -12 -82 -10 -4 -13 12 -13 57 0 38 -4 59 -10 55 -14
-9 -12 29 2 43 24 24 33 5 33 -73z m78 52 c-4 -54 -33 -137 -48 -137 -8 0 -15
1 -15 3 0 1 7 27 15 57 19 69 19 80 0 80 -8 0 -15 7 -15 16 0 11 8 14 33 12
28 -3 32 -6 30 -31z m67 12 c0 -11 -7 -27 -15 -35 -13 -14 -15 -11 -15 20 0
25 4 36 15 36 9 0 15 -9 15 -21z m40 8 c0 8 23 12 73 11 56 -1 73 -4 79 -17 6
-14 7 -14 7 2 1 23 21 22 21 -2 0 -10 7 -25 17 -32 15 -13 15 -12 4 9 -6 12
-9 27 -6 32 12 20 22 9 23 -24 l1 -34 -128 0 c-127 -1 -129 0 -124 21 11 49
13 53 23 37 6 -9 10 -10 10 -3z m255 -22 c0 -21 -5 -35 -12 -35 -8 0 -13 14
-13 35 0 21 5 35 13 35 7 0 12 -14 12 -35z m171 24 c3 -5 0 -9 -7 -9 -10 0
-10 -3 -1 -12 28 -28 13 -37 -68 -36 l-80 0 0 32 0 32 75 1 c41 0 78 -3 81 -8z
m1 -106 c10 -26 11 -26 12 -5 2 38 31 27 31 -13 0 -34 -1 -34 -37 -31 -21 2
-44 -1 -50 -7 -9 -6 -13 -6 -13 2 0 7 -10 10 -25 7 -19 -4 -25 0 -25 14 0 45
29 70 31 28 l2 -23 4 23 c4 22 33 32 33 11 0 -5 -4 -7 -10 -4 -5 3 -10 -3 -10
-14 0 -14 5 -19 15 -15 13 5 20 24 16 47 -3 19 16 4 26 -20z m-435 8 c-12 -7
-11 -28 1 -47 5 -8 -4 -12 -28 -12 -33 0 -35 2 -35 33 0 31 2 33 36 33 21 0
32 -3 26 -7z m49 -3 c0 -10 2 -10 6 0 2 6 20 12 39 12 29 0 34 -3 34 -24 0
-14 5 -28 10 -31 6 -4 10 6 10 24 l0 29 88 0 88 0 -4 -35 c-5 -37 -17 -34 -25
7 -3 20 -5 18 -6 -10 -1 -27 -4 -31 -11 -20 -5 8 -10 10 -10 4 0 -6 -29 -11
-75 -12 -59 -1 -75 2 -75 14 0 8 -4 14 -10 14 -5 0 -10 -6 -10 -14 0 -9 -12
-13 -40 -12 -38 1 -40 2 -40 33 0 23 5 33 15 33 8 0 15 -6 16 -12z m135 -172
c18 -18 47 -39 63 -46 60 -24 79 -97 42 -154 -11 -17 -18 -33 -15 -38 10 -15
-17 -77 -42 -97 -20 -16 -41 -19 -126 -19 -98 0 -103 1 -130 28 -20 21 -28 38
-28 65 0 22 -8 47 -20 62 -28 36 -26 85 5 122 14 16 36 33 47 37 12 3 36 22
54 40 26 28 39 34 74 34 34 0 48 -6 76 -34z"/>
<path d="M7410 883 c0 -21 3 -24 9 -14 5 8 7 20 4 28 -8 21 -13 15 -13 -14z"/>
<path d="M7452 885 c0 -16 2 -22 5 -12 2 9 2 23 0 30 -3 6 -5 -1 -5 -18z"/>
<path d="M7732 880 c0 -14 2 -19 5 -12 2 6 2 18 0 25 -3 6 -5 1 -5 -13z"/>
<path d="M7812 790 c0 -14 2 -19 5 -12 2 6 2 18 0 25 -3 6 -5 1 -5 -13z"/>
<path d="M7302 790 c0 -14 2 -19 5 -12 2 6 2 18 0 25 -3 6 -5 1 -5 -13z"/>
<path d="M7515 790 c2 -31 15 -37 15 -7 0 15 -4 27 -8 27 -5 0 -8 -9 -7 -20z"/>
<path d="M7593 790 c1 -11 5 -20 9 -20 4 0 8 9 8 20 0 11 -4 20 -9 20 -6 0 -9
-9 -8 -20z"/>
<path d="M7423 638 c-34 -17 -36 -36 -4 -53 16 -8 32 -20 34 -27 4 -10 9 -9
19 3 7 9 23 21 36 28 30 16 28 27 -8 46 -33 17 -46 18 -77 3z"/>
<path d="M7321 564 c-32 -23 -44 -61 -30 -96 11 -27 29 -38 29 -18 0 5 13 16
29 24 l29 15 -15 43 c-8 24 -16 44 -17 45 -1 2 -12 -5 -25 -13z"/>
<path d="M7380 562 c0 -24 37 -72 56 -72 30 0 3 59 -37 80 -16 9 -19 7 -19 -8z"/>
<path d="M7508 560 c-29 -22 -43 -70 -22 -70 23 0 54 38 54 65 0 30 -1 30 -32
5z"/>
<path d="M7570 565 c0 -9 -7 -29 -15 -45 -9 -17 -11 -30 -6 -30 5 0 23 -12 40
-26 l31 -26 10 27 c14 36 13 47 -6 73 -22 31 -54 48 -54 27z"/>
<path d="M7375 460 c-12 -4 -26 -14 -33 -23 -10 -12 -9 -16 4 -21 34 -13 108
29 82 46 -16 9 -27 9 -53 -2z"/>
<path d="M7495 460 c-16 -26 50 -59 81 -42 14 8 12 12 -11 30 -30 24 -60 28
-70 12z"/>
<path d="M7446 424 c-9 -24 -7 -67 4 -84 9 -13 11 -13 20 0 17 26 10 100 -10
100 -4 0 -11 -7 -14 -16z"/>
<path d="M7320 377 c0 -24 53 -77 77 -77 24 0 48 16 35 24 -5 3 -12 20 -16 38
-6 31 -8 33 -51 33 -37 0 -45 -3 -45 -18z"/>
<path d="M7510 375 c0 -11 -7 -30 -15 -42 -15 -21 -14 -23 9 -29 41 -10 95 29
96 71 0 17 -7 20 -45 20 -39 0 -45 -3 -45 -20z"/>
<path d="M8307 882 c-22 -3 -27 -7 -22 -20 4 -9 12 -29 17 -44 18 -51 42 -28
36 33 -3 31 -6 34 -31 31z"/>
<path d="M8360 835 c0 -54 15 -58 36 -10 19 47 18 55 -11 55 -23 0 -25 -4 -25
-45z"/>
<path d="M8243 857 c-29 -13 -29 -16 6 -57 25 -30 30 -33 36 -18 4 10 1 33 -6
52 -12 29 -17 32 -36 23z"/>
<path d="M8479 803 c-13 -16 -12 -17 4 -4 16 13 21 21 13 21 -2 0 -10 -8 -17
-17z"/>
<path d="M8155 739 c-8 -26 -8 -26 38 -33 48 -8 50 14 3 37 -34 16 -35 15 -41
-4z"/>
<path d="M8446 748 c3 -5 10 -6 15 -3 13 9 11 12 -6 12 -8 0 -12 -4 -9 -9z"/>
<path d="M8493 743 c-48 -24 -42 -43 12 -43 46 0 53 8 39 44 -7 19 -10 19 -51
-1z"/>
<path d="M8140 660 c0 -27 3 -31 18 -25 9 3 29 9 45 12 37 7 35 33 -2 33 -16
0 -36 3 -45 6 -13 5 -16 -1 -16 -26z"/>
<path d="M8508 682 c-49 -4 -49 -25 -1 -40 43 -13 46 -12 41 20 -3 20 -8 23
-40 20z"/>
<path d="M8269 534 c-12 -19 -20 -36 -18 -38 2 -2 14 -8 26 -15 20 -10 23 -9
29 16 3 16 8 35 10 44 9 34 -25 28 -47 -7z"/>
<path d="M8386 562 c-3 -5 -3 -25 1 -45 6 -37 23 -47 51 -28 10 6 9 15 -8 44
-22 37 -34 45 -44 29z"/>
<path d="M8335 519 c-4 -6 -5 -12 -2 -15 2 -3 7 2 10 11 7 17 1 20 -8 4z"/>
<path d="M8029 394 c-6 -7 -9 -25 -7 -41 3 -27 4 -28 71 -30 l67 -2 -2 42 -1
42 -4 -38 c-4 -35 -5 -36 -21 -20 -9 9 -17 23 -17 32 0 21 -71 33 -86 15z m18
-51 c-3 -10 -5 -2 -5 17 0 19 2 27 5 18 2 -10 2 -26 0 -35z"/>
<path d="M8323 402 c-16 -2 -23 -11 -24 -25 l0 -22 -9 23 c-16 38 -40 28 -40
-18 0 -23 5 -40 11 -40 7 0 9 11 5 30 -3 19 -2 29 4 25 6 -3 10 -17 10 -31 0
-47 28 -21 31 29 1 13 4 7 8 -13 8 -48 41 -55 41 -9 l0 33 22 -21 c12 -13 19
-26 14 -30 -4 -4 -11 -1 -16 7 -8 13 -10 12 -10 -2 0 -11 8 -18 20 -18 25 0
26 26 3 53 -17 19 -17 20 0 14 9 -4 17 -2 17 3 0 14 -15 19 -30 10 -8 -5 -19
-6 -25 -1 -5 4 -20 5 -32 3z m24 -59 c-3 -10 -5 -2 -5 17 0 19 2 27 5 18 2
-10 2 -26 0 -35z"/>
<path d="M8443 403 c-8 -3 -13 -22 -13 -44 0 -32 3 -39 20 -39 13 0 20 7 20
20 0 11 -4 20 -10 20 -5 0 -10 7 -10 16 0 8 5 12 10 9 6 -3 10 -2 10 4 0 13
-12 19 -27 14z m17 -63 c0 -5 -2 -10 -4 -10 -3 0 -8 5 -11 10 -3 6 -1 10 4 10
6 0 11 -4 11 -10z"/>
<path d="M8521 397 c-6 -6 -11 -24 -11 -39 0 -42 -18 -34 -23 10 l-4 37 -1
-42 -2 -42 38 2 c35 2 37 4 40 38 3 39 -16 57 -37 36z m16 -54 c-3 -10 -5 -2
-5 17 0 19 2 27 5 18 2 -10 2 -26 0 -35z"/>
<path d="M8695 400 c-3 -5 -12 -7 -20 -4 -9 4 -15 -4 -18 -28 l-4 -33 -1 33
c-2 41 -24 39 -33 -4 -6 -27 -9 -23 -13 16 0 8 -9 16 -18 18 -15 3 -18 -4 -18
-36 l0 -39 75 0 c80 -1 97 8 71 36 -21 23 -20 32 2 24 15 -6 15 -5 3 10 -16
20 -18 20 -26 7z m15 -63 c0 -5 -7 -2 -15 7 -8 8 -15 20 -15 27 0 14 29 -20
30 -34z m-123 1 c-3 -8 -6 -5 -6 6 -1 11 2 17 5 13 3 -3 4 -12 1 -19z"/>
<path d="M8170 360 c0 -31 4 -40 18 -40 14 0 14 2 3 9 -12 8 -12 12 -2 25 9
11 10 16 2 16 -6 0 -11 5 -11 10 0 6 9 10 19 10 16 0 21 -8 23 -37 l3 -38 5
43 c6 42 5 42 -27 42 -32 0 -33 -1 -33 -40z"/>
</g>
</svg>
